<svg width="390" height="368" viewBox="0 0 390 368" fill="none" xmlns="http://www.w3.org/2000/svg">
<g opacity="0.03" clip-path="url(#clip0_8186_85400)">
<mask id="mask0_8186_85400" style="mask-type:luminance" maskUnits="userSpaceOnUse" x="-601" y="0" width="1266" height="389">
<path d="M665 389H-601V0H665V389Z" fill="white"/>
</mask>
<g mask="url(#mask0_8186_85400)">
<path d="M-1077.52 172.751L-732.008 324.699C-601.33 382.163 -417.758 426.323 -204.845 451.512L358.391 518.153" stroke="white" stroke-width="7" stroke-miterlimit="10" stroke-linecap="round"/>
<path d="M-1052.97 163.116L-707.46 315.064C-576.783 372.529 -393.21 416.688 -180.298 441.878L382.938 508.519" stroke="white" stroke-width="7" stroke-miterlimit="10" stroke-linecap="round"/>
<path d="M-1028.43 153.482L-682.912 305.43C-552.235 362.894 -368.663 407.054 -155.749 432.243L407.486 498.884" stroke="white" stroke-width="7" stroke-miterlimit="10" stroke-linecap="round"/>
<path d="M-1003.88 143.847L-658.364 295.795C-527.687 353.26 -344.115 397.42 -131.202 422.608L432.034 489.25" stroke="white" stroke-width="7" stroke-miterlimit="10" stroke-linecap="round"/>
<path d="M-980.693 134.748L-635.179 286.696C-504.502 344.16 -320.929 388.32 -108.017 413.509L455.192 480.161" stroke="white" stroke-width="7" stroke-miterlimit="10" stroke-linecap="round"/>
<path d="M-956.146 125.113L-610.631 277.062C-479.954 334.526 -296.382 378.686 -83.469 403.875L479.739 470.527" stroke="white" stroke-width="7" stroke-miterlimit="10" stroke-linecap="round"/>
<path d="M-931.597 115.479L-586.083 267.427C-455.406 324.892 -271.834 369.051 -58.9202 394.24L504.288 460.892" stroke="white" stroke-width="7" stroke-miterlimit="10" stroke-linecap="round"/>
<path d="M-762.49 49.1078L-416.976 201.056C-286.298 258.52 -102.725 302.68 110.187 327.869L673.393 394.521" stroke="white" stroke-width="7" stroke-miterlimit="10" stroke-linecap="round"/>
<path d="M-737.94 39.4735L-392.426 191.422C-261.75 248.886 -78.1772 293.046 134.736 318.235L697.942 384.887" stroke="white" stroke-width="7" stroke-miterlimit="10" stroke-linecap="round"/>
<path d="M-713.393 29.8386L-367.879 181.787C-237.202 239.251 -53.6298 283.411 159.284 308.6L722.514 375.241" stroke="white" stroke-width="7" stroke-miterlimit="10" stroke-linecap="round"/>
<path d="M-688.844 20.2043L-343.331 172.153C-212.653 229.617 -29.0803 273.777 183.832 298.966L747.063 365.607" stroke="white" stroke-width="7" stroke-miterlimit="10" stroke-linecap="round"/>
<path d="M-664.297 10.5699L-318.784 162.518C-188.106 219.983 -4.53322 264.142 208.379 289.331L771.609 355.972" stroke="white" stroke-width="7" stroke-miterlimit="10" stroke-linecap="round"/>
<path d="M-639.749 0.935609L-294.234 152.884C-163.558 210.348 20.0148 254.508 232.928 279.697L796.158 346.338" stroke="white" stroke-width="7" stroke-miterlimit="10" stroke-linecap="round"/>
<path d="M-615.201 -8.69801L-269.688 143.249C-139.01 200.714 44.5623 244.873 257.476 270.062L820.705 336.703" stroke="white" stroke-width="7" stroke-miterlimit="10" stroke-linecap="round"/>
<path d="M-592.016 -17.7967L-246.502 134.15C-115.825 191.615 67.7471 235.774 280.66 260.963L843.899 327.604" stroke="white" stroke-width="7" stroke-miterlimit="10" stroke-linecap="round"/>
<path d="M-567.469 -27.4323L-221.955 124.515C-91.2784 181.98 92.2941 226.14 305.207 251.329L868.446 317.97" stroke="white" stroke-width="7" stroke-miterlimit="10" stroke-linecap="round"/>
<path d="M-542.92 -37.0677L-197.406 114.881C-66.7286 172.345 116.844 216.505 329.756 241.694L892.994 308.335" stroke="white" stroke-width="7" stroke-miterlimit="10" stroke-linecap="round"/>
<path d="M-518.373 -46.7033L-172.859 105.246C-42.1816 162.711 141.391 206.871 354.303 232.06L917.541 298.701" stroke="white" stroke-width="7" stroke-miterlimit="10" stroke-linecap="round"/>
<path d="M-495.188 -55.802L-149.675 96.1472C-18.9969 153.611 164.576 197.771 377.489 222.96L940.722 289.602" stroke="white" stroke-width="7" stroke-miterlimit="10" stroke-linecap="round"/>
<path d="M-470.64 -65.4335L-125.127 86.5129C5.55058 143.977 189.123 188.137 402.035 213.326L965.27 279.967" stroke="white" stroke-width="7" stroke-miterlimit="10" stroke-linecap="round"/>
<path d="M-446.093 -75.0691L-100.579 76.8782C30.0979 134.343 213.67 178.502 426.584 203.691L989.817 270.333" stroke="white" stroke-width="7" stroke-miterlimit="10" stroke-linecap="round"/>
<path d="M-421.544 -84.7048L-76.0297 67.2436C54.6468 124.708 238.219 168.868 451.133 194.057L1014.37 260.698" stroke="white" stroke-width="7" stroke-miterlimit="10" stroke-linecap="round"/>
<path d="M-398.36 -93.8034L-52.8461 58.1446C77.8304 115.609 261.403 159.769 474.316 184.957L1037.56 251.599" stroke="white" stroke-width="7" stroke-miterlimit="10" stroke-linecap="round"/>
<path d="M-373.812 -103.439L-28.2983 48.5098C102.378 105.974 285.951 150.134 498.864 175.323L1062.09 241.964" stroke="white" stroke-width="7" stroke-miterlimit="10" stroke-linecap="round"/>
<path d="M-349.264 -113.075L-3.75077 38.8754C126.927 96.3397 310.5 140.5 523.413 165.689L1086.65 232.33" stroke="white" stroke-width="7" stroke-miterlimit="10" stroke-linecap="round"/>
<path d="M-324.716 -122.706L20.7971 29.2412C151.475 86.7055 335.047 130.865 547.959 156.054L1111.2 222.695" stroke="white" stroke-width="7" stroke-miterlimit="10" stroke-linecap="round"/>
<path d="M-306.001 -131.155L39.5127 20.7934C170.19 78.2576 353.763 122.417 566.675 147.606L1129.91 214.247" stroke="white" stroke-width="7" stroke-miterlimit="10" stroke-linecap="round"/>
<path d="M-87.7979 -216.793L257.716 -64.8462C388.394 -7.3831 571.967 36.7773 784.878 61.9663L1348.12 128.607" stroke="white" stroke-width="7" stroke-miterlimit="10" stroke-linecap="round"/>
<path d="M-63.2485 -226.429L282.266 -74.4819C412.942 -17.0188 596.515 27.1428 809.425 52.3318L1372.67 118.973" stroke="white" stroke-width="7" stroke-miterlimit="10" stroke-linecap="round"/>
<path d="M-38.7007 -236.065L306.814 -84.1173C437.49 -26.6504 621.063 17.5086 833.973 42.6975L1397.22 109.339" stroke="white" stroke-width="7" stroke-miterlimit="10" stroke-linecap="round"/>
</g>
</g>
<defs>
<clipPath id="clip0_8186_85400">
<rect width="1120" height="389" fill="white" transform="matrix(1 0 0 -1 -455 389)"/>
</clipPath>
</defs>
</svg>
