<svg width="1em" height="1em" viewBox="0 0 1440 1125" fill="none" xmlns="http://www.w3.org/2000/svg" class="styles_background__V6g7A styles_desktop__6iFvd"><mask id="banner_svg__mask0_992_2577" maskUnits="userSpaceOnUse" x="753" y="-455" width="809" height="1319" style="mask-type: alpha;"><path d="M753.484 469.917L1232.6 -454.342L1561.8 863.46L753.484 469.917Z" fill="#FD9BFF"></path></mask><g mask="url(#banner_svg__mask0_992_2577)"><path d="M753.484 469.917L1232.6 -454.342L1561.8 863.46L753.484 469.917Z" fill="#76D8FF"></path><mask id="banner_svg__mask1_992_2577" maskUnits="userSpaceOnUse" x="305" y="-71" width="1276" height="962" style="mask-type: alpha;"><path d="M940.908 -70.3602L1580.87 890.767L305.679 432.602L940.908 -70.3602Z" fill="#D9D9D9"></path></mask><g mask="url(#banner_svg__mask1_992_2577)"><path d="M1464.15 1015.34L1428.31 1022.11L1014.29 487.524L1500 1008.59L1464.15 1015.36L1464.15 1015.34Z" fill="#FD9BFF"></path><path d="M935.85 935.604L890.171 916.544L1014.3 487.512L981.528 954.688L935.838 935.615L935.85 935.604Z" fill="#FD9BFF"></path><path d="M453.491 593.391L424.74 559.657L1014.31 487.514L482.254 627.137L453.503 593.403L453.491 593.391Z" fill="#FD9BFF"></path><path d="M299.649 189.152L304.665 160.512L1014.31 487.514L294.634 217.792L299.649 189.152Z" fill="#FD9BFF"></path><path d="M564.436 -40.3143L600.281 -47.0879L1014.3 487.501L528.593 -33.5642L564.437 -40.3378L564.436 -40.3143Z" fill="#FD9BFF"></path><path d="M1092.75 39.4091L1138.44 58.4816L1014.31 487.513L1047.09 20.3371L1092.78 39.4097L1092.75 39.4091Z" fill="#FD9BFF"></path><path d="M1575.11 381.625L1603.86 415.359L1014.29 487.502L1546.36 347.891L1575.11 381.625Z" fill="#FD9BFF"></path><path d="M1728.95 785.864L1727.83 810.901L1014.29 487.502L1733.97 757.224L1728.95 785.864Z" fill="#FD9BFF"></path><path d="M1645.64 933.653L1623.65 952.897L1014.29 487.501L1673.69 899.123L1645.64 933.653Z" fill="#FD9BFF"></path><path d="M1217.53 1016.01L1173.48 1009.47L1014.29 487.501L1261.6 1022.54L1217.52 1016L1217.53 1016.01Z" fill="#FD9BFF"></path><path d="M670.381 788.768L630.002 760.251L1014.3 487.503L710.714 817.285L670.37 788.756L670.381 788.768Z" fill="#FD9BFF"></path><path d="M324.67 385.034L311.692 351.277L1014.3 487.501L337.66 418.827L324.658 385.046L324.67 385.034Z" fill="#FD9BFF"></path><path d="M382.96 41.3613L404.904 22.0932L1014.31 487.514L360.969 60.6048L382.96 41.3613Z" fill="#FD9BFF"></path><path d="M811.067 -40.998L855.121 -34.4554L1014.31 487.512L767.001 -47.5292L811.078 -40.986L811.067 -40.998Z" fill="#FD9BFF"></path><path d="M1358.22 186.247L1392.01 207.956L1014.3 487.513L1309.87 144.414L1358.23 186.259L1358.22 186.247Z" fill="#FD9BFF"></path><path d="M1703.93 589.979L1716.91 623.737L1014.29 487.524L1690.92 556.186L1703.92 589.967L1703.93 589.979Z" fill="#FD9BFF"></path></g><mask id="banner_svg__mask2_992_2577" maskUnits="userSpaceOnUse" x="936" y="-335" width="655" height="1238" style="mask-type: alpha;"><path d="M936.134 -70.2242L1590.67 902.887L1265.83 -334.575L936.134 -70.2242Z" fill="#D9D9D9"></path></mask><g mask="url(#banner_svg__mask2_992_2577)"><path d="M1782.99 -249.793L1764.92 -290.266L1446 210.816L1801.07 -209.305L1783 -249.778L1782.99 -249.793Z" fill="#FD9BFF"></path><path d="M1484.35 -562.671L1456.34 -570.474L1446 210.816L1512.36 -554.869L1484.35 -562.671Z" fill="#FD9BFF"></path><path d="M1163.25 -422.459L1141.71 -393.022L1446 210.801L1184.78 -451.906L1163.23 -422.469L1163.25 -422.459Z" fill="#FD9BFF"></path><path d="M1007.77 88.7139L1008.03 166.548L1446 210.816L1042.63 82.3977L1040.89 107.19L1007.77 88.7139Z" fill="#FD9BFF"></path><path d="M1109 671.41L1124.17 708.19L1446 210.8L1090.93 630.937L1109 671.41Z" fill="#FD9BFF"></path><path d="M1407.64 984.289L1438 994.803L1445.99 210.801L1383.01 978.695L1407.64 984.289Z" fill="#FD9BFF"></path><path d="M1576.9 972.715L1603.73 961.151L1445.99 210.8L1550.06 984.279L1576.9 972.715Z" fill="#FD9BFF"></path><path d="M1865.97 30.0791L1857.61 -18.644L1445.99 210.802L1874.34 78.7593L1865.96 30.0636L1865.97 30.0791Z" fill="#FD9BFF"></path><path d="M1650.39 -455.763L1625.5 -482.01L1445.99 210.801L1675.3 -429.492L1650.4 -455.769L1650.39 -455.763Z" fill="#FD9BFF"></path><path d="M1315.09 -551.099L1288.26 -539.587L1446 210.816L1341.93 -562.663L1315.09 -551.099Z" fill="#FD9BFF"></path><path d="M1056.46 -200.147L1043.4 -157.567L1446 210.816L1069.54 -242.732L1056.47 -200.131L1056.46 -200.147Z" fill="#FD9BFF"></path><path d="M1026.03 391.538L1034.38 440.209L1446 210.816L1017.65 342.858L1026.03 391.554L1026.03 391.538Z" fill="#FD9BFF"></path><path d="M1241.61 877.379L1264.7 901.487L1446.02 210.809L1214.15 848.719L1241.6 877.364L1241.61 877.379Z" fill="#FD9BFF"></path></g></g><path d="M1410.98 637.655L1412.37 620.678L1441.37 658.991L1441.21 681.016L1410.98 637.655Z" fill="#FD9BFF"></path><path d="M1367.8 508.703L1356.53 554.103L1317.36 546.223L1367.8 508.703Z" fill="#FD9BFF"></path><path d="M1266.48 422.547L1284.43 402.117L1273.63 423.86L1266.48 422.547Z" fill="#FD9BFF"></path><path d="M1327.19 394.457L1290.04 453.811L1277.55 455.287L1327.19 394.457Z" fill="#FD9BFF"></path><path d="M1123.81 360.432L1180.32 292.721L1212.7 340.834L1205.77 345.696L1123.81 360.432Z" fill="#FD9BFF"></path><path d="M-74.7668 1119.75L760.559 467.469L-108.58 526.12L-74.7668 1119.75Z" fill="#76D8FF"></path><mask id="banner_svg__mask3_992_2577" maskUnits="userSpaceOnUse" x="-110" y="467" width="871" height="658" style="mask-type: alpha;"><path d="M-81.2142 1124.85L760.407 467.483L-110 526.422L-81.2142 1124.85Z" fill="#FD9BFF"></path></mask><g mask="url(#banner_svg__mask3_992_2577)"><path d="M337.925 513.795C338.384 513.181 339.154 512.886 339.906 513.033C356.83 516.34 373.763 519.672 390.688 522.927C392.212 523.22 392.838 525.063 391.816 526.23C380.706 538.919 369.587 552.988 358.458 568.499C358.059 569.055 357.403 569.371 356.719 569.333C339.692 568.382 322.675 567.424 305.65 566.5C304.13 566.417 303.257 564.736 304.065 563.447C315.368 545.444 326.651 528.875 337.925 513.795Z" fill="#00AAFF"></path><path d="M338.614 784.84C338.613 784.841 338.614 784.842 338.616 784.842C355.34 776.749 372.056 768.593 388.778 760.584C390.537 759.742 392.341 761.662 391.398 763.369C380.323 783.42 369.238 804.927 358.135 827.849C357.971 828.189 357.713 828.477 357.392 828.677C340.727 839.055 324.062 849.458 307.405 859.575C305.733 860.59 303.758 858.847 304.557 857.061C315.923 831.65 327.279 807.526 338.616 784.841C338.617 784.84 338.615 784.839 338.614 784.84Z" fill="#00AAFF"></path><path d="M338.695 458.858C338.694 458.858 338.693 458.861 338.695 458.861C356.119 464.627 373.542 470.442 390.975 476.13C392.397 476.594 392.828 478.398 391.775 479.461C380.719 490.631 369.644 503.148 358.56 517.096C358.096 517.68 357.346 517.96 356.614 517.819C339.526 514.544 322.429 511.27 305.34 508.086C303.924 507.822 303.243 506.191 304.055 505.001C315.612 488.07 327.159 472.684 338.696 458.861C338.697 458.86 338.696 458.858 338.695 458.858Z" fill="#00AAFF"></path><path d="M338.255 731.606C338.492 731.165 338.884 730.829 339.357 730.664C355.96 724.847 372.572 718.988 389.177 713.237C390.944 712.625 392.512 714.559 391.555 716.165C380.444 734.819 369.315 754.918 358.168 776.447C357.97 776.828 357.655 777.137 357.269 777.326C340.528 785.517 323.796 793.714 307.056 801.691C305.362 802.499 303.597 800.737 304.401 799.041C315.701 775.211 326.983 752.692 338.255 731.606Z" fill="#00AAFF"></path><path d="M116.372 479.321C133.907 480.544 151.453 482.246 168.989 484.333C170.372 484.498 171.164 485.991 170.529 487.23C158.953 509.832 147.366 533.532 135.76 557.998C135.421 558.712 134.692 559.161 133.901 559.141C116.845 558.717 99.7983 558.408 82.7429 558.255C81.2933 558.242 80.3369 556.741 80.9399 555.422C92.7623 529.579 104.564 504.062 116.356 479.331C116.359 479.325 116.365 479.321 116.372 479.321Z" fill="#00AAFF"></path><path d="M114.838 868.419C114.837 868.419 114.837 868.417 114.838 868.417C132.09 865.452 149.333 861.314 166.584 856.268C168.21 855.792 169.668 857.421 169.006 858.981C157.409 886.307 145.802 914.156 134.175 942.08C133.94 942.644 133.46 943.07 132.872 943.235C115.666 948.056 98.4602 951.499 81.2631 953.258C79.7486 953.413 78.6427 951.875 79.2557 950.481C91.1309 923.487 102.995 895.938 114.839 868.42C114.839 868.42 114.839 868.419 114.838 868.419Z" fill="#00AAFF"></path><path d="M338.665 566.729C355.902 567.763 373.129 568.797 390.364 569.813C391.982 569.908 392.823 571.788 391.822 573.063C380.686 587.258 369.531 602.864 358.367 619.907C358.027 620.425 357.467 620.759 356.849 620.808C339.894 622.149 322.939 623.499 305.984 624.814C304.381 624.939 303.296 623.216 304.103 621.825C315.632 601.97 327.15 583.585 338.648 566.738C338.652 566.732 338.658 566.729 338.665 566.729Z" fill="#00AAFF"></path><path d="M338.345 839.319C338.51 838.967 338.774 838.671 339.105 838.467C355.535 828.321 371.957 818.092 388.385 808.053C390.113 806.997 392.137 808.888 391.21 810.688C380.19 832.101 369.152 854.979 358.105 879.255C357.967 879.558 357.755 879.822 357.49 880.023C340.902 892.573 324.313 905.138 307.725 917.382C306.093 918.587 303.923 916.875 304.715 915.006C315.944 888.5 327.154 863.219 338.345 839.319Z" fill="#00AAFF"></path><path d="M338.653 620.649C338.653 620.65 338.654 620.652 338.656 620.651C355.769 619.37 372.882 618.069 389.987 616.793C391.681 616.667 392.753 618.579 391.769 619.964C380.618 635.655 369.457 652.765 358.286 671.32C358.001 671.794 357.531 672.131 356.99 672.247C340.108 675.864 323.225 679.488 306.343 683.012C304.681 683.359 303.373 681.606 304.181 680.112C315.686 658.839 327.172 638.995 338.649 620.648C338.65 620.646 338.653 620.647 338.653 620.649Z" fill="#00AAFF"></path><path d="M338.378 893.192C338.516 892.879 338.733 892.607 339.007 892.401C355.34 880.14 371.673 867.779 388.006 855.639C389.686 854.39 391.915 856.241 391.006 858.127C380.044 880.864 369.073 905.07 358.084 930.654C357.968 930.923 357.794 931.165 357.575 931.359C341.06 946.058 324.545 960.772 308.022 975.109C306.441 976.481 304.098 974.809 304.879 972.867C316.058 945.059 327.227 918.447 338.378 893.192Z" fill="#00AAFF"></path><path d="M338.187 676.99C338.47 676.499 338.948 676.152 339.502 676.034C356.193 672.467 372.885 668.865 389.576 665.335C391.322 664.965 392.643 666.897 391.673 668.395C380.534 685.589 369.386 704.232 358.219 724.304C357.981 724.73 357.596 725.056 357.136 725.219C340.329 731.156 323.513 737.1 306.704 742.879C305.012 743.46 303.471 741.695 304.277 740.097C315.594 717.678 326.9 696.613 338.187 676.99Z" fill="#00AAFF"></path><path d="M338.582 948.283C338.58 948.283 338.579 948.28 338.581 948.278C354.929 933.767 371.277 919.137 387.633 904.767C389.252 903.344 391.669 905.142 390.78 907.106C379.893 931.177 368.988 956.702 358.075 983.602C357.978 983.842 357.835 984.061 357.654 984.246C341.22 1001.12 324.778 1018.02 308.343 1034.49C306.822 1036.02 304.318 1034.39 305.086 1032.38C316.261 1003.13 327.428 975.032 338.585 948.287C338.586 948.285 338.584 948.283 338.582 948.283Z" fill="#00AAFF"></path><path d="M559.605 550.097C559.999 549.818 560.481 549.691 560.962 549.74C577.207 551.378 593.461 552.647 609.708 553.47C611.625 553.567 612.335 556.053 610.754 557.143C600.582 564.16 590.401 571.326 580.213 578.964C579.853 579.234 579.412 579.375 578.963 579.364C562.381 578.963 545.808 578.456 529.228 577.849C527.408 577.783 526.625 575.522 528.023 574.355C538.564 565.551 549.089 557.562 559.605 550.097Z" fill="#00AAFF"></path><path d="M561.634 692.784C561.632 692.784 561.632 692.782 561.633 692.782C578.062 688.646 594.481 685.426 610.908 683.337C612.871 683.088 613.93 685.545 612.429 686.835C602.16 695.659 591.882 705.265 581.588 715.911C581.334 716.173 581.013 716.362 580.66 716.456C564.513 720.756 548.367 726.295 532.228 732.798C530.328 733.564 528.617 731.332 529.882 729.72C540.478 716.216 551.065 703.967 561.634 692.786C561.635 692.785 561.635 692.784 561.634 692.784Z" fill="#00AAFF"></path><path d="M116.673 402.18C134.26 404.254 151.848 407.155 169.446 410.709C170.757 410.974 171.439 412.429 170.808 413.609C159.253 435.246 147.679 458.101 136.094 481.851C135.731 482.596 134.947 483.04 134.122 482.969C117.102 481.508 100.074 480.465 83.0534 479.942C81.6187 479.898 80.6908 478.405 81.2916 477.101C93.0984 451.486 104.904 426.372 116.679 402.19C116.681 402.185 116.678 402.18 116.673 402.18Z" fill="#00AAFF"></path><path d="M115.137 791.286C115.137 791.281 115.141 791.276 115.146 791.276C132.448 789.124 149.76 786.116 167.064 782.448C168.663 782.109 169.981 783.722 169.323 785.219C157.719 811.626 146.105 838.671 134.481 865.94C134.228 866.533 133.704 866.969 133.074 867.107C115.896 870.879 98.7268 873.576 81.5493 874.956C80.046 875.077 78.97 873.545 79.5814 872.166C91.4499 845.399 103.298 818.252 115.136 791.29C115.137 791.289 115.137 791.287 115.137 791.286Z" fill="#00AAFF"></path><path d="M559.075 434.273C559.078 434.273 559.082 434.274 559.085 434.275C575.617 440.718 592.157 445.706 608.691 448.899C610.541 449.256 610.966 451.745 609.316 452.655C599.252 458.208 589.179 463.41 579.09 468.627C578.652 468.853 578.146 468.91 577.669 468.785C560.882 464.393 544.103 458.685 527.317 451.956C525.711 451.312 525.644 449.079 527.208 448.34C537.841 443.323 548.456 438.751 559.064 434.276C559.067 434.274 559.071 434.273 559.075 434.273Z" fill="#00AAFF"></path><path d="M558.637 463.002C559.1 462.774 559.634 462.734 560.126 462.89C576.402 468.037 592.669 472.035 608.943 474.599C610.812 474.894 611.308 477.384 609.675 478.341C599.588 484.251 589.485 489.933 579.375 495.743C578.954 495.985 578.46 496.066 577.984 495.969C561.231 492.569 544.479 488.154 527.727 482.95C526.066 482.434 525.827 480.197 527.343 479.345C537.783 473.478 548.214 468.135 558.637 463.002Z" fill="#00AAFF"></path><path d="M559.649 491.871C559.649 491.873 559.651 491.875 559.653 491.875C576.17 495.925 592.687 499.074 609.205 501.084C611.093 501.314 611.66 503.805 610.044 504.807C599.927 511.086 589.802 517.262 579.668 523.685C579.267 523.94 578.787 524.043 578.316 523.976C561.613 521.594 544.909 518.504 528.197 514.856C526.48 514.481 526.063 512.238 527.534 511.275C538.251 504.265 548.951 497.911 559.643 491.867C559.646 491.865 559.649 491.868 559.649 491.871Z" fill="#00AAFF"></path><path d="M448.318 454.313C448.88 453.919 449.607 453.845 450.239 454.113C466.996 461.211 483.752 467.865 500.509 473.858C502.108 474.43 502.326 476.613 500.876 477.497C490.352 483.908 479.812 491.039 469.263 499.136C468.76 499.522 468.104 499.649 467.494 499.476C450.44 494.629 433.385 489.405 416.322 483.981C414.864 483.518 414.448 481.656 415.579 480.625C426.501 470.66 437.414 461.947 448.318 454.313Z" fill="#00AAFF"></path><path d="M668.84 452.27C669.145 452.018 669.517 451.861 669.91 451.818C685.599 450.117 701.296 446.406 716.987 440.374C718.936 439.625 720.676 441.964 719.33 443.56C709.307 455.439 699.27 465.736 689.225 474.96C688.943 475.219 688.592 475.391 688.214 475.455C671.977 478.202 655.749 479.105 639.514 478.43C637.596 478.35 636.931 475.876 638.523 474.803C648.637 467.994 658.743 460.632 668.84 452.27Z" fill="#00AAFF"></path><path d="M669.74 477.051C669.74 477.053 669.742 477.055 669.744 477.055C685.785 475.68 701.817 472.588 717.856 467.519C719.811 466.901 721.388 469.253 720.017 470.778C709.923 482 699.822 491.801 689.713 500.675C689.417 500.935 689.051 501.101 688.66 501.152C672.426 503.278 656.191 503.978 639.956 503.455C638.033 503.393 637.338 500.916 638.927 499.831C649.209 492.814 659.476 485.375 669.735 477.048C669.737 477.047 669.74 477.048 669.74 477.051Z" fill="#00AAFF"></path><path d="M670.271 502.829C670.455 502.538 670.768 502.353 671.111 502.329C687.1 501.25 702.801 499.321 718.723 495.524C720.679 495.057 722.088 497.427 720.692 498.874C710.537 509.4 700.367 518.666 690.19 527.182C689.88 527.442 689.498 527.6 689.096 527.637C672.861 529.136 656.626 529.631 640.384 529.259C638.455 529.215 637.73 526.735 639.316 525.637C649.562 518.546 659.799 511.18 670.029 503.098C670.124 503.023 670.206 502.932 670.271 502.829Z" fill="#00AAFF"></path><path d="M780.009 437.671C780.162 437.417 780.37 437.2 780.617 437.036C796.381 426.561 812.136 413.838 827.898 398.638C829.492 397.101 832.093 398.88 831.187 400.9C820.859 423.925 810.515 443.806 800.162 461.259C799.993 461.544 799.757 461.781 799.473 461.951C783.431 471.552 767.388 479.298 751.346 485.385C749.451 486.104 747.859 483.85 749.122 482.264C759.426 469.328 769.722 454.668 780.009 437.671Z" fill="#00AAFF"></path><path d="M780.541 472.736C780.731 472.451 780.991 472.219 781.296 472.063C797.31 463.848 813.324 453.864 829.338 441.899C831.033 440.632 833.322 442.5 832.378 444.394C821.881 465.454 811.375 483.532 800.86 499.342C800.643 499.668 800.336 499.922 799.975 500.073C783.814 506.869 767.653 512.339 751.485 516.631C749.576 517.138 748.195 514.848 749.497 513.362C759.858 501.539 770.204 488.201 780.541 472.736Z" fill="#00AAFF"></path><path d="M5.1699 480.221C5.47001 479.551 6.11338 479.099 6.84586 479.045C23.9049 477.795 40.9729 477.214 58.0326 477.216C59.4837 477.216 60.4455 478.716 59.8451 480.038C48.2027 505.654 36.5404 531.553 24.868 557.198C24.5473 557.903 23.8486 558.359 23.0744 558.37C6.07524 558.603 -10.9149 559.025 -27.9134 559.651C-29.4125 559.706 -30.4393 558.154 -29.8012 556.796C-18.1342 531.974 -6.47713 506.237 5.1699 480.221Z" fill="#00AAFF"></path><path d="M3.37847 868.875C3.37738 868.875 3.37724 868.877 3.37831 868.877C20.9469 872.157 38.5057 873.657 56.0732 873.657C57.5367 873.657 58.5199 875.168 57.9131 876.5C46.2394 902.125 34.5457 927.117 22.8321 950.845C22.4481 951.623 21.6062 952.064 20.7488 951.932C3.29515 949.236 -14.1582 944.417 -31.6023 937.139C-32.7248 936.67 -33.1598 935.312 -32.5316 934.27C-20.5442 914.394 -8.57726 892.338 3.37926 868.876C3.37957 868.876 3.37914 868.875 3.37847 868.875Z" fill="#00AAFF"></path><path d="M115.51 557.633C115.845 556.915 116.572 556.463 117.364 556.48C134.42 556.846 151.466 557.361 168.522 557.983C169.97 558.036 170.883 559.564 170.243 560.865C158.658 584.426 147.054 608.972 135.44 634.143C135.124 634.828 134.449 635.278 133.695 635.304C116.611 635.91 99.5269 636.346 82.4429 636.566C80.9793 636.585 79.9942 635.076 80.599 633.743C92.246 608.073 103.883 582.551 115.51 557.633Z" fill="#00AAFF"></path><path d="M114.515 945.55C114.516 945.55 114.517 945.55 114.518 945.549C131.711 941.768 148.896 936.522 166.088 930.108C167.732 929.495 169.331 931.134 168.665 932.757C157.078 960.977 145.471 989.619 133.844 1018.21C133.627 1018.74 133.188 1019.16 132.641 1019.34C115.407 1025.21 98.1736 1029.41 80.94 1031.55C79.4149 1031.74 78.2791 1030.19 78.894 1028.78C90.7838 1001.56 102.653 973.619 114.501 945.559C114.504 945.553 114.509 945.55 114.515 945.55Z" fill="#00AAFF"></path><path d="M115.241 634.717C115.559 634.022 116.243 633.57 117.006 633.549C134.021 633.082 151.036 632.447 168.042 631.671C169.55 631.602 170.59 633.164 169.944 634.528C158.346 659.028 146.739 684.41 135.121 710.277C134.827 710.931 134.204 711.379 133.49 711.448C116.378 713.096 99.266 714.269 82.154 714.864C80.6768 714.915 79.6626 713.398 80.2696 712.05C91.9434 686.132 103.597 660.192 115.241 634.717Z" fill="#00AAFF"></path><path d="M114.217 1022.69C114.217 1022.69 114.218 1022.69 114.219 1022.69C131.353 1018.11 148.488 1011.76 165.622 1004C167.272 1003.26 169.01 1004.9 168.341 1006.58C156.758 1035.7 145.165 1065.11 133.552 1094.34C133.35 1094.85 132.949 1095.25 132.442 1095.45C115.181 1102.37 97.9205 1107.32 80.651 1109.84C79.1164 1110.07 77.9504 1108.52 78.567 1107.1C90.4632 1079.64 102.349 1051.3 114.214 1022.69C114.214 1022.69 114.217 1022.69 114.217 1022.69Z" fill="#00AAFF"></path><path d="M115.431 713.065C115.436 713.06 115.442 713.058 115.449 713.057C132.814 711.737 150.178 709.892 167.543 707.641C169.103 707.438 170.28 709.028 169.629 710.46C158.03 735.929 146.412 762.148 134.784 788.732C134.511 789.356 133.94 789.798 133.267 789.905C116.127 792.618 98.9774 794.563 81.8363 795.555C80.3455 795.641 79.3002 794.116 79.9091 792.753C91.7617 766.214 103.604 739.479 115.425 713.074C115.426 713.071 115.428 713.068 115.431 713.065Z" fill="#00AAFF"></path><path d="M113.91 1102.16C113.908 1102.16 113.91 1102.17 113.911 1102.16C130.987 1096.77 148.062 1089.29 165.146 1080.17C166.793 1079.29 168.669 1080.93 167.998 1082.67C156.43 1112.7 144.844 1142.9 133.247 1172.78C133.061 1173.26 132.695 1173.65 132.228 1173.87C114.943 1181.87 97.6492 1187.59 80.3637 1190.51C78.8196 1190.78 77.6221 1189.22 78.2411 1187.78C90.1521 1160.1 102.043 1131.34 113.912 1102.16C113.913 1102.16 113.911 1102.16 113.91 1102.16Z" fill="#00AAFF"></path><path d="M449.5 533.842C449.5 533.838 449.504 533.835 449.509 533.835C466.47 536.812 483.44 539.61 500.403 542.128C502.134 542.385 502.734 544.59 501.378 545.697C490.737 554.385 480.079 563.971 469.413 574.663C469.014 575.064 468.464 575.278 467.899 575.251C451.009 574.448 434.128 573.572 417.239 572.674C415.592 572.586 414.756 570.657 415.825 569.401C427.059 556.213 438.284 544.412 449.498 533.847C449.5 533.846 449.5 533.844 449.5 533.842Z" fill="#00AAFF"></path><path d="M449.852 732.829C450.065 732.497 450.372 732.237 450.734 732.08C467.028 725.002 483.314 718.334 499.607 712.294C501.48 711.599 503.091 713.79 501.89 715.387C491.238 729.564 480.569 745.017 469.882 761.867C469.696 762.161 469.437 762.401 469.129 762.564C452.745 771.267 436.36 780.62 419.983 790.343C418.231 791.382 416.226 789.452 417.211 787.669C428.109 767.949 438.989 749.682 449.852 732.829Z" fill="#00AAFF"></path><path d="M559.794 520.83C559.792 520.828 559.794 520.824 559.798 520.824C576.591 523.714 593.384 525.952 610.185 527.392C612.088 527.555 612.727 530.042 611.131 531.089C600.798 537.87 590.451 544.674 580.096 551.844C579.715 552.108 579.254 552.232 578.792 552.194C561.865 550.799 544.929 549.002 528 546.876C526.227 546.654 525.626 544.401 527.057 543.333C537.978 535.177 548.891 527.785 559.794 520.836C559.796 520.835 559.796 520.832 559.794 520.83Z" fill="#00AAFF"></path><path d="M561.348 664.412C561.349 664.412 561.35 664.411 561.352 664.411C577.791 661.414 594.24 659.087 610.681 657.582C612.639 657.403 613.629 659.867 612.114 661.119C601.862 669.588 591.594 678.712 581.31 688.763C581.036 689.031 580.691 689.215 580.317 689.293C564.072 692.69 547.836 697.073 531.594 702.221C529.685 702.826 528.154 700.576 529.443 699.044C540.09 686.39 550.719 674.924 561.332 664.418C561.336 664.414 561.342 664.412 561.348 664.412Z" fill="#00AAFF"></path><path d="M226.511 493.712C226.922 492.987 227.74 492.595 228.564 492.727C245.615 495.465 262.674 498.438 279.726 501.566C281.126 501.823 281.816 503.419 281.049 504.617C269.643 522.431 258.219 541.716 246.785 562.327C246.415 562.994 245.698 563.394 244.937 563.357C227.87 562.531 210.812 561.771 193.746 561.096C192.29 561.038 191.382 559.494 192.041 558.195C203.541 535.515 215.031 513.949 226.511 493.712Z" fill="#00AAFF"></path><path d="M226.404 835.48C226.402 835.48 226.401 835.477 226.403 835.477C243.387 828.758 260.361 821.439 277.343 813.746C279.031 812.981 280.771 814.724 280.002 816.41C268.616 841.366 257.211 867.55 245.787 894.719C245.61 895.139 245.295 895.488 244.893 895.704C227.962 904.83 211.031 913.301 194.109 920.81C192.468 921.538 190.791 919.894 191.474 918.234C203.134 889.914 214.775 862.213 226.405 835.482C226.406 835.481 226.405 835.48 226.404 835.48Z" fill="#00AAFF"></path><path d="M560.481 578.048C560.488 578.041 560.498 578.037 560.508 578.038C576.992 578.552 593.466 578.951 609.948 579.205C611.879 579.235 612.659 581.718 611.095 582.85C600.901 590.225 590.693 597.875 580.477 606.111C580.139 606.384 579.721 606.54 579.286 606.555C562.783 607.113 546.28 607.838 529.777 608.698C527.917 608.795 526.949 606.528 528.317 605.265C539.051 595.356 549.775 586.372 560.481 578.048Z" fill="#00AAFF"></path><path d="M561.552 721.554C561.79 721.286 562.095 721.087 562.437 720.978C578.675 715.786 594.905 711.744 611.141 709.101C613.107 708.781 614.234 711.229 612.748 712.556C602.468 721.737 592.174 731.83 581.871 743.061C581.635 743.317 581.338 743.508 581.007 743.615C564.96 748.804 548.912 755.468 532.865 763.304C530.983 764.223 529.1 762.014 530.341 760.326C540.761 746.16 551.165 733.292 561.552 721.554Z" fill="#00AAFF"></path><path d="M560.257 606.856C560.598 606.567 561.025 606.401 561.472 606.384C577.716 605.755 593.96 605.263 610.196 604.946C612.137 604.908 612.987 607.385 611.439 608.558C601.227 616.292 590.999 624.427 580.755 633.263C580.439 633.536 580.044 633.704 579.628 633.742C563.207 635.247 546.786 637.194 530.366 639.484C528.478 639.747 527.325 637.479 528.665 636.124C539.209 625.466 549.738 615.791 560.257 606.856Z" fill="#00AAFF"></path><path d="M562.187 749.514C562.19 749.516 562.193 749.517 562.197 749.516C578.588 743.116 594.98 738.129 611.371 734.881C613.338 734.491 614.532 736.928 613.06 738.291C602.765 747.826 592.461 758.4 582.141 770.223C581.924 770.472 581.649 770.664 581.34 770.781C565.388 776.847 549.436 784.625 533.477 793.757C531.622 794.818 529.578 792.639 530.795 790.882C541.267 775.754 551.725 762.012 562.174 749.514C562.177 749.51 562.183 749.51 562.187 749.514Z" fill="#00AAFF"></path><path d="M560.588 636.081C560.901 635.793 561.297 635.612 561.72 635.566C577.959 633.769 594.198 632.373 610.437 631.466C612.388 631.358 613.309 633.831 611.777 635.044C601.543 643.147 591.3 651.784 581.041 661.227C580.746 661.499 580.377 661.676 579.981 661.736C563.651 664.204 547.314 667.39 530.983 671.136C529.079 671.573 527.733 669.311 529.047 667.864C539.572 656.276 550.089 645.764 560.588 636.081Z" fill="#00AAFF"></path><path d="M562.487 778.753C562.484 778.75 562.485 778.744 562.489 778.742C578.862 771.189 595.234 765.291 611.614 761.444C613.579 760.982 614.84 763.406 613.384 764.805C603.081 774.705 592.763 785.777 582.437 798.209C582.237 798.45 581.984 798.641 581.697 798.767C565.852 805.718 549.998 814.619 534.15 825.063C532.331 826.262 530.127 824.119 531.319 822.295C541.716 806.37 552.106 791.906 562.488 778.762C562.49 778.759 562.49 778.756 562.487 778.753Z" fill="#00AAFF"></path><path d="M671.038 554.275C687.484 553.821 703.938 552.803 720.386 551.122C722.313 550.924 723.38 553.297 721.93 554.581C711.681 563.658 701.416 571.827 691.144 579.579C690.806 579.834 690.396 579.974 689.972 579.981C673.735 580.23 657.506 580.317 641.271 580.256C639.33 580.249 638.543 577.762 640.125 576.637C650.434 569.31 660.735 561.997 671.018 554.282C671.024 554.278 671.031 554.275 671.038 554.275Z" fill="#00AAFF"></path><path d="M673.202 681.282C673.199 681.279 673.201 681.275 673.205 681.275C690.171 682.43 707.127 685.079 724.091 689.466C725.855 689.922 726.099 692.297 724.476 693.126C714.178 698.386 703.865 703.672 693.544 709.382C693.143 709.603 692.678 709.681 692.226 709.603C675.986 706.802 659.747 705.868 643.514 706.531C641.545 706.611 640.605 704.102 642.176 702.914C652.534 695.081 662.876 687.984 673.201 681.288C673.203 681.287 673.204 681.284 673.202 681.282Z" fill="#00AAFF"></path><path d="M6.10085 401.877C6.10085 401.872 6.10468 401.868 6.10977 401.867C23.5432 399.644 40.9767 398.619 58.4195 398.624C59.8681 398.624 60.8256 400.123 60.2263 401.442C48.5871 427.058 36.9375 453.137 25.268 479.164C24.9591 479.853 24.2885 480.309 23.5343 480.345C6.63652 481.146 -10.2524 482.552 -27.1494 484.682C-28.7051 484.878 -29.8812 483.295 -29.2373 481.866C-17.4443 455.681 -5.66191 428.807 6.1 401.881C6.10056 401.88 6.10085 401.879 6.10085 401.877Z" fill="#00AAFF"></path><path d="M3.82379 791.61C21.3656 793.98 38.9173 795.063 56.4603 795.065C57.9212 795.065 58.9 796.575 58.2944 797.904C46.6223 823.53 34.9305 848.704 23.2286 872.81C22.8577 873.574 22.0445 874.02 21.2013 873.918C3.82404 871.817 -13.544 868.054 -30.9209 862.377C-32.1204 861.985 -32.6497 860.589 -32.0238 859.493C-20.0659 838.559 -8.11868 815.677 3.80772 791.62C3.81075 791.614 3.81697 791.61 3.82379 791.61Z" fill="#00AAFF"></path><path d="M781.564 542.085C781.853 541.743 782.248 541.505 782.685 541.412C799.208 537.905 815.739 533.608 832.263 528.448C834.043 527.892 835.56 529.848 834.554 531.418C823.809 548.187 813.054 562.367 802.291 574.688C801.945 575.084 801.456 575.326 800.931 575.362C784.55 576.514 768.178 577.441 751.799 578.165C749.922 578.248 748.974 575.92 750.359 574.65C760.774 565.091 771.173 554.432 781.564 542.085Z" fill="#00AAFF"></path><path d="M784.906 713.044C784.905 713.043 784.907 713.04 784.909 713.041C802.671 722.337 820.424 733.856 838.185 747.861C839.358 748.786 839.125 750.62 837.751 751.208C827.09 755.773 816.419 759.127 805.73 761.891C805.126 762.047 804.484 761.909 803.993 761.524C787.057 748.213 770.12 737.603 753.193 729.384C751.594 728.608 751.686 726.275 753.35 725.651C763.881 721.699 774.402 717.667 784.906 713.047C784.907 713.047 784.907 713.045 784.906 713.044Z" fill="#00AAFF"></path><path d="M4.68161 557.535C5.0008 556.839 5.68908 556.386 6.45431 556.369C23.5213 555.99 40.5793 555.808 57.6457 555.807C59.0996 555.807 60.0659 557.31 59.4639 558.633C47.8092 584.251 36.1445 609.978 24.4698 635.232C24.1371 635.952 23.4106 636.407 22.6178 636.392C5.52026 636.061 -11.5773 635.464 -28.6748 634.567C-30.108 634.492 -30.9951 632.975 -30.3617 631.687C-18.6641 607.905 -6.98616 582.965 4.68161 557.535Z" fill="#00AAFF"></path><path d="M2.20351 947.517C2.6289 946.707 3.54928 946.288 4.44063 946.493C21.5257 950.43 38.6019 952.249 55.6863 952.247C57.1526 952.247 58.1402 953.761 57.5318 955.096C45.8469 980.718 34.1517 1005.53 22.4368 1028.88C22.0399 1029.67 21.1699 1030.11 20.2998 1029.94C2.77622 1026.66 -14.7473 1020.77 -32.2709 1011.87C-33.3209 1011.34 -33.6721 1010.02 -33.0385 1009.02C-21.2777 990.603 -9.52719 969.848 2.20351 947.517Z" fill="#00AAFF"></path><path d="M4.74529 633.66C4.74529 633.661 4.74616 633.662 4.74727 633.662C22.2494 634.165 39.7516 634.401 57.2445 634.398C58.7009 634.398 59.6716 635.903 59.0684 637.228C47.4108 662.846 35.7335 688.392 24.046 713.266C23.7008 714.001 22.9457 714.454 22.1351 714.411C4.94279 713.5 -12.2495 711.88 -29.4418 709.429C-30.801 709.235 -31.558 707.757 -30.9291 706.537C-19.0286 683.444 -7.13843 658.908 4.74139 633.659C4.74232 633.657 4.74529 633.657 4.74529 633.66Z" fill="#00AAFF"></path><path d="M2.46607 1023.39C2.46749 1023.39 2.46889 1023.39 2.47026 1023.39C20.0796 1028.49 37.6889 1030.83 55.2982 1030.84C56.7664 1030.84 57.7575 1032.35 57.1482 1033.69C45.4611 1059.31 33.754 1083.94 22.0271 1106.92C21.6167 1107.72 20.7184 1108.15 19.8369 1107.95C2.24989 1104.07 -15.3374 1097.12 -32.9342 1086.59C-33.917 1086.01 -34.1927 1084.71 -33.5497 1083.76C-21.5281 1066.05 -9.52721 1045.65 2.45282 1023.4C2.45544 1023.4 2.46054 1023.39 2.46607 1023.39Z" fill="#00AAFF"></path><path d="M3.68216 714.495C4.04234 713.75 4.82386 713.303 5.64846 713.369C22.7144 714.739 39.7804 715.37 56.8464 715.365C58.3055 715.365 59.2806 716.873 58.676 718.201C47.0067 743.827 35.3274 769.181 23.6381 793.665C23.2801 794.415 22.4956 794.865 21.6678 794.792C4.38458 793.283 -12.9077 790.588 -30.1913 786.528C-31.4709 786.227 -32.1074 784.79 -31.481 783.635C-19.7434 761.983 -8.02552 738.701 3.68216 714.495Z" fill="#00AAFF"></path><path d="M2.00552 1103C2.00458 1103 2.00495 1103 2.00621 1103C19.6337 1109.04 37.2613 1111.81 54.8981 1111.81C56.3696 1111.81 57.3661 1113.33 56.7549 1114.66C45.0576 1140.28 33.3499 1164.73 21.6227 1187.32C21.1986 1188.13 20.2716 1188.56 19.3798 1188.33C1.73432 1183.83 -15.9205 1175.76 -33.566 1163.56C-34.4857 1162.92 -34.6917 1161.65 -34.0356 1160.75C-22.0068 1144.14 -9.98885 1124.61 2.00834 1103C2.00935 1103 2.00698 1103 2.00552 1103Z" fill="#00AAFF"></path><path d="M448.42 494.579C448.932 494.155 449.621 494.017 450.258 494.206C467.2 499.24 484.143 503.956 501.093 508.214C502.761 508.633 503.17 510.827 501.771 511.826C491.017 519.504 480.255 528.013 469.484 537.576C469.033 537.977 468.424 538.155 467.829 538.057C450.602 535.235 433.385 532.206 416.16 529.047C414.603 528.762 413.983 526.866 415.077 525.722C426.206 514.083 437.318 503.752 448.42 494.579Z" fill="#00AAFF"></path><path d="M450.045 692.969C450.045 692.971 450.046 692.972 450.048 692.971C466.626 687.749 483.212 682.837 499.792 678.399C501.67 677.896 503.083 680.108 501.855 681.616C491.174 694.736 480.484 709.066 469.777 724.742C469.558 725.062 469.251 725.313 468.893 725.462C452.4 732.342 435.916 739.734 419.425 747.422C417.646 748.251 415.86 746.293 416.862 744.604C427.934 725.942 438.996 708.755 450.04 692.968C450.042 692.966 450.045 692.967 450.045 692.969Z" fill="#00AAFF"></path><path d="M448.999 573.859C449.402 573.429 449.974 573.201 450.562 573.233C467.142 574.125 483.713 574.956 500.292 575.707C502.081 575.788 502.877 578.005 501.558 579.216C490.88 589.019 480.193 599.801 469.498 611.745C469.149 612.134 468.661 612.373 468.14 612.409C451.346 613.548 434.552 614.77 417.759 616.048C416.04 616.179 414.974 614.221 416.024 612.854C427.031 598.535 438.02 585.573 448.999 573.859Z" fill="#00AAFF"></path><path d="M450.038 772.129C450.218 771.828 450.474 771.58 450.781 771.41C466.993 762.416 483.196 753.945 499.405 746.268C501.258 745.39 503.057 747.551 501.883 749.233C491.266 764.445 480.639 780.997 469.995 798.99C469.836 799.258 469.618 799.486 469.356 799.654C453.073 810.164 436.791 821.44 420.508 833.158C418.802 834.386 416.597 832.496 417.563 830.629C428.4 809.669 439.227 790.18 450.038 772.129Z" fill="#00AAFF"></path><path d="M449.767 612.528C449.767 612.53 449.769 612.531 449.77 612.531C466.563 611.394 483.355 610.33 500.14 609.364C501.974 609.258 502.972 611.481 501.686 612.793C490.995 623.704 480.294 635.67 469.575 648.86C469.274 649.231 468.85 649.483 468.38 649.569C451.685 652.623 434.99 655.909 418.296 659.322C416.529 659.683 415.226 657.71 416.26 656.234C427.441 640.268 438.611 625.736 449.762 612.527C449.764 612.524 449.767 612.526 449.767 612.528Z" fill="#00AAFF"></path><path d="M450.215 811.422C450.368 811.149 450.582 810.916 450.841 810.742C466.966 799.858 483.09 789.616 499.214 780.316C501.034 779.266 503.012 781.388 501.865 783.149C491.299 799.373 480.717 816.994 470.127 836.1C469.991 836.343 469.807 836.557 469.585 836.725C453.405 849.002 437.225 862.176 421.038 875.865C419.389 877.26 417.003 875.42 417.947 873.477C428.714 851.318 439.478 830.635 450.215 811.422Z" fill="#00AAFF"></path><path d="M449.451 653.674C449.748 653.284 450.179 653.018 450.66 652.925C467.101 649.763 483.541 646.794 499.982 644.11C501.847 643.806 503.054 646.027 501.798 647.439C491.107 659.473 480.398 672.639 469.672 687.106C469.415 687.452 469.052 687.708 468.639 687.832C452.052 692.829 435.456 698.204 418.867 703.792C417.08 704.394 415.53 702.419 416.548 700.832C427.53 683.724 438.495 668.04 449.451 653.674Z" fill="#00AAFF"></path><path d="M450.586 851.556C450.584 851.556 450.583 851.553 450.585 851.552C466.726 838.664 482.866 826.515 499.014 815.489C500.789 814.278 502.935 816.352 501.816 818.187C491.306 835.426 480.786 854.118 470.25 874.34C470.135 874.56 469.98 874.758 469.793 874.922C453.727 888.987 437.653 904.073 421.585 919.744C420 921.291 417.446 919.506 418.368 917.492C429.12 894.01 439.863 872.024 450.589 851.56C450.589 851.558 450.588 851.556 450.586 851.556Z" fill="#00AAFF"></path><path d="M227.362 424.529C227.362 424.524 227.366 424.521 227.371 424.522C244.96 429.284 262.549 434.49 280.147 439.958C281.441 440.36 281.968 441.905 281.194 443.017C269.817 459.355 258.43 477.202 247.024 496.438C246.603 497.148 245.788 497.529 244.974 497.394C227.887 494.571 210.792 491.949 193.705 489.635C192.324 489.448 191.551 487.944 192.205 486.715C203.94 464.652 215.656 443.845 227.361 424.532C227.362 424.531 227.362 424.53 227.362 424.529Z" fill="#00AAFF"></path><path d="M226.168 768.331C226.41 767.799 226.874 767.4 227.436 767.238C244.226 762.417 261.024 757.171 277.815 751.667C279.496 751.116 281.018 752.856 280.248 754.449C268.834 778.042 257.41 802.913 245.967 828.845C245.761 829.311 245.385 829.681 244.916 829.88C227.953 837.051 210.998 843.712 194.036 849.61C192.402 850.178 190.88 848.537 191.56 846.947C203.109 819.931 214.648 793.62 226.168 768.331Z" fill="#00AAFF"></path><path d="M226.444 561.61C226.808 560.929 227.532 560.52 228.303 560.558C245.301 561.388 262.29 562.301 279.287 563.254C280.788 563.339 281.663 564.986 280.897 566.278C269.467 585.552 258.027 606.258 246.578 628.222C246.256 628.839 245.635 629.246 244.94 629.294C227.901 630.465 210.862 631.55 193.822 632.506C192.301 632.591 191.249 631.012 191.914 629.641C203.44 605.874 214.947 583.106 226.444 561.61Z" fill="#00AAFF"></path><path d="M226.23 903.477C226.23 903.472 226.233 903.468 226.237 903.465C243.116 894.945 259.986 885.66 276.863 875.923C278.537 874.958 280.482 876.688 279.716 878.462C268.359 904.753 256.992 932.22 245.605 960.597C245.453 960.977 245.187 961.301 244.845 961.526C227.946 972.594 211.046 982.867 194.147 991.98C192.513 992.861 190.687 991.224 191.371 989.499C203.004 960.183 214.626 931.385 226.229 903.483C226.23 903.481 226.23 903.479 226.23 903.477Z" fill="#00AAFF"></path><path d="M226.875 628.496C244.187 627.427 261.499 626.272 278.802 625.047C280.387 624.935 281.466 626.625 280.698 628.016C269.264 648.731 257.811 670.835 246.348 694.127C246.07 694.693 245.539 695.096 244.918 695.211C227.905 698.359 210.893 701.29 193.881 703.875C192.308 704.114 191.104 702.506 191.774 701.062C203.483 675.843 215.181 651.553 226.859 628.506C226.862 628.499 226.868 628.496 226.875 628.496Z" fill="#00AAFF"></path><path d="M225.83 972.085C225.989 971.684 226.273 971.346 226.641 971.12C243.233 960.918 259.824 949.824 276.416 938.19C278.057 937.039 280.198 938.745 279.438 940.599C268.124 968.203 256.792 996.913 245.451 1026.47C245.319 1026.81 245.095 1027.11 244.804 1027.33C227.938 1040.32 211.072 1052.4 194.197 1063.1C192.581 1064.12 190.613 1062.5 191.298 1060.71C202.828 1030.63 214.339 1000.96 225.83 972.085Z" fill="#00AAFF"></path><path d="M226.274 699.465C226.553 698.883 227.096 698.473 227.732 698.361C244.591 695.404 261.451 692.184 278.311 688.799C279.958 688.469 281.258 690.192 280.489 691.686C269.055 713.867 257.611 737.375 246.158 762.017C245.918 762.532 245.471 762.922 244.928 763.088C227.946 768.273 210.954 773.083 193.97 777.342C192.358 777.746 190.994 776.117 191.67 774.598C203.221 748.647 214.752 723.5 226.274 699.465Z" fill="#00AAFF"></path><path d="M225.915 1041.5C225.914 1041.5 225.915 1041.5 225.916 1041.5C242.593 1029.4 259.271 1016.23 275.957 1002.41C277.552 1001.09 279.876 1002.76 279.124 1004.69C267.854 1033.6 256.575 1063.57 245.276 1094.31C245.163 1094.62 244.974 1094.89 244.728 1095.11C227.901 1110.08 211.064 1123.97 194.235 1136.32C192.647 1137.48 190.54 1135.88 191.223 1134.03C202.801 1102.73 214.368 1071.76 225.916 1041.5C225.917 1041.5 225.915 1041.5 225.915 1041.5Z" fill="#00AAFF"></path><path d="M671.072 528.113C670.887 528.515 671.248 528.953 671.679 528.855C688.517 525.04 703.773 525.812 719.564 523.689C721.519 523.426 722.763 525.849 721.34 527.215C711.131 537.011 700.914 545.723 690.689 553.857C690.365 554.115 689.969 554.265 689.555 554.287C673.327 555.15 657.092 555.431 640.863 555.222C638.927 555.197 638.149 552.684 639.705 551.533C649.743 544.109 660.417 535.142 670.272 527.475C670.709 527.135 671.303 527.611 671.072 528.113Z" fill="#00AAFF"></path><path d="M672.223 656.457C672.58 656.218 673.004 656.101 673.432 656.123C690.09 656.967 706.757 658.866 723.417 661.973C725.22 662.309 725.623 664.684 724.04 665.609C713.728 671.638 703.408 677.508 693.07 683.639C692.681 683.87 692.224 683.962 691.775 683.901C675.532 681.704 659.297 680.975 643.055 681.493C641.092 681.556 640.183 679.053 641.756 677.877C651.923 670.277 662.081 663.246 672.223 656.457Z" fill="#00AAFF"></path><path d="M670.954 579.826C671.292 579.58 671.698 579.446 672.116 579.442C688.476 579.3 704.828 578.985 721.186 578.472C723.09 578.413 723.99 580.787 722.51 581.987C712.228 590.328 701.943 597.942 691.633 605.302C691.282 605.552 690.859 605.682 690.428 605.673C674.194 605.319 657.96 605.195 641.727 605.286C639.779 605.297 638.961 602.805 640.541 601.667C650.691 594.36 660.827 587.205 670.954 579.826Z" fill="#00AAFF"></path><path d="M673.628 706.456C673.628 706.452 673.631 706.449 673.635 706.449C690.671 707.921 707.696 711.324 724.73 716.961C726.455 717.532 726.54 719.911 724.876 720.638C714.597 725.13 704.308 729.832 694.004 735.117C693.593 735.327 693.122 735.39 692.67 735.296C676.427 731.899 660.184 730.762 643.941 731.561C641.967 731.658 640.996 729.145 642.565 727.944C652.93 720.01 663.286 712.954 673.625 706.461C673.627 706.46 673.628 706.458 673.628 706.456Z" fill="#00AAFF"></path><path d="M671.897 604.64C671.897 604.636 671.9 604.633 671.904 604.633C688.586 604.813 705.269 605.209 721.943 605.877C723.817 605.952 724.552 608.326 723.041 609.439C712.739 617.031 702.428 624.081 692.1 631.049C691.735 631.295 691.3 631.414 690.861 631.388C674.625 630.424 658.39 630.105 642.154 630.334C640.203 630.362 639.355 627.867 640.932 626.717C651.265 619.184 661.587 611.956 671.894 604.646C671.896 604.645 671.897 604.643 671.897 604.64Z" fill="#00AAFF"></path><path d="M673.473 731.973C673.847 731.744 674.285 731.646 674.721 731.693C691.592 733.531 708.464 737.662 725.335 744.464C727.022 745.144 726.949 747.527 725.241 748.149C714.998 751.877 704.74 755.995 694.473 760.852C694.053 761.051 693.577 761.098 693.125 760.987C676.879 756.987 660.632 755.644 644.378 756.578C642.399 756.691 641.398 754.175 642.965 752.962C653.142 745.079 663.311 738.181 673.473 731.973Z" fill="#00AAFF"></path><path d="M671.8 630.933C672.15 630.692 672.568 630.568 672.994 630.581C689.563 631.094 706.132 632.245 722.701 634.129C724.541 634.339 725.108 636.713 723.563 637.733C713.253 644.538 702.927 650.996 692.584 657.544C692.207 657.782 691.761 657.888 691.316 657.845C675.084 656.264 658.843 655.731 642.609 656.107C640.651 656.153 639.772 653.653 641.348 652.49C651.511 644.988 661.659 637.918 671.8 630.933Z" fill="#00AAFF"></path><path d="M673.911 757.907C674.29 757.682 674.733 757.591 675.171 757.647C692.087 759.821 709.003 764.733 725.928 772.802C727.578 773.589 727.342 775.981 725.587 776.489C715.388 779.439 705.179 782.954 694.956 787.379C694.527 787.565 694.047 787.596 693.597 787.468C677.351 782.857 661.097 781.306 644.849 782.372C642.865 782.502 641.832 779.98 643.397 778.754C653.581 770.777 663.75 763.92 673.911 757.907Z" fill="#00AAFF"></path><path d="M781.439 507.561C781.438 507.561 781.437 507.559 781.439 507.558C797.9 501.665 814.361 494.455 830.831 485.788C832.597 484.859 834.514 486.786 833.537 488.527C822.898 507.478 812.242 523.62 801.578 537.702C801.301 538.068 800.906 538.326 800.46 538.434C784.19 542.372 767.912 545.537 751.64 548.011C749.738 548.301 748.576 545.986 749.919 544.608C760.434 533.808 770.942 521.666 781.44 507.563C781.441 507.562 781.44 507.561 781.439 507.561Z" fill="#00AAFF"></path><path d="M784.315 679.041C784.318 679.041 784.321 679.042 784.323 679.043C801.988 685.737 819.662 694.017 837.327 704.082C838.608 704.812 838.671 706.628 837.438 707.435C826.682 714.478 815.908 720.01 805.117 724.687C804.518 724.947 803.829 724.894 803.273 724.551C786.445 714.182 769.626 705.896 752.799 699.472C751.14 698.839 751.031 696.508 752.63 695.737C763.205 690.635 773.762 685.253 784.302 679.044C784.306 679.042 784.31 679.041 784.315 679.041Z" fill="#00AAFF"></path><path d="M782.034 576.111C782.381 575.75 782.851 575.531 783.35 575.499C800.131 574.404 816.904 573.062 833.684 571.449C835.402 571.284 836.508 573.223 835.476 574.606C824.667 589.085 813.849 601.2 803.013 611.69C802.591 612.098 802.012 612.298 801.428 612.239C784.946 610.592 768.465 609.27 751.983 608.24C750.147 608.125 749.411 605.793 750.842 604.635C761.251 596.21 771.651 586.887 782.034 576.111Z" fill="#00AAFF"></path><path d="M785.474 747.026C785.474 747.028 785.475 747.03 785.477 747.031C803.277 758.923 821.067 773.651 838.866 791.563C839.97 792.675 839.411 794.558 837.876 794.87C827.354 797.007 816.815 798.224 806.268 799.092C805.697 799.139 805.134 798.937 804.72 798.541C787.687 782.272 770.654 769.301 753.621 759.275C752.078 758.366 752.374 756.028 754.103 755.565C764.566 752.761 775.021 750.071 785.467 747.021C785.471 747.02 785.474 747.023 785.474 747.026Z" fill="#00AAFF"></path><path d="M783.15 609.539C783.152 609.541 783.154 609.542 783.157 609.543C800.452 610.952 817.747 612.68 835.033 614.782C836.623 614.975 837.343 616.866 836.274 618.06C825.443 630.147 814.594 640.142 803.727 648.746C803.231 649.139 802.578 649.27 801.968 649.105C785.38 644.624 768.793 641.045 752.206 638.25C750.422 637.949 749.897 635.616 751.378 634.578C761.981 627.144 772.566 618.985 783.133 609.539C783.138 609.535 783.145 609.535 783.15 609.539Z" fill="#00AAFF"></path><path d="M786.042 781.031C786.042 781.028 786.046 781.026 786.048 781.028C803.829 795.466 821.61 813.351 839.391 835.099C840.456 836.401 839.523 838.341 837.841 838.305C827.489 838.087 817.129 837.239 806.761 836.286C806.254 836.24 805.783 836 805.445 835.62C788.334 816.371 771.223 801.05 754.103 789.212C752.611 788.18 753.112 785.837 754.903 785.55C765.295 783.882 775.671 782.528 786.039 781.035C786.041 781.035 786.042 781.033 786.042 781.031Z" fill="#00AAFF"></path><path d="M782.999 645.118C783.471 644.772 784.071 644.646 784.641 644.779C801.855 648.798 819.068 653.736 836.281 659.716C837.709 660.212 838.078 662.052 836.946 663.053C826.129 672.612 815.302 680.364 804.457 686.995C803.896 687.338 803.203 687.38 802.603 687.113C785.899 679.682 769.187 673.746 752.482 669.128C750.761 668.652 750.447 666.322 751.984 665.414C762.334 659.296 772.675 652.71 782.999 645.118Z" fill="#00AAFF"></path><path d="M786.635 816.047C786.633 816.049 786.633 816.052 786.635 816.054C804.349 833.062 822.062 854.114 839.785 879.682C840.825 881.182 839.469 883.153 837.699 882.712C827.557 880.186 817.4 877.31 807.236 874.55C806.813 874.436 806.438 874.183 806.17 873.836C789.002 851.531 771.824 833.778 754.655 820.063C753.211 818.909 753.929 816.566 755.775 816.475C766.069 815.969 776.354 815.964 786.632 816.039C786.636 816.039 786.638 816.044 786.635 816.047Z" fill="#00AAFF"></path></g></svg>
