<svg width="433" height="161" viewBox="0 0 433 161" fill="none" xmlns="http://www.w3.org/2000/svg">
<rect width="433" height="161" rx="50" fill="white"/>
<g clip-path="url(#clip0_55_99)">
<path d="M184.995 85.9332H193.633C194.229 89.7461 197.506 91.7719 201.259 91.7719C204.714 91.7719 207.277 90.1631 207.277 87.4823C207.277 85.2182 205.668 83.4907 201.617 82.3585L197.148 81.0479C190.476 79.1415 186.127 74.9711 186.067 68.5368C186.008 60.7322 191.786 56.0256 200.246 56.0256C209.362 56.0256 214.783 62.5791 215.081 68.8943H206.502C205.549 65.3196 202.749 64.009 200.246 64.009C197.208 64.009 194.825 65.4388 194.765 67.941C194.706 70.5624 196.612 71.9923 200.068 73.0051L205.012 74.3753C211.864 76.2818 215.975 80.631 215.975 87.1844C215.975 94.3933 210.136 99.7551 201.259 99.7551C191.131 99.7551 185.352 92.9038 184.995 85.9332Z" fill="black"/>
<path d="M249.801 84.1461C249.801 92.8442 242.771 99.6956 234.132 99.6956C225.493 99.6956 218.463 92.8442 218.463 84.1461C218.463 75.4478 225.493 68.5964 234.132 68.5964C242.771 68.5964 249.801 75.4478 249.801 84.1461ZM226.685 84.1461C226.685 88.7333 229.842 92.0697 234.132 92.0697C238.422 92.0697 241.52 88.7333 241.52 84.1461C241.52 79.5586 238.422 76.2223 234.132 76.2223C229.842 76.2223 226.685 79.5586 226.685 84.1461Z" fill="black"/>
<path d="M282.913 87.6611C281.305 94.5124 275.883 99.6956 267.662 99.6956C258.606 99.6956 251.993 92.7846 251.993 84.1461C251.993 75.5074 258.606 68.5964 267.662 68.5964C275.883 68.5964 281.305 73.7796 282.913 80.6311H274.454C273.322 77.95 271.117 75.984 267.662 75.984C263.372 75.984 260.215 79.2011 260.215 84.1461C260.215 89.0909 263.372 92.308 267.662 92.308C271.117 92.308 273.322 90.3421 274.454 87.6611H282.913Z" fill="black"/>
<path d="M295.965 59.1832C295.965 62.0429 293.642 64.3664 290.723 64.3664C287.923 64.3664 285.539 62.0429 285.539 59.1832C285.539 56.3235 287.923 54 290.723 54C293.642 54 295.965 56.3235 295.965 59.1832ZM286.671 99.0402V69.2517H294.834V99.0402H286.671Z" fill="black"/>
<path d="M329.838 89.3292C328.051 95.3466 322.152 99.6956 314.586 99.6956C305.471 99.6956 298.977 93.1422 298.977 84.0864C298.977 75.2095 305.59 68.5964 314.646 68.5964C323.405 68.5964 330.612 74.852 330.195 86.0525H306.96C307.317 89.5675 309.94 92.6059 315.003 92.6059C317.863 92.6059 320.366 91.3547 321.319 89.3292H329.838ZM314.406 75.2095C310.653 75.2095 308.033 77.4138 307.26 80.6904H321.259C320.246 76.6989 317.209 75.2095 314.406 75.2095Z" fill="black"/>
<path d="M353.956 98.7422C352.643 99.1592 351.036 99.3975 348.773 99.3975C342.457 99.3975 337.394 95.8825 337.394 88.6142V76.4009H331.375V69.2517H337.394V60.9705H345.553V69.2517H353.956V76.4009H345.553V87.0056C345.553 90.6397 347.103 92.0695 350.619 92.0695C351.929 92.0695 353.002 91.8908 353.956 91.5335V98.7422Z" fill="black"/>
<path d="M370.84 111.492H361.962L368.218 97.372L355.706 69.2517H364.644L372.627 88.5546L380.55 69.2517H389.546L370.84 111.492Z" fill="black"/>
<mask id="mask0_55_99" style="mask-type:luminance" maskUnits="userSpaceOnUse" x="43" y="56" width="124" height="44">
<path d="M166.893 56.0544H43V99.2505H166.893V56.0544Z" fill="white"/>
</mask>
<g mask="url(#mask0_55_99)">
<path d="M166.892 98.7979V56.5015H157.359V82.5947L136.812 56.5015H128.652V98.7979H138.122V72.6461L158.732 98.7979H166.892Z" fill="black"/>
<path d="M56.1797 98.5307H65.1809V65.2887H78.3606V56.7666H43V65.2887H56.1797V98.5307Z" fill="black"/>
<path d="M101.532 56.0544C89.5869 56.0544 79.9363 65.7636 79.9363 77.6498C79.9363 89.5362 89.5869 99.2451 101.532 99.2451C113.476 99.2451 123.127 89.5362 123.127 77.6498C123.127 65.7636 113.418 56.0544 101.532 56.0544ZM101.532 90.6061C94.4628 90.6061 88.9321 84.639 88.9321 77.6498C88.9321 70.6607 94.4628 64.6937 101.532 64.6937C108.601 64.6937 114.067 70.6607 114.067 77.6498C114.067 84.639 108.537 90.6061 101.532 90.6061Z" fill="black"/>
</g>
</g>
<defs>
<clipPath id="clip0_55_99">
<rect width="347" height="58" fill="white" transform="translate(43 54)"/>
</clipPath>
</defs>
</svg>
