<svg width="1080" height="1080" viewBox="0 0 1080 1080" fill="none" xmlns="http://www.w3.org/2000/svg">
<g clip-path="url(#clip0_1_2)">
<path d="M540 0C241.757 0 0 241.774 0 540C0 838.226 241.774 1080 540 1080C838.227 1080 1080 838.226 1080 540C1080 241.774 838.243 0 540 0ZM540 832.557C378.437 832.557 247.459 701.58 247.459 540.016C247.459 378.453 378.437 247.475 540 247.475C701.564 247.475 832.541 378.453 832.541 540.016C832.541 701.58 701.564 832.557 540 832.557Z" fill="#076CF8"/>
<path d="M606.339 354.117V539.543L481.198 352C406.832 375.567 351.694 442.178 345 522.556V555.462C351.516 633.83 404.108 699.089 475.661 724.15V539.525L600.108 726C679.476 700.832 737 626.626 737 539.009C737 451.392 682.467 381.117 606.339 354.117Z" fill="#559CFF"/>
</g>
<defs>
<clipPath id="clip0_1_2">
<rect width="1080" height="1080" fill="white"/>
</clipPath>
</defs>
</svg>
