<svg width="195" height="40" viewBox="0 0 195 40" fill="none" xmlns="http://www.w3.org/2000/svg">
<g clip-path="url(#clip0_122_51)">
<mask id="mask0_122_51" style="mask-type:luminance" maskUnits="userSpaceOnUse" x="0" y="0" width="39" height="40">
<path d="M39 0H0V40H39V0Z" fill="white"/>
</mask>
<g mask="url(#mask0_122_51)">
<path d="M16.443 29.988L3.062 6.48199L0 8.22499L17.413 38.813C18.311 40.391 20.584 40.396 21.49 38.822L16.443 29.988Z" fill="white"/>
<path d="M15.103 0L11.626 0.569L17.725 38.5C18.623 40.078 20.584 40.396 21.49 38.822L15.103 0Z" fill="white"/>
<path d="M19.712 28.145L17.413 38.813C18.311 40.391 20.584 40.396 21.49 38.822L23.166 28.843L27.601 9.24801L24.165 8.47101L19.712 28.145Z" fill="white"/>
<path d="M17.413 38.813C18.311 40.391 20.584 40.396 21.49 38.822L38.656 8.98201L35.602 7.22501L23.166 28.843L17.413 38.813Z" fill="white"/>
</g>
</g>
<path d="M108 26.9945H111.625C111.875 28.6512 113.25 29.5314 114.825 29.5314C116.275 29.5314 117.35 28.8324 117.35 27.6676C117.35 26.6839 116.675 25.9333 114.975 25.4414L113.1 24.8719C110.3 24.0436 108.475 22.2316 108.45 19.436C108.425 16.045 110.85 14 114.4 14C118.225 14 120.5 16.8474 120.625 19.5913H117.025C116.625 18.0381 115.45 17.4687 114.4 17.4687C113.125 17.4687 112.125 18.0899 112.1 19.1771C112.075 20.3161 112.875 20.9373 114.325 21.3774L116.4 21.9727C119.275 22.8011 121 24.6908 121 27.5381C121 30.6703 118.55 33 114.825 33C110.575 33 108.15 30.0232 108 26.9945Z" fill="white"/>
<path d="M135 25.5C135 29.136 132.084 32 128.5 32C124.916 32 122 29.136 122 25.5C122 21.864 124.916 19 128.5 19C132.084 19 135 21.864 135 25.5ZM125.411 25.5C125.411 27.4176 126.721 28.8122 128.5 28.8122C130.279 28.8122 131.565 27.4176 131.565 25.5C131.565 23.5824 130.279 22.1877 128.5 22.1877C126.721 22.1877 125.411 23.5824 125.411 25.5Z" fill="white"/>
<path d="M149 26.9694C148.324 29.8333 146.044 32 142.588 32C138.78 32 136 29.1111 136 25.5C136 21.8889 138.78 19 142.588 19C146.044 19 148.324 21.1667 149 24.0307H145.443C144.967 22.91 144.04 22.0881 142.588 22.0881C140.784 22.0881 139.457 23.433 139.457 25.5C139.457 27.5671 140.784 28.9118 142.588 28.9118C144.04 28.9118 144.967 28.0901 145.443 26.9694H149Z" fill="white"/>
<path d="M155 15.1865C155 16.3929 153.886 17.373 152.486 17.373C151.143 17.373 150 16.3929 150 15.1865C150 13.9802 151.143 13 152.486 13C153.886 13 155 13.9802 155 15.1865ZM150.543 32V19.4339H154.457V32H150.543Z" fill="white"/>
<path d="M168.844 27.6667C168.101 30.1821 165.645 32 162.496 32C158.703 32 156 29.2606 156 25.4751C156 21.7644 158.752 19 162.521 19C166.167 19 169.166 21.615 168.993 26.297H159.323C159.471 27.7663 160.563 29.0364 162.67 29.0364C163.86 29.0364 164.902 28.5134 165.299 27.6667H168.844ZM162.422 21.7644C160.86 21.7644 159.769 22.6858 159.447 24.0555H165.274C164.852 22.387 163.588 21.7644 162.422 21.7644Z" fill="white"/>
<path d="M180 31.7272C179.419 31.9008 178.707 32 177.705 32C174.908 32 172.666 30.5364 172.666 27.5101V22.4248H170V19.4481H172.666V16H176.279V19.4481H180V22.4248H176.279V26.8404C176.279 28.3535 176.965 28.9488 178.522 28.9488C179.103 28.9488 179.578 28.8744 180 28.7257V31.7272Z" fill="white"/>
<path d="M186.709 38H182.773L185.546 31.9831L180 20H183.962L187.501 28.2257L191.012 20H195L186.709 38Z" fill="white"/>
<mask id="mask1_122_51" style="mask-type:luminance" maskUnits="userSpaceOnUse" x="47" y="13" width="53" height="20">
<path d="M99.819 13.8759H47V32.2916H99.819V13.8759Z" fill="white"/>
</mask>
<g mask="url(#mask1_122_51)">
<path d="M99.8189 32.0987V14.0665H95.7545V25.1908L86.9949 14.0665H83.516V32.0987H87.5532V20.9494L96.34 32.0987H99.8189Z" fill="white"/>
<path d="M52.6189 31.9847H56.4564V17.8127H62.0752V14.1795H47V17.8127H52.6189V31.9847Z" fill="white"/>
<path d="M71.9537 13.8759C66.8613 13.8759 62.747 18.0152 62.747 23.0826C62.747 28.1501 66.8613 32.2893 71.9537 32.2893C77.0462 32.2893 81.1604 28.1501 81.1604 23.0826C81.1604 18.0152 77.0212 13.8759 71.9537 13.8759ZM71.9537 28.6062C68.9401 28.6062 66.5822 26.0623 66.5822 23.0826C66.5822 20.103 68.9401 17.559 71.9537 17.559C74.9674 17.559 77.298 20.103 77.298 23.0826C77.298 26.0623 74.9401 28.6062 71.9537 28.6062Z" fill="white"/>
</g>
<defs>
<clipPath id="clip0_122_51">
<rect width="39" height="40" fill="white"/>
</clipPath>
</defs>
</svg>
