<?xml version="1.0" encoding="UTF-8" standalone="no"?>
<!DOCTYPE svg PUBLIC "-//W3C//DTD SVG 1.1//EN"
 "http://www.w3.org/Graphics/SVG/1.1/DTD/svg11.dtd">
<!-- Generated by graphviz version 2.47.0 (20210316.0004)
 -->
<!-- Title: dependencies Pages: 1 -->
<svg width="504pt" height="284pt"
 viewBox="0.00 0.00 504.00 284.00" xmlns="http://www.w3.org/2000/svg" xmlns:xlink="http://www.w3.org/1999/xlink">
<g id="graph0" class="graph" transform="scale(1 1) rotate(0) translate(4 280)">
<title>dependencies</title>
<polygon fill="white" stroke="transparent" points="-4,4 -4,-280 500,-280 500,4 -4,4"/>
<text text-anchor="start" x="227.01" y="-42.4" font-family="Times-12" font-weight="bold" font-size="14.00">Legend</text>
<polygon fill="#ffffb3" stroke="transparent" points="14,-10 14,-30 34,-30 34,-10 14,-10"/>
<text text-anchor="start" x="37.63" y="-15.4" font-family="Times-12" font-size="14.00"> &#160;Declarations</text>
<polygon fill="#8dd3c7" stroke="transparent" points="127,-10 127,-30 147,-30 147,-10 127,-10"/>
<text text-anchor="start" x="150.73" y="-15.4" font-family="Times-12" font-size="14.00"> &#160;Module</text>
<polygon fill="#80b1d3" stroke="transparent" points="213,-10 213,-30 233,-30 233,-10 213,-10"/>
<text text-anchor="start" x="236.78" y="-15.4" font-family="Times-12" font-size="14.00"> &#160;Bootstrap</text>
<polygon fill="#fdb462" stroke="transparent" points="310,-10 310,-30 330,-30 330,-10 310,-10"/>
<text text-anchor="start" x="333.67" y="-15.4" font-family="Times-12" font-size="14.00"> &#160;Providers</text>
<polygon fill="#fb8072" stroke="transparent" points="406,-10 406,-30 426,-30 426,-10 406,-10"/>
<text text-anchor="start" x="429.73" y="-15.4" font-family="Times-12" font-size="14.00"> &#160;Exports</text>
<g id="clust1" class="cluster">
<title>cluster_NFTModule</title>
<polygon fill="none" stroke="black" stroke-dasharray="1,5" points="87,-70 87,-268 409,-268 409,-70 87,-70"/>
</g>
<g id="clust4" class="cluster">
<title>cluster_NFTModule_exports</title>
<polygon fill="none" stroke="black" points="186,-208 186,-260 290,-260 290,-208 186,-208"/>
</g>
<g id="clust6" class="cluster">
<title>cluster_NFTModule_providers</title>
<polygon fill="none" stroke="black" points="95,-78 95,-130 401,-130 401,-78 95,-78"/>
</g>
<!-- NFTService  -->
<g id="node1" class="node">
<title>NFTService </title>
<polygon fill="#fb8072" stroke="black" points="281.92,-252 194.08,-252 194.08,-216 281.92,-216 281.92,-252"/>
<text text-anchor="middle" x="238" y="-229.8" font-family="Times,serif" font-size="14.00">NFTService </text>
</g>
<!-- NFTModule -->
<g id="node2" class="node">
<title>NFTModule</title>
<polygon fill="#8dd3c7" stroke="black" points="280.99,-187 277.99,-191 256.99,-191 253.99,-187 195.01,-187 195.01,-151 280.99,-151 280.99,-187"/>
<text text-anchor="middle" x="238" y="-164.8" font-family="Times,serif" font-size="14.00">NFTModule</text>
</g>
<!-- NFTModule&#45;&gt;NFTService  -->
<g id="edge1" class="edge">
<title>NFTModule&#45;&gt;NFTService </title>
<path fill="none" stroke="black" stroke-dasharray="5,2" d="M238,-187.11C238,-187.11 238,-205.99 238,-205.99"/>
<polygon fill="black" stroke="black" points="234.5,-205.99 238,-215.99 241.5,-205.99 234.5,-205.99"/>
</g>
<!-- MetaDataService -->
<g id="node3" class="node">
<title>MetaDataService</title>
<ellipse fill="#fdb462" stroke="black" cx="315" cy="-104" rx="78.12" ry="18"/>
<text text-anchor="middle" x="315" y="-99.8" font-family="Times,serif" font-size="14.00">MetaDataService</text>
</g>
<!-- MetaDataService&#45;&gt;NFTModule -->
<g id="edge2" class="edge">
<title>MetaDataService&#45;&gt;NFTModule</title>
<path fill="none" stroke="black" d="M258.97,-116.53C258.97,-116.53 258.97,-140.85 258.97,-140.85"/>
<polygon fill="black" stroke="black" points="255.47,-140.85 258.97,-150.85 262.47,-140.85 255.47,-140.85"/>
</g>
<!-- NFTService -->
<g id="node4" class="node">
<title>NFTService</title>
<ellipse fill="#fdb462" stroke="black" cx="161" cy="-104" rx="58.46" ry="18"/>
<text text-anchor="middle" x="161" y="-99.8" font-family="Times,serif" font-size="14.00">NFTService</text>
</g>
<!-- NFTService&#45;&gt;NFTModule -->
<g id="edge3" class="edge">
<title>NFTService&#45;&gt;NFTModule</title>
<path fill="none" stroke="black" d="M207.12,-115.03C207.12,-115.03 207.12,-140.78 207.12,-140.78"/>
<polygon fill="black" stroke="black" points="203.62,-140.78 207.12,-150.78 210.62,-140.78 203.62,-140.78"/>
</g>
</g>
</svg>
