<svg width="64" height="64" viewBox="0 0 64 64" fill="none" xmlns="http://www.w3.org/2000/svg">
<rect x="0.0996094" y="0.100098" width="63.8" height="63.8" rx="31.9" fill="black"/>
<path d="M42.8944 17.645H21.1094C17.1038 17.645 14.5651 21.9658 16.5802 25.4587L30.0251 48.7625C30.9025 50.2841 33.1012 50.2841 33.9786 48.7625L47.4263 25.4587C49.4386 21.9713 46.8999 17.645 42.8971 17.645H42.8944ZM30.0142 41.7741L27.0861 36.1072L20.0209 23.471C19.5549 22.6622 20.1306 21.6259 21.1066 21.6259H30.0114V41.7768L30.0142 41.7741ZM43.9773 23.4682L36.9149 36.1099L33.9868 41.7741V21.6231H42.8916C43.8676 21.6231 44.4434 22.6595 43.9773 23.4682Z" fill="white"/>
</svg>
