<?xml version="1.0" encoding="UTF-8"?>
<svg id="Layer_1" xmlns="http://www.w3.org/2000/svg" version="1.1" xmlns:xlink="http://www.w3.org/1999/xlink" viewBox="0 0 882 764">
  <!-- Generator: Adobe Illustrator 29.2.1, SVG Export Plug-In . SVG Version: 2.1.0 Build 116)  -->
  <defs>
    <style>
      .st0 {
        fill: #6b708a;
      }

      .st1 {
        fill: #d7d7d7;
      }

      .st2 {
        fill: #263238;
      }

      .st3, .st4, .st5, .st6, .st7 {
        fill: #fff;
      }

      .st8 {
        fill: #ededed;
        opacity: .7;
      }

      .st8, .st4, .st9, .st10, .st5, .st11, .st12, .st6, .st7 {
        isolation: isolate;
      }

      .st13, .st12, .st6 {
        opacity: .2;
      }

      .st14 {
        fill: none;
      }

      .st4, .st11 {
        opacity: .4;
      }

      .st15 {
        fill: #407bff;
      }

      .st9 {
        opacity: 0;
      }

      .st10, .st7 {
        opacity: .1;
      }

      .st5 {
        opacity: .5;
      }

      .st16 {
        fill: #076cf8;
      }

      .st17 {
        fill: #559cff;
      }

      .st18 {
        fill: #c7c6d2;
      }

      .st19 {
        opacity: .3;
      }

      .st20 {
        fill: #ebebeb;
      }

      .st21 {
        fill: #f5f5f5;
      }
    </style>
  </defs>
  <path class="st8" d="M638.5,160.9c-5.3-10.5-11.1-20.6-17.4-30.5C547,17.6,348.7-43.9,250.4,72.8c-23.4,27.8-31.6,61.4-47.4,93.3-35.9,72.6-102.8,115.9-144.9,183-32.6,52.1-28.2,118.8-10.1,175.1,19.7,61.2,54.5,103.9,110.1,136.4,62.3,36.4,128.9,26.3,196.3,13.6,30.3-5.7,61.5-11.5,92.5-9.3,38.8,2.7,77.1,13.7,115.5,19,40,5.6,81.5,6.9,120-5.2,123.4-38.7,152.6-220,101.9-323.9-18-36.8-48.4-65.1-76.7-93.9-30.5-31-49.2-61.4-69.1-100Z"/>
  <path class="st0" d="M719.7,201.1c-79.8-120.8-248.3-169.8-414.1-117-87.6,27.9-172.1,83.8-214,192-74.9,193.5,82.3,255.2,185.1,274.9,49.7,9.5,96.5,25.5,139.3,47.3,76.9,39.2,213.1,73.9,315.8-89.3,74.4-118.3,41.1-227.5-12.1-307.9Z"/>
  <path class="st20" d="M881.7,730.4H0v.4h881.7v-.4Z"/>
  <path class="st20" d="M793.4,758.8h-58.4v.4h58.4v-.4Z"/>
  <path class="st20" d="M584.1,763.6h-15.3v.4h15.3v-.4Z"/>
  <path class="st20" d="M733.2,742.4h-33.8v.4h33.8v-.4Z"/>
  <path class="st20" d="M168.7,745.4h-76.2v.4h76.2v-.4Z"/>
  <path class="st20" d="M195.5,745.4h-11.2v.4h11.2v-.4Z"/>
  <path class="st20" d="M397,752.8h-165.2v.4h165.2v-.4Z"/>
  <path class="st1" d="M752.2,520.8c29.3-3.8,49.9-30.7,46-59.9s-30.7-49.9-59.9-46c-29.3,3.8-49.9,30.7-46,59.9,3.8,29.3,30.7,49.9,59.9,46Z"/>
  <path class="st21" d="M696.1,480.9c40.7.6,70.2-17.4,88.4-53.8-4.2-4-9-7.4-14.3-9.9-15.6,31.6-41,47.1-76.3,46.4-.2,5.8.5,11.7,2.2,17.3Z"/>
  <path class="st21" d="M708.9,502.9l89.2-54.2c2.6,7.6,3.4,15.6,2.5,23.5-16.3,27.1-40.2,41.7-71.7,43.6-7.5-2.8-14.4-7.2-20-12.9Z"/>
  <path class="st20" d="M696.1,480.9c40.7.5,70.2-17.4,88.4-53.8,6.2,6,10.8,13.4,13.6,21.5-20.9,32.6-50.7,50.7-89.2,54.2-6-6.2-10.3-13.7-12.8-22Z"/>
  <path class="st21" d="M730.5,416.9c.7,1.1-3,4.5-8.2,7.6s-9.9,4.8-10.6,3.7c-.7-1.1,3-4.5,8.2-7.6,5.2-3.1,9.9-4.8,10.6-3.7Z"/>
  <path class="st1" d="M775.9,483.5c-6.2,5.4-13,7.7-15.3,5-2.3-2.6.8-9.2,6.9-14.5,6.1-5.4,13-7.7,15.3-5,2.3,2.6-.8,9.2-6.9,14.6Z"/>
  <path class="st1" d="M702.4,199.6c0,1.1-.3,2.2-.9,3.1-.6.9-1.5,1.6-2.5,2.1-1,.4-2.1.5-3.2.3s-2.1-.7-2.9-1.5c-.8-.8-1.3-1.8-1.5-2.9-.2-1.1-.1-2.2.3-3.2.4-1,1.1-1.9,2.1-2.5.9-.6,2-.9,3.1-.9.7,0,1.5.1,2.1.4.7.3,1.3.7,1.8,1.2s.9,1.1,1.2,1.8.4,1.4.4,2.1Z"/>
  <path class="st1" d="M667.2,331.3c0,1.1-.3,2.2-.9,3.1-.6.9-1.5,1.6-2.5,2.1-1,.4-2.1.5-3.2.3-1.1-.2-2.1-.7-2.9-1.5-.8-.8-1.3-1.8-1.5-2.9-.2-1.1-.1-2.2.3-3.2.4-1,1.1-1.9,2.1-2.5s2-.9,3.1-.9,2.9.6,4,1.6c1,1,1.6,2.5,1.6,4Z"/>
  <path class="st1" d="M769.7,129.7c0,1.1-.3,2.2-.9,3.1-.6.9-1.5,1.6-2.5,2.1-1,.4-2.1.5-3.2.3s-2.1-.7-2.9-1.5c-.8-.8-1.3-1.8-1.5-2.9-.2-1.1-.1-2.2.3-3.2.4-1,1.1-1.9,2.1-2.5.9-.6,2-.9,3.1-.9.7,0,1.5.1,2.1.4s1.3.7,1.8,1.2c.5.5.9,1.1,1.2,1.8.3.7.4,1.4.4,2.1Z"/>
  <path class="st1" d="M785.8,318.7c0,1.1-.3,2.2-.9,3.1-.6.9-1.5,1.6-2.5,2.1-1,.4-2.1.5-3.2.3s-2.1-.7-2.9-1.5c-.8-.8-1.3-1.8-1.5-2.9s-.1-2.2.3-3.2,1.1-1.9,2.1-2.5c.9-.6,2-.9,3.1-.9.7,0,1.5.1,2.1.4.7.3,1.3.7,1.8,1.2.5.5.9,1.1,1.2,1.8.3.7.4,1.4.4,2.1Z"/>
  <path class="st1" d="M684.6,495.1c3.1,0,5.6-2.5,5.6-5.6s-2.5-5.6-5.6-5.6-5.6,2.5-5.6,5.6,2.5,5.6,5.6,5.6Z"/>
  <path class="st1" d="M488,439.5c3.1,0,5.6-2.5,5.6-5.6s-2.5-5.6-5.6-5.6-5.6,2.5-5.6,5.6,2.5,5.6,5.6,5.6Z"/>
  <path class="st1" d="M383.1,184c0,1.1-.3,2.2-.9,3.1-.6.9-1.5,1.6-2.5,2.1-1,.4-2.1.5-3.2.3-1.1-.2-2.1-.7-2.9-1.5-.8-.8-1.3-1.8-1.5-2.9-.2-1.1-.1-2.2.3-3.2.4-1,1.1-1.9,2.1-2.5.9-.6,2-.9,3.1-.9,1.5,0,2.9.6,3.9,1.6,1,1,1.6,2.5,1.6,3.9Z"/>
  <path class="st1" d="M278.8,242.8c0,1.1-.3,2.2-.9,3.1-.6.9-1.5,1.6-2.5,2.1-1,.4-2.1.5-3.2.3-1.1-.2-2.1-.7-2.9-1.5s-1.3-1.8-1.5-2.9-.1-2.2.3-3.2c.4-1,1.1-1.9,2.1-2.5.9-.6,2-.9,3.1-.9s2.9.6,4,1.6c1,1,1.6,2.5,1.6,4Z"/>
  <path class="st1" d="M137.3,373.1c0,1.1-.3,2.2-.9,3.1-.6.9-1.5,1.6-2.5,2.1s-2.1.5-3.2.3c-1.1-.2-2.1-.7-2.9-1.5-.8-.8-1.3-1.8-1.5-2.9-.2-1.1-.1-2.2.3-3.2.4-1,1.1-1.9,2.1-2.5.9-.6,2-.9,3.1-.9.7,0,1.5.1,2.1.4.7.3,1.3.7,1.8,1.2.5.5.9,1.1,1.2,1.8.3.7.4,1.4.4,2.1Z"/>
  <path class="st1" d="M157.1,286.6c1.5,0,2.8-1.2,2.8-2.8s-1.2-2.8-2.8-2.8-2.8,1.2-2.8,2.8,1.2,2.8,2.8,2.8Z"/>
  <path class="st1" d="M221.2,378.7c1.5,0,2.8-1.2,2.8-2.8s-1.2-2.8-2.8-2.8-2.8,1.2-2.8,2.8,1.2,2.8,2.8,2.8Z"/>
  <path class="st1" d="M195.5,370.3c1.5,0,2.8-1.2,2.8-2.8s-1.2-2.8-2.8-2.8-2.8,1.2-2.8,2.8,1.2,2.8,2.8,2.8Z"/>
  <path class="st1" d="M177,439.5c1.5,0,2.8-1.2,2.8-2.8s-1.2-2.8-2.8-2.8-2.8,1.2-2.8,2.8,1.2,2.8,2.8,2.8Z"/>
  <path class="st1" d="M290.8,196.8c1.5,0,2.8-1.2,2.8-2.8s-1.2-2.8-2.8-2.8-2.8,1.2-2.8,2.8,1.2,2.8,2.8,2.8Z"/>
  <path class="st1" d="M716.3,172.4c1.5,0,2.8-1.2,2.8-2.8s-1.2-2.8-2.8-2.8-2.8,1.2-2.8,2.8,1.2,2.8,2.8,2.8Z"/>
  <path class="st1" d="M684.6,139.1c1.5,0,2.8-1.2,2.8-2.8s-1.2-2.8-2.8-2.8-2.8,1.2-2.8,2.8,1.2,2.8,2.8,2.8Z"/>
  <path class="st1" d="M759.8,381.4c1.5,0,2.8-1.2,2.8-2.8s-1.2-2.8-2.8-2.8-2.8,1.2-2.8,2.8,1.2,2.8,2.8,2.8Z"/>
  <path class="st1" d="M681.7,330.8c1.5,0,2.8-1.2,2.8-2.8s-1.2-2.8-2.8-2.8-2.8,1.2-2.8,2.8,1.2,2.8,2.8,2.8Z"/>
  <path class="st1" d="M774.7,560.8c1.5,0,2.8-1.2,2.8-2.8s-1.2-2.8-2.8-2.8-2.8,1.2-2.8,2.8,1.2,2.8,2.8,2.8Z"/>
  <path class="st1" d="M552.8,543.9c1.5,0,2.8-1.2,2.8-2.8s-1.2-2.8-2.8-2.8-2.8,1.2-2.8,2.8,1.2,2.8,2.8,2.8Z"/>
  <path class="st1" d="M470.4,613.7c1.5,0,2.8-1.2,2.8-2.8s-1.2-2.8-2.8-2.8-2.8,1.2-2.8,2.8,1.2,2.8,2.8,2.8Z"/>
  <path class="st1" d="M605.8,439.5c1.5,0,2.8-1.2,2.8-2.8s-1.2-2.8-2.8-2.8-2.8,1.2-2.8,2.8,1.2,2.8,2.8,2.8Z"/>
  <path class="st1" d="M559.3,518.6c1.5,0,2.8-1.2,2.8-2.8s-1.2-2.8-2.8-2.8-2.8,1.2-2.8,2.8,1.2,2.8,2.8,2.8Z"/>
  <path class="st1" d="M482.4,633.1c1.5,0,2.8-1.2,2.8-2.8s-1.2-2.8-2.8-2.8-2.8,1.2-2.8,2.8,1.2,2.8,2.8,2.8Z"/>
  <path class="st1" d="M508.1,436.7c1.5,0,2.8-1.2,2.8-2.8s-1.2-2.8-2.8-2.8-2.8,1.2-2.8,2.8,1.2,2.8,2.8,2.8Z"/>
  <path class="st1" d="M762.6,590.1c1.5,0,2.8-1.2,2.8-2.8s-1.2-2.8-2.8-2.8-2.8,1.2-2.8,2.8,1.2,2.8,2.8,2.8Z"/>
  <path class="st1" d="M95.9,303.6c1.5,0,2.8-1.2,2.8-2.8s-1.2-2.8-2.8-2.8-2.8,1.2-2.8,2.8,1.2,2.8,2.8,2.8Z"/>
  <path class="st1" d="M137.3,298.1c1.5,0,2.8-1.2,2.8-2.8s-1.2-2.8-2.8-2.8-2.8,1.2-2.8,2.8,1.2,2.8,2.8,2.8Z"/>
  <path class="st1" d="M93.2,582.9c1.5,0,2.8-1.2,2.8-2.8s-1.2-2.8-2.8-2.8-2.8,1.2-2.8,2.8,1.2,2.8,2.8,2.8Z"/>
  <path class="st1" d="M108.8,405.1c1.5,0,2.8-1.2,2.8-2.8s-1.2-2.8-2.8-2.8-2.8,1.2-2.8,2.8,1.2,2.8,2.8,2.8Z"/>
  <path class="st1" d="M747.4,251.1c1.5,0,2.8-1.2,2.8-2.8s-1.2-2.8-2.8-2.8-2.8,1.2-2.8,2.8,1.2,2.8,2.8,2.8Z"/>
  <path class="st1" d="M765.4,249.4c1.5,0,2.8-1.2,2.8-2.8s-1.2-2.8-2.8-2.8-2.8,1.2-2.8,2.8,1.2,2.8,2.8,2.8Z"/>
  <path class="st1" d="M694.1,317.7c1.5,0,2.8-1.2,2.8-2.8s-1.2-2.8-2.8-2.8-2.8,1.2-2.8,2.8,1.2,2.8,2.8,2.8Z"/>
  <path class="st1" d="M598.7,196.8c1.5,0,2.8-1.2,2.8-2.8s-1.2-2.8-2.8-2.8-2.8,1.2-2.8,2.8,1.2,2.8,2.8,2.8Z"/>
  <path class="st1" d="M473.2,402.3c1.5,0,2.8-1.2,2.8-2.8s-1.2-2.8-2.8-2.8-2.8,1.2-2.8,2.8,1.2,2.8,2.8,2.8Z"/>
  <path class="st1" d="M351.6,339.7c1.5,0,2.8-1.2,2.8-2.8s-1.2-2.8-2.8-2.8-2.8,1.2-2.8,2.8,1.2,2.8,2.8,2.8Z"/>
  <path class="st1" d="M771.7,199.6c1.5,0,2.8-1.2,2.8-2.8s-1.2-2.8-2.8-2.8-2.8,1.2-2.8,2.8,1.2,2.8,2.8,2.8Z"/>
  <path class="st1" d="M476,192.4c1.5,0,2.8-1.2,2.8-2.8s-1.2-2.8-2.8-2.8-2.8,1.2-2.8,2.8,1.2,2.8,2.8,2.8Z"/>
  <path class="st1" d="M373.6,314.9c1.5,0,2.8-1.2,2.8-2.8s-1.2-2.8-2.8-2.8-2.8,1.2-2.8,2.8,1.2,2.8,2.8,2.8Z"/>
  <path class="st1" d="M314.9,323.8c1.5,0,2.8-1.2,2.8-2.8s-1.2-2.8-2.8-2.8-2.8,1.2-2.8,2.8,1.2,2.8,2.8,2.8Z"/>
  <path class="st1" d="M784.5,283.8c1.5,0,2.8-1.2,2.8-2.8s-1.2-2.8-2.8-2.8-2.8,1.2-2.8,2.8,1.2,2.8,2.8,2.8Z"/>
  <path class="st1" d="M154,628.1c1.5,0,2.8-1.2,2.8-2.8s-1.2-2.8-2.8-2.8-2.8,1.2-2.8,2.8,1.2,2.8,2.8,2.8Z"/>
  <path class="st1" d="M218.5,300.9c0,1.1-.3,2.2-.9,3.1-.6.9-1.5,1.6-2.5,2-1,.4-2.1.5-3.2.3-1.1-.2-2.1-.7-2.8-1.5-.8-.8-1.3-1.8-1.5-2.9-.2-1.1-.1-2.2.3-3.2.4-1,1.1-1.9,2.1-2.5.9-.6,2-.9,3.1-.9s1.5.1,2.1.4c.7.3,1.3.7,1.8,1.2.5.5.9,1.1,1.2,1.8.3.7.4,1.4.4,2.1Z"/>
  <path class="st1" d="M408.2,388.7c0,1.1-.3,2.2-.9,3.1-.6.9-1.5,1.6-2.5,2.1-1,.4-2.1.5-3.2.3-1.1-.2-2.1-.7-2.9-1.5-.8-.8-1.3-1.8-1.5-2.9s-.1-2.2.3-3.2c.4-1,1.1-1.9,2.1-2.5.9-.6,2-.9,3.1-.9.7,0,1.5.1,2.1.4s1.3.7,1.8,1.2c.5.5.9,1.1,1.2,1.8.3.7.4,1.4.4,2.1Z"/>
  <path class="st1" d="M588.1,496.9c0,1.1-.3,2.2-.9,3.1-.6.9-1.5,1.6-2.5,2.1-1,.4-2.1.5-3.2.3-1.1-.2-2.1-.7-2.9-1.5-.8-.8-1.3-1.8-1.5-2.9-.2-1.1-.1-2.2.3-3.2.4-1,1.1-1.9,2.1-2.5.9-.6,2-.9,3.1-.9.7,0,1.5.1,2.1.4.7.3,1.3.7,1.8,1.2.5.5.9,1.1,1.2,1.8.3.7.4,1.4.4,2.1Z"/>
  <path class="st1" d="M121.5,598.5c3.1,0,5.6-2.5,5.6-5.6s-2.5-5.6-5.6-5.6-5.6,2.5-5.6,5.6,2.5,5.6,5.6,5.6Z"/>
  <path class="st1" d="M121.5,501.3c3.1,0,5.6-2.5,5.6-5.6s-2.5-5.6-5.6-5.6-5.6,2.5-5.6,5.6,2.5,5.6,5.6,5.6Z"/>
  <path class="st1" d="M414.9,33.2c-5.6-13.9-33.8-16.8-71.5-9.7,3.7,3.9,7.1,8.2,9.9,12.9,1.3,2.1,2.5,4.2,3.5,6.4,7.4,1.1,12.5,3.8,14.2,8.1,2,5-.7,11.5-7.1,18.6.6,8.7-.2,17.4-2.5,25.7,37.5-22.7,59.6-46.9,53.5-62Z"/>
  <path class="st1" d="M233.7,125c-13.4.3-22.6-2.5-25.1-8.7-2.2-5.4,1.3-12.7,8.9-20.6-2-7-3-14.3-2.9-21.5-35.3,22.1-55.9,45.2-50,60,6.4,15.9,42,17.4,87.8,6.1-7-4-13.4-9.1-18.7-15.2Z"/>
  <path class="st1" d="M298.5,149.7c40.9-5.4,69.7-42.9,64.3-83.7C357.4,25,319.9-3.7,279.1,1.6c-40.9,5.4-69.7,42.9-64.3,83.7,5.4,40.9,42.9,69.7,83.7,64.3Z"/>
  <path class="st21" d="M217.8,96.5c56.9.8,98.1-24.3,123.6-75.1-5.9-5.7-12.6-10.3-20-13.8-21.9,44.2-57.4,65.8-106.7,64.8-.3,8.2.8,16.3,3.1,24.1Z"/>
  <ellipse class="st3" cx="427" cy="350.9" rx="126.8" ry="127.3"/>
  <path class="st16" d="M421.2,119.7c-122.3,0-221.4,101.8-221.4,227.3s99.1,227.3,221.4,227.3,221.4-101.8,221.4-227.3-99.1-227.3-221.4-227.3ZM421.2,470.2c-66.2,0-119.9-55.1-119.9-123.2s53.7-123.2,119.9-123.2,119.9,55.1,119.9,123.2-53.7,123.2-119.9,123.2Z"/>
  <path class="st17" d="M445.4,276.9v70.7l-46.4-71.5c-27.6,9-48,34.4-50.5,65v12.5c2.4,29.9,21.9,54.8,48.5,64.3v-70.4l46.2,71.1c29.4-9.6,50.8-37.9,50.8-71.3s-20.2-60.2-48.5-70.5Z"/>
  <path class="st21" d="M235.7,127.2l124.6-75.8c3.5,10.6,4.7,21.8,3.3,32.9-22.7,38-56.1,58.3-100.2,61-10.5-3.9-19.9-10.1-27.7-18.1Z"/>
  <path class="st20" d="M217.8,96.5c56.9.8,98.1-24.3,123.6-75.1,8.6,8.4,15.2,18.7,19,30.1-29.2,45.5-70.8,70.8-124.6,75.8-8.4-8.7-14.6-19.2-18-30.8Z"/>
  <path class="st21" d="M265.9,7c.9,1.5-4.2,6.3-11.4,10.6-7.2,4.3-13.8,6.7-14.7,5.3-.9-1.4,4.2-6.3,11.4-10.7,7.2-4.4,13.8-6.7,14.7-5.2Z"/>
  <path class="st1" d="M364,69.5c-11.5,12.9-35,27.9-63.9,39.6-25.2,10.1-49.2,15.6-66.4,16,5.4,6,11.7,11.1,18.7,15.1,18.1-4.5,35.9-10.3,53.2-17.4,19.3-7.7,38-16.9,55.8-27.6,2.3-8.4,3.2-17,2.6-25.7Z"/>
  <rect class="st14" x="206" y="132" width="429" height="429"/>
  <path class="st15" d="M482.4,98s10.9-21.6,40.4-35.1c29.6-13.5,45.7-7.8,45.7-7.8l-16.8,5.8,52,2.1-48,6.1,16.6,3.9c-14.5.4-28.9,2.9-42.7,7.5-21.1,7.5-42.1,30.8-42.1,30.8l-5.1-13.5Z"/>
  <path class="st5" d="M482.4,98s10.9-21.6,40.4-35.1c29.6-13.5,45.7-7.8,45.7-7.8l-16.8,5.8,52,2.1-48,6.1,16.6,3.9c-14.5.4-28.9,2.9-42.7,7.5-21.1,7.5-42.1,30.8-42.1,30.8l-5.1-13.5Z"/>
  <path class="st5" d="M547.9,65.2c-11.8,3-22.9,8.6-32.2,16.5,6.3-3.7,13.4-6,20.7-6.6-19.7,5.8-36.1,17.9-48.8,36.6l-5.2-13.6c16.7-17.2,24.2-25.8,51-34.9-5.7,3.1-10.2,6.4-12.9,10.3,7.9-4.3,17.2-6.8,27.3-8.2Z"/>
  <path class="st15" d="M481.3,108.7l-.6,15.3,6.8-12.7,13.3,3.4-9.3-9.8,6.6-9-10.9,4.1-6.9-9.7.3,11.9-9.6,3.9,10.3,2.7Z"/>
  <path class="st3" d="M312.4,512.4c-2.7.2-5.4.3-8,.4v-1c7.6-.3,15.7-.9,23.7-1.8v1c-5.2.6-10.5,1-15.7,1.4ZM280.7,513c-8.2-.3-16.2-.9-23.8-1.8v-1c7.7.9,15.7,1.6,23.8,1.8v1ZM351.8,507.8l-.2-1c7.6-1.3,15.5-2.8,23.3-4.5l.2,1c-7.9,1.8-15.7,3.3-23.4,4.6ZM398.3,497.5l-.3-1c7.5-2,15.2-4.3,22.8-6.8l.3,1c-7.6,2.5-15.3,4.8-22.8,6.8ZM233.4,506.9c-7.7-1.8-15.3-4.2-22.7-7.2l.4-.9c7.3,2.9,14.9,5.3,22.6,7.1l-.2,1ZM443.6,482.9l-.4-.9c7.4-2.7,14.8-5.7,22.1-8.7l.4.9c-7.2,3.1-14.7,6-22.1,8.7h0ZM189.5,488.9c-6.7-4.3-12.8-9.5-18.2-15.3l.7-.7c5.3,5.8,11.4,10.9,18.1,15.2l-.6.8ZM487.5,464.5l-.4-.9c7.2-3.3,14.3-6.9,21.3-10.5l.5.9c-7,3.6-14.1,7.1-21.3,10.5h0ZM529.8,442.6l-.5-.9c6.9-4,13.7-8.1,20.3-12.3l.5.9c-6.6,4.1-13.4,8.3-20.4,12.2h0ZM157.9,453.9v-.2c-3.4-7.2-5.6-14.8-6.7-22.7h1c1.1,7.6,3.3,15.2,6.6,22.3h0c0,.1-.9.6-.9.6ZM570.1,417.1l-.6-.8c6.5-4.6,13-9.3,19.1-14.1l.6.8c-6.3,4.9-12.7,9.5-19.2,14.1ZM607.7,388l-.6-.7c6-5.2,12-10.6,17.6-15.9l.7.7c-5.6,5.3-11.5,10.7-17.6,16ZM152,407.2h-1c1-8,2.7-15.8,5.1-23.4l1,.3c-2.4,7.5-4.2,15.2-5.1,23.1h0ZM641.9,354.8l-.7-.7c5.4-6,10.6-12.1,15.3-18.2l.8.6c-4.7,6.1-9.9,12.2-15.4,18.2ZM166,362.2l-.9-.4c3.5-7.1,7.5-14,11.8-20.7l.8.5c-4.3,6.7-8.2,13.5-11.7,20.6h0ZM671,317.1l-.9-.5c4.3-6.6,8.2-13.5,11.7-20.6l.9.5c-3.5,7.1-7.4,14-11.7,20.7h0ZM191.4,322.2l-.8-.6c4.7-6.1,10-12.2,15.3-18.2l.7.7c-5.4,6-10.6,12.2-15.3,18.2ZM691.8,274.4l-1-.3c2.5-7.5,4.2-15.2,5.1-23.1h1c-1,8-2.7,15.8-5.2,23.4ZM695.9,227.4c-1.1-7.8-3.3-15.4-6.6-22.6v-.3c-.1,0,.8-.4.8-.4v.3c3.5,7.2,5.8,15,6.9,22.9h-1ZM675.9,185c-5.4-5.8-11.5-10.9-18.1-15.1l.6-.8c6.7,4.3,12.9,9.4,18.3,15.3l-.7.7ZM636.8,159.1c-7.4-2.9-14.9-5.3-22.6-7.1l.2-1c7.7,1.8,15.3,4.2,22.7,7.2l-.4.9ZM590.8,147.8c-7.6-.9-15.5-1.6-23.7-1.8v-1c8.2.3,16.2.9,23.8,1.8v1ZM519.7,147.9v-1c7.9-.9,15.8-1.5,23.7-1.8v1c-7.7.4-15.6,1-23.6,1.9h0Z"/>
  <path class="st18" d="M556.1,534.8c-7.5-4.4-15.5-9.5-24.1-15.4-44.4-30.1-98.1-75.5-151.2-127.8-53.2-52.3-99.4-105.3-130.2-149.2-15-21.4-25.5-39.4-31.3-53.7-6.1-15.1-6.6-25.4-1.4-30.6,10-10.2,38,2.8,59.6,15.5l-1,1.7c-29.8-17.4-50.1-23-57.2-15.8-9.1,9.2,3,39,33,81.8,30.7,43.8,76.9,96.7,130,148.9,53.1,52.2,106.7,97.5,151,127.6,43.2,29.4,73.2,40.9,82.3,31.7,7.5-7.6.6-29.5-19.6-61.6l1.7-1.1c14.6,23.3,29.9,53.4,19.3,64.1-5.1,5.2-15.5,4.9-30.7-1-8.7-3.4-18.7-8.4-30.1-15.1Z"/>
  <path class="st18" d="M269.5,368.7c-20.6-12.2-39.4-24.2-55.7-35.7-21.3-15.1-37.3-28.6-47.6-40.1-10.8-12.2-14.8-21.7-11.7-28.4,6-13,36.7-10.1,61.4-5.5l-.4,2c-33.9-6.4-54.9-4.9-59.2,4.3-5.4,11.7,15.9,35.7,58.6,65.9,43.7,30.9,104.9,65.2,172.5,96.6,67.5,31.4,133.3,56.1,185.1,69.5,50.6,13.1,82.7,14,88.2,2.2,4.5-9.7-9.4-28-39.2-51.5l1.2-1.6c21.6,17.1,46.1,40.3,39.7,53.9-3.1,6.6-12.9,9.8-29.2,9.4-15.4-.4-36-3.9-61.3-10.5-51.9-13.5-117.8-38.2-185.4-69.6-42.4-19.7-82.4-40.6-117.1-61.1Z"/>
  <path class="st2" d="M608.1,610.6l10-17.8,2.1,15.4-11.4,6-.8-3.5Z"/>
  <path class="st6" d="M608.1,610.6l10-17.8,2.1,15.4-11.4,6-.8-3.5Z"/>
  <path class="st4" d="M608.5,610.6l9.7-17.3,2,14.8-11.1,5.9-.6-3.4Z"/>
  <path class="st2" d="M628.1,611.6l-2.8-33.6-7.5,4,4,33.7,6.3-4Z"/>
  <path class="st6" d="M628.1,611.6l-2.8-33.6-7.5,4,4,33.7,6.3-4Z"/>
  <path class="st4" d="M628.1,611.6l-2.7-33.4-7.3,3.9,3.9,33.3,6.1-3.8Z"/>
  <path class="st2" d="M628.5,611.2l-2.9-33.7,6.4-3.6,2.9,32.6-6.4,4.6Z"/>
  <path class="st6" d="M628.5,611.2l-2.9-33.7,6.4-3.6,2.9,32.6-6.4,4.6Z"/>
  <path class="st4" d="M628.6,611.2l-2.7-33.5,6.2-3.5,2.9,32.4-6.3,4.6Z"/>
  <path class="st2" d="M632.3,573.6l6.2-3.4,2.5,31.8-5.7,4.2-2.9-32.5Z"/>
  <path class="st6" d="M632.3,573.6l6.2-3.4,2.5,31.8-5.7,4.2-2.9-32.5Z"/>
  <path class="st4" d="M632.5,573.7l6-3.4,2.5,31.6-5.6,4.1-2.8-32.3Z"/>
  <path class="st2" d="M638.8,570l5.4-3,2.5,30.8-5.5,4-2.4-31.8Z"/>
  <path class="st6" d="M638.8,570l5.4-3,2.5,30.8-5.5,4-2.4-31.8Z"/>
  <path class="st4" d="M639,570.1l5.2-3,2.5,30.7-5.3,3.9-2.4-31.6Z"/>
  <path class="st15" d="M603.4,617.1l4.3,31.5,15.3-14.4-4.6-30.3-15,13.3Z"/>
  <path class="st12" d="M603.4,617.1l4.3,31.5,15.3-14.4-4.6-30.3-15,13.3Z"/>
  <path class="st15" d="M570.6,615.7l32.8,1.4,4.3,31.5-33-3.3-4.1-29.6Z"/>
  <path class="st9" d="M570.6,615.7l32.8,1.4,4.3,31.5-33-3.3-4.1-29.6Z"/>
  <path class="st15" d="M570.6,615.7l17.7-11.2,30.1-.6-15,13.3-32.8-1.4Z"/>
  <path class="st4" d="M570.6,615.7l17.7-11.2,30.1-.6-15,13.3-32.8-1.4Z"/>
  <path class="st2" d="M597.3,589.1h.9s2.5,19.1,2.5,19.1l-1,.2-2.3-19.3Z"/>
  <path class="st4" d="M597.3,589.1h.3s2.3,19.3,2.3,19.3h-.4c0,0-2.3-19.3-2.3-19.3Z"/>
  <path class="st6" d="M598.2,589.1h-.5s2.3,19.3,2.3,19.3h.7c0-.1-2.5-19.3-2.5-19.3Z"/>
  <path class="st2" d="M514.6,641.6l8.8,46.7,13-9.7-7.8-45.1-14.1,8.1Z"/>
  <path class="st6" d="M514.6,641.6l8.8,46.7,13-9.7-7.8-45.1-14.1,8.1Z"/>
  <path class="st4" d="M514.9,641.7l8.8,46.4,12.8-9.5-7.7-44.7-13.8,7.9Z"/>
  <path class="st2" d="M529.3,633.1l7.9,45,12.4-9-7.3-43.5-13,7.6Z"/>
  <path class="st6" d="M529.3,633.1l7.9,45,12.4-9-7.3-43.5-13,7.6Z"/>
  <path class="st4" d="M529.7,633.3l7.9,44.6,12.1-8.8-7.2-43.2-12.7,7.5Z"/>
  <path class="st2" d="M542.9,625.3l7.2,43.2,11.4-8-6.5-41.9-12,6.8Z"/>
  <path class="st6" d="M542.9,625.3l7.2,43.2,11.4-8-6.5-41.9-12,6.8Z"/>
  <path class="st4" d="M543.2,625.4l7.2,42.8,11.1-7.8-6.4-41.6-11.8,6.5Z"/>
  <path class="st2" d="M555.3,618l6.4,42.2,10.7-7.8-6.1-40.7-11,6.3Z"/>
  <path class="st6" d="M555.3,618l6.4,42.2,10.7-7.8-6.1-40.7-11,6.3Z"/>
  <path class="st4" d="M555.6,618.1l6.4,41.8,10.5-7.6-6.1-40.4-10.8,6.2Z"/>
  <path class="st2" d="M587.1,625.3l.8,5-16.2,13.1-3-20.9,18.4,2.8Z"/>
  <path class="st6" d="M587.1,625.3l.8,5-16.2,13.1-3-20.9,18.4,2.8Z"/>
  <path class="st4" d="M587.1,625.7l.7,4.6-15.9,12.9-2.9-20.4,18.1,2.9Z"/>
  <path class="st2" d="M619.8,605.5l-.3,41.2c-5.8.2-12.7-12.8-13.2-22.1.4-9.5,7.9-18.1,13.5-19.1Z"/>
  <g class="st13">
    <path d="M619.5,643.4v1.8c-6.4-1.8-12.1-13.5-13.2-20.6,3.5,14.6,13.2,18.8,13.2,18.8Z"/>
  </g>
  <g class="st19">
    <path class="st3" d="M619.8,605.5l-.3,41.2c-5.8.2-12.7-12.8-13.2-22.1.4-9.5,7.9-18.1,13.5-19.1Z"/>
  </g>
  <path class="st6" d="M606.8,623c3.7-9.5,8-13,12.9-14.1v-1.7c-5.6,2.2-9.9,6-12.9,15.7Z"/>
  <path class="st15" d="M610.9,625.8c-.4,11.4,3.1,20.8,7.9,21,4.8.2,9-8.9,9.4-20.3.4-11.4-3.1-20.8-7.9-21-4.8-.2-9,8.9-9.4,20.3Z"/>
  <path class="st4" d="M610.9,625.8c-.4,11.4,3.1,20.8,7.9,21,4.8.2,9-8.9,9.4-20.3.4-11.4-3.1-20.8-7.9-21-4.8-.2-9,8.9-9.4,20.3Z"/>
  <path class="st12" d="M610.8,625.4c0,2.2,0,4.5.4,6.7.1.9.5,1.6,1.1,2.3.6.6,1.4,1,2.3,1.1,2.3.1,4.3-4.3,4.5-9.8.2-5.5-1.5-10-3.8-10.1-1.4,0-3.1,1.4-3.7,3.8-.5,2-.8,4-.9,6Z"/>
  <path class="st2" d="M621.6,623.5l-5.6.6-4.1-1.4c-.5.5-.8,1.2-.9,2,0,.7.2,1.5.6,2.1l4.1-.7,5.6,2.1.2-4.6Z"/>
  <path class="st6" d="M621.6,623.5l-5.6.6-4.1-1.4c-.5.5-.8,1.2-.9,2,0,.7.2,1.5.6,2.1l4.1-.7,5.6,2.1.2-4.6Z"/>
  <path class="st2" d="M620.5,625.7c0,1.3.3,2.3.9,2.3.5,0,1-1,1-2.3,0-1.3-.3-2.3-.9-2.3-.5,0-1,1-1,2.2Z"/>
  <path class="st4" d="M620.5,625.7c0,1.3.3,2.3.9,2.3.5,0,1-1,1-2.3,0-1.3-.3-2.3-.9-2.3-.5,0-1,1-1,2.2Z"/>
  <path class="st12" d="M611,624.5c0,.8.2,1.5.6,2.1l4.1-.7,5.6,2.1c-.6-.1-1-1.6-.9-2.5,0,0-1.8-.1-9.5-1Z"/>
  <path class="st6" d="M621.2,623.6l-5.3.7-4.3-1.4v.2c-.1,0,4.2,1.3,4.2,1.3l5.1-.5.2-.2Z"/>
  <g class="st13">
    <path d="M620.8,625.7c0,1.1.3,2,.7,2,.4,0,.9-.8.9-1.9s-.3-2-.7-2c-.5,0-.9.8-.9,1.9Z"/>
    <path class="st11" d="M620.8,625.7c0,1.1.3,2,.7,2,.4,0,.9-.8.9-1.9s-.3-2-.7-2c-.5,0-.9.8-.9,1.9Z"/>
  </g>
  <path class="st2" d="M620.7,643.1l.4.2,9.3-12.8-.3-.2-9.4,12.8Z"/>
  <path class="st7" d="M620.7,643.1l.4.2,9.3-12.8-.3-.2-9.4,12.8Z"/>
  <path class="st2" d="M624.8,611.1l.3-.2,6.2,10.8-.4.2-6.1-10.9Z"/>
  <path class="st7" d="M624.8,611.1l.3-.2,6.2,10.8-.4.2-6.1-10.9Z"/>
  <path class="st2" d="M611.5,621.6l19.8.2v.4c0,0-20,0-20,0v-.4Z"/>
  <path class="st7" d="M611.5,621.6l19.8.2v.4c0,0-20,0-20,0v-.4Z"/>
  <path class="st2" d="M611.3,623v-.5c0,0,18.9,7.5,18.9,7.5v.4s-18.9-7.4-18.9-7.4Z"/>
  <path class="st7" d="M611.3,623v-.5c0,0,18.9,7.5,18.9,7.5v.4s-18.9-7.4-18.9-7.4Z"/>
  <path class="st2" d="M629.1,626.4c0,2.6.7,4.7,1.8,4.7,1.1,0,2-2,2.1-4.6,0-2.6-.7-4.7-1.8-4.7-1.1,0-2,2-2.1,4.6Z"/>
  <path class="st6" d="M629.1,626.4c0,2.6.7,4.7,1.8,4.7,1.1,0,2-2,2.1-4.6,0-2.6-.7-4.7-1.8-4.7-1.1,0-2,2-2.1,4.6Z"/>
  <path class="st10" d="M629.5,626.4c-.1,2.3.6,4.2,1.6,4.2,1,0,1.8-1.8,1.9-4.1,0-2.3-.6-4.2-1.6-4.2-1,0-1.8,1.8-1.9,4.1Z"/>
  <path class="st12" d="M587.8,630.3l-13.1,15-.6-4,13.7-11Z"/>
</svg>