<?xml version="1.0" encoding="UTF-8"?>
<svg id="Layer_1" xmlns="http://www.w3.org/2000/svg" version="1.1" xmlns:xlink="http://www.w3.org/1999/xlink" viewBox="0 0 490 474">
  <!-- Generator: Adobe Illustrator 29.2.1, SVG Export Plug-In . SVG Version: 2.1.0 Build 116)  -->
  <defs>
    <style>
      .st0 {
        fill: #fff;
        fill-opacity: .4;
      }

      .st1 {
        fill: #007aff;
      }

      .st2 {
        fill: #2f2e41;
      }

      .st3 {
        fill: #263238;
      }

      .st4 {
        fill: #f0ebf7;
        fill-opacity: .5;
      }

      .st5 {
        fill: none;
      }

      .st6 {
        fill: #3f3d56;
      }

      .st7 {
        fill: #407bff;
      }

      .st8 {
        fill: #076cf8;
      }

      .st9 {
        fill: #559cff;
      }

      .st10 {
        fill: #a0616a;
      }

      .st11 {
        fill: #ccc;
      }

      .st12 {
        clip-path: url(#clippath);
      }
    </style>
    <clipPath id="clippath">
      <rect class="st5" y="0" width="490" height="473.3"/>
    </clipPath>
  </defs>
  <g class="st12">
    <g>
      <rect class="st5" x="33.3" y="4.5" width="421.7" height="421.7" rx="210.8" ry="210.8"/>
      <path class="st8" d="M245,17.7c-110.5,0-200.2,89.6-200.2,200.2s89.6,200.2,200.2,200.2,200.2-89.6,200.2-200.2S355.5,17.7,245,17.7ZM245,326.3c-59.9,0-108.4-48.5-108.4-108.4s48.5-108.4,108.4-108.4,108.4,48.5,108.4,108.4-48.5,108.4-108.4,108.4Z"/>
      <path class="st9" d="M266.9,156.2v62.2l-42-62.9c-24.9,7.9-43.4,30.3-45.7,57.2v11c2.2,26.3,19.8,48.2,43.8,56.6v-62l41.7,62.6c26.6-8.4,45.9-33.4,45.9-62.8s-18.3-53-43.8-62.1Z"/>
      <rect class="st0" x="33.3" y="4.5" width="421.7" height="421.7" rx="210.8" ry="210.8"/>
      <path class="st4" d="M245,472.8c89.3,0,161.7-72.4,161.7-161.7s-72.4-161.7-161.7-161.7-161.7,72.4-161.7,161.7,72.4,161.7,161.7,161.7Z"/>
      <path class="st7" d="M178.1,72.4s-29.8-12.4-57.1,7.2c-15.8,11.4-25.9,37.5-61.3,27.4,0,0,32.3,35.9,53.4,31.4,21.1-4.5,16.9-16.4,59.7-4.7l5.3-61.2Z"/>
      <path class="st3" d="M180,69.6l-4-.3-25.8,404,4,.3,25.8-404Z"/>
      <path class="st1" d="M220.2,242.7c15.1-8.3,33.8-6.6,50-1,16.2,5.7,30.9,14.9,46.7,21.8,48.2,21,106.2,17.6,151.6-8.8,4.3,10-.3,21.4-5.4,31-5.1,9.6-10.8,20.1-8.7,30.7,2.7,13.7,17,21.8,22.8,34.5,5.5,12,2.6,26.1-1.7,38.6-4.2,12.5-9.7,25.1-9,38.3.7,13.2,10.3,27.1,23.5,27.1-19.6,3-39.5,6.1-59.1,3-19.6-3.1-39-13.5-48.1-31.1-4.5-8.8-6.3-18.9-11.5-27.3-8.9-14.3-25.9-21.1-42-26.2-16.1-5.1-33.3-10-44.6-22.5-10.8-11.9-14.2-28.5-19.9-43.5-9.6-25.1-26.3-46.9-48.1-62.8"/>
      <path class="st2" d="M237.6,180.3c-5.3-2.5-11.8-3.3-17.2-1-5.4,2.3-9,8.1-7.3,13.3.8,2.4,2.6,4.7,1.9,7-.5,1.8-2.4,3-4.3,3.9-1.8.9-3.9,1.6-5.2,3-1.3,1.4-1.6,3.9,0,5.1.6.4,1.2.5,1.8.9.5.4.8.9.9,1.4.2.6.1,1.2,0,1.7-.4,1.1-1.2,2.1-2.1,2.8-1.9,1.6-4.4,3.5-3.8,5.8.2.6.6,1.2,1.1,1.6.5.4,1.1.8,1.7,1,1.3.4,2.7.6,4,.5l55.8,1.8c1.8.1,3.7,0,5.5-.3.9-.2,1.7-.5,2.5-1,.7-.5,1.4-1.2,1.9-1.9,1.1-2,.4-4.4-1-6.3-1.3-1.8-3.2-3.3-4.7-5s-2.8-3.8-2.5-6c.2-1.8,1.4-3.3,2.2-4.9.8-1.6,1.3-3.6.2-5.1-1.5-2.1-5.2-1.9-6.9-3.8-1.3-1.5-1-3.5-1.2-5.4-.3-4.5-3.4-8.8-7.9-10.8-2.3-1-4.7-1.4-7.2-1.2-2.5.2-4.8.9-6.9,2.2l-1.4.5Z"/>
      <path class="st10" d="M202.4,463.6l-8.7-2.6,6-35,12.9,3.9-10.1,33.7Z"/>
      <path class="st2" d="M202,472.7l-28.2-8.5v-.4c.5-1.4,1.3-2.8,2.2-4,1-1.2,2.1-2.1,3.4-2.8,1.3-.7,2.8-1.2,4.3-1.3,1.5-.2,3,0,4.5.4l17.2,5.2-3.4,11.3Z"/>
      <path class="st10" d="M284.9,463.9h-9.1s-4.3-35.2-4.3-35.2h13.5s0,35.2,0,35.2Z"/>
      <path class="st2" d="M287.2,472.7h-29.4v-.4c0-1.5.3-3,.9-4.4.6-1.4,1.4-2.7,2.5-3.7,1.1-1.1,2.3-1.9,3.7-2.5,1.4-.6,2.9-.9,4.4-.9h18s0,11.8,0,11.8Z"/>
      <path class="st2" d="M272.2,437.2c-.8,0-1.6-.3-2.2-.8-.6-.5-1-1.2-1.1-2l-13.6-84.6c0-.6-.4-1.1-.8-1.5-.4-.4-.9-.6-1.5-.7-.6,0-1.1,0-1.6.3-.5.3-.9.7-1.1,1.2l-35.1,84.6c-.3.8-.9,1.4-1.7,1.8-.8.4-1.6.4-2.4.1l-12.7-4.2c-.8-.3-1.5-.8-1.9-1.5-.4-.7-.5-1.6-.3-2.4l28.8-127.4c.1-.6.5-1.2.9-1.6.4-.4,1-.8,1.6-.9l38.6-9c.5-.1,1-.1,1.4,0,.5,0,.9.3,1.3.6,25.4,18.5,23.3,78.9,18.5,144.4,0,.8-.4,1.6-1,2.2-.6.6-1.4.9-2.2.9l-11.8.5s0,0-.1,0Z"/>
      <path class="st10" d="M239.7,228.8c10.1,0,18.3-8.2,18.3-18.3s-8.2-18.3-18.3-18.3-18.3,8.2-18.3,18.3,8.2,18.3,18.3,18.3Z"/>
      <path class="st6" d="M240.5,305.3c-4.4,0-8.7-1-12.7-2.9h-.1c0,0,0-.2,0-.2l-16.4-42.5-.3-7.4c-.1-2.5.3-4.9,1.2-7.2.9-2.3,2.3-4.4,4-6.1s3.9-3.1,6.2-4c2.3-.9,4.8-1.3,7.3-1.1l17.4,1c4.5.3,8.7,2.2,11.8,5.5,3.1,3.3,4.8,7.6,4.9,12.1.5.9,3.7,7.7-2.6,14.1-.2,1.5-2.4,16.6,5.9,24.9l.2.2-.2.3c-.1.2-10.8,13.5-26.5,13.5Z"/>
      <path class="st10" d="M265,308.5c1-.4,2-1,2.7-1.7.8-.8,1.4-1.7,1.7-2.7.4-1,.5-2.1.4-3.2,0-1.1-.4-2.1-1-3.1l17.4-20.2-13.7-1.8-14.4,19.4c-1.5,1-2.6,2.6-3.1,4.4-.5,1.8-.3,3.7.6,5.3.8,1.6,2.3,2.9,4,3.6,1.7.7,3.6.7,5.4,0Z"/>
      <path class="st6" d="M275.8,293c-.7,0-1.3-.2-1.8-.6l-8.6-5.6c-.7-.5-1.2-1.2-1.4-2-.2-.8,0-1.7.4-2.5l6.2-10.5c.3-.6.6-1.2.6-1.9,0-.7,0-1.3-.2-1.9-.2-.6-.5-1.2-1-1.7s-1-.9-1.6-1.2l-17.9-8c-2.2-1-4-2.7-5.1-4.9-1.1-2.2-1.4-4.6-.9-7,.3-1.6,1-3.1,2-4.4,1-1.3,2.3-2.3,3.8-3,1.5-.7,3.1-1.1,4.7-1,1.6,0,3.2.4,4.7,1.2l27.2,13.9c1.8.9,3.4,2.3,4.7,3.9,1.3,1.6,2.2,3.5,2.7,5.5.5,2,.5,4.1.1,6.1-.4,2-1.2,3.9-2.4,5.6l-13.4,18.6c-.3.4-.7.8-1.2,1-.5.2-1,.4-1.5.4Z"/>
      <path class="st2" d="M221,207.9c5.8-.5,10.6-6.2,10-12,0,2.4.7,4.7,2.3,6.5,1.5,1.8,3.7,3,6,3.4,2.7.3,5.6-.5,7.9.8,2.6,1.5,3.4,5.1,6,6.4,2.6,1.2,5.8-.5,7.1-3,1.3-2.6,1-5.6.1-8.4-1.2-3.9-3.4-7.4-6.3-10.2-3-2.8-6.6-4.8-10.5-5.7-4-1-8.1-.9-12,.2-3.9,1.1-7.5,3.2-10.4,6.1-2.4,2.4-4.4,5.6-4.7,9s1.3,7.2,4.4,8.7l.2-1.7Z"/>
      <path class="st10" d="M178.4,157.2c1,.5,1.8,1.2,2.5,2.1.7.9,1.1,1.9,1.3,3,.2,1.1.2,2.2,0,3.2-.3,1.1-.7,2.1-1.4,2.9l14.3,22.5-13.8-.2-11.4-21.3c-1.4-1.2-2.2-2.9-2.4-4.8-.2-1.8.3-3.7,1.4-5.2,1.1-1.5,2.7-2.6,4.4-3,1.8-.4,3.7-.2,5.3.7Z"/>
      <path class="st6" d="M189.9,173.2l18.4,43.4,19.3,32.7c.8,1.4,1.3,2.9,1.4,4.5.1,1.6-.1,3.2-.7,4.7-.6,1.5-1.5,2.8-2.7,3.9-1.2,1.1-2.6,1.9-4.1,2.4-2.4.7-5,.6-7.4-.5-2.3-1-4.2-2.9-5.3-5.2l-37.1-79.4c-.2-.4-.3-.9-.3-1.4,0-.5,0-.9.3-1.4.2-.4.5-.8.8-1.1.4-.3.8-.6,1.2-.7l12-3.9c.2,0,.5-.1.7-.1.7,0,1.4,0,2,.5.6.4,1.1.9,1.4,1.6Z"/>
      <path class="st11" d="M362.2,473.3H-200.9c-.2,0-.4,0-.5-.2-.1-.1-.2-.3-.2-.5s0-.4.2-.5c.1-.1.3-.2.5-.2H362.2c.2,0,.4,0,.5.2.1.1.2.3.2.5s0,.4-.2.5c-.1.1-.3.2-.5.2Z"/>
      <path class="st1" d="M243.7,80.6v61.1c0,.2,0,.4-.2.5-.1.1-.3.2-.5.2s-.4,0-.5-.2c-.1-.1-.2-.3-.2-.5v-61.1c0-.2,0-.4.2-.5.1-.1.3-.2.5-.2s.4,0,.5.2c.1.1.2.3.2.5Z"/>
      <path class="st1" d="M308.4,132.5l-21.1,21.1c-.1.1-.3.2-.5.2s-.4,0-.5-.2c-.1-.1-.2-.3-.2-.5,0-.2,0-.4.2-.5l21.1-21.1c0,0,.2-.1.2-.2,0,0,.2,0,.3,0s.2,0,.3,0c0,0,.2,0,.2.2,0,0,.1.2.2.2,0,0,0,.2,0,.3,0,0,0,.2,0,.3,0,0,0,.2-.2.2Z"/>
      <path class="st1" d="M177.5,132.5l21.1,21.1c.1.1.3.2.5.2s.4,0,.5-.2c.1-.1.2-.3.2-.5s0-.4-.2-.5l-21.1-21.1c0,0-.2-.1-.2-.2,0,0-.2,0-.3,0s-.2,0-.3,0c0,0-.2,0-.2.2,0,0-.1.2-.2.2,0,0,0,.2,0,.3s0,.2,0,.3c0,0,0,.2.2.2Z"/>
    </g>
  </g>
</svg>