<svg width="49" height="48" viewBox="0 0 49 48" fill="none" xmlns="http://www.w3.org/2000/svg">
<path d="M32.4764 10V14M32.4764 22V26M32.4764 34V38M8.63806 10C6.40661 10 4.59766 11.7909 4.59766 14V20C6.82911 20 8.63806 21.7909 8.63806 24C8.63806 26.2091 6.82911 28 4.59766 28V34C4.59766 36.2091 6.40661 38 8.63806 38H40.5573C42.7887 38 44.5977 36.2091 44.5977 34V28C42.3662 28 40.5573 26.2091 40.5573 24C40.5573 21.7909 42.3662 20 44.5977 20V14C44.5977 11.7909 42.7887 10 40.5573 10H8.63806Z" stroke="#007AFF" stroke-width="3" stroke-linecap="round" stroke-linejoin="round"/>
<path d="M21.5266 17.425C21.9553 17.7343 22.191 18.0763 22.4265 18.5358C22.4564 18.5923 22.4864 18.6489 22.5173 18.7072C22.6337 18.9271 22.7486 19.1477 22.8629 19.3686C22.9323 19.5023 23.0026 19.6355 23.0732 19.7686C23.0931 19.8082 23.113 19.8478 23.1335 19.8886C23.2445 20.0986 23.2445 20.0986 23.4368 20.2356C23.6365 20.2949 23.835 20.3242 24.0415 20.3495C24.128 20.3609 24.2144 20.3723 24.3008 20.3837C24.4353 20.4011 24.5698 20.4183 24.7044 20.4351C25.6225 20.551 26.4831 20.7051 27.1029 21.43C27.5694 22.0488 27.6414 22.6862 27.5779 23.4321C27.4096 24.2242 26.7602 24.7373 26.1859 25.2796C26.0762 25.3835 25.9665 25.4876 25.857 25.5918C25.7893 25.6562 25.7214 25.7205 25.6533 25.7846C25.4837 25.9415 25.4837 25.9415 25.3566 26.1296C25.3648 26.5214 25.4287 26.9071 25.5034 27.2915C25.675 28.1752 25.858 29.1205 25.3228 29.9203C24.9361 30.4261 24.4302 30.8282 23.7783 30.9627C23.6019 30.9775 23.4255 30.9782 23.2485 30.9802C23.202 30.9818 23.1555 30.9835 23.1075 30.9852C22.4576 30.9917 21.9233 30.7011 21.3706 30.4007C21.1603 30.2877 20.9496 30.1753 20.7386 30.0635C20.6953 30.04 20.652 30.0165 20.6074 29.9924C20.5479 29.9615 20.5479 29.9615 20.4872 29.93C20.4536 29.9122 20.4199 29.8944 20.3853 29.876C20.1471 29.7982 19.9663 29.8204 19.7359 29.9116C19.6712 29.9451 19.6065 29.9787 19.5398 30.0132C19.5043 30.0312 19.4689 30.0493 19.4323 30.0679C19.3194 30.1255 19.2069 30.184 19.0945 30.2426C17.5988 31.0159 17.5988 31.0158 16.9646 30.9943C16.9168 30.9933 16.8691 30.9923 16.8199 30.9913C16.1234 30.9652 15.6338 30.7144 15.1415 30.2474C14.7433 29.8283 14.519 29.3117 14.5168 28.7428C14.5164 28.68 14.5164 28.68 14.5161 28.6159C14.5265 28.0858 14.6317 27.5648 14.7306 27.0447C14.7438 26.9748 14.757 26.9049 14.7707 26.8329C14.7829 26.7705 14.7952 26.7081 14.8078 26.6438C14.8653 26.3224 14.8653 26.3224 14.7699 26.0215C14.7383 25.9897 14.7067 25.9578 14.6741 25.925C14.6366 25.8869 14.5992 25.8487 14.5606 25.8094C14.2523 25.5144 13.9417 25.2213 13.6259 24.9337C13.098 24.4518 12.6453 23.9415 12.5994 23.2106C12.5794 22.4117 12.7296 21.7972 13.2997 21.1876C13.9471 20.5885 14.8053 20.5399 15.6529 20.4219C15.8934 20.3883 16.1332 20.3525 16.3727 20.3131C16.4791 20.2965 16.4791 20.2965 16.5876 20.2797C16.8667 20.199 16.9685 20.0548 17.1069 19.812C17.1447 19.7361 17.1821 19.66 17.2192 19.5838C17.2613 19.5 17.3034 19.4162 17.3456 19.3324C17.4107 19.2017 17.4755 19.0708 17.5398 18.9396C17.9368 18.1326 18.357 17.5054 19.24 17.1363C20.04 16.8632 20.8185 17.0214 21.5266 17.425ZM19.6279 19.1048C19.5459 19.2417 19.4761 19.3714 19.4092 19.5146C19.3898 19.5543 19.3704 19.5939 19.3505 19.6348C19.2888 19.7611 19.2281 19.8877 19.1676 20.0145C18.3947 21.6319 18.3947 21.6319 17.4911 21.9718C16.9481 22.1548 16.3635 22.1982 15.7953 22.2676C15.6431 22.2864 15.4912 22.3067 15.3392 22.3272C15.2929 22.3324 15.2466 22.3376 15.1988 22.343C14.9732 22.3741 14.848 22.4116 14.6569 22.5387C14.5367 22.7094 14.4934 22.8281 14.5084 23.0357C14.5756 23.264 14.751 23.4004 14.9285 23.5563C14.9877 23.6114 14.9877 23.6114 15.0482 23.6675C15.1745 23.7845 15.3021 23.8999 15.4301 24.0151C16.4769 24.964 16.4769 24.964 16.6467 25.4552C16.672 25.5248 16.6974 25.5943 16.7234 25.666C16.8583 26.2817 16.7404 26.9167 16.6175 27.524C16.4828 28.171 16.4828 28.171 16.4714 28.8271C16.6243 29.0232 16.7446 29.1294 16.9974 29.1643C17.1518 29.1082 17.2925 29.0487 17.4395 28.9781C17.4827 28.9581 17.5259 28.9381 17.5704 28.9174C17.8106 28.8047 18.0474 28.6868 18.283 28.5654C18.3313 28.5406 18.3795 28.5158 18.4292 28.4902C18.5218 28.4422 18.614 28.3937 18.7059 28.3446C19.1473 28.1142 19.5877 27.9596 20.0956 27.9631C20.1595 27.9626 20.2234 27.9622 20.2892 27.9617C20.9493 28.0303 21.4991 28.343 22.0758 28.6374C22.2069 28.7041 22.3382 28.7705 22.4695 28.8367C22.5508 28.8777 22.6318 28.9189 22.7127 28.9604C22.9706 29.0962 22.9706 29.0962 23.2522 29.1643C23.4801 29.0766 23.5821 29.0256 23.7198 28.8271C23.7594 28.3127 23.6332 27.8181 23.5314 27.3154C23.4183 26.7261 23.3251 26.1003 23.5225 25.5184C23.5402 25.4629 23.5578 25.4075 23.576 25.3503C23.7679 24.9546 24.0767 24.6482 24.4044 24.3523C24.4779 24.2842 24.5513 24.216 24.6247 24.1477C24.7389 24.0421 24.8534 23.9369 24.9688 23.8326C25.0813 23.7305 25.1923 23.6271 25.3031 23.5234C25.3378 23.4927 25.3725 23.462 25.4083 23.4304C25.5773 23.27 25.672 23.1532 25.6887 22.9206C25.6646 22.6999 25.6646 22.6999 25.5342 22.5387C25.3065 22.3872 25.1229 22.3577 24.8519 22.3272C24.8033 22.3206 24.7546 22.3141 24.7045 22.3073C24.5493 22.2866 24.394 22.2674 24.2386 22.2484C22.3836 22.0156 22.3836 22.0156 21.7016 21.2361C21.5658 21.0656 21.4642 20.8835 21.3633 20.6924C21.3413 20.6519 21.3194 20.6114 21.2967 20.5696C21.1748 20.3425 21.0597 20.1131 20.9489 19.8808C20.9144 19.8088 20.9144 19.8088 20.8792 19.7353C20.8351 19.6425 20.7918 19.5493 20.7493 19.4558C20.6291 19.2013 20.5269 19.0312 20.2709 18.88C19.969 18.8316 19.8444 18.9067 19.6279 19.1048Z" fill="#007AFF"/>
</svg>
