<svg width="49" height="48" viewBox="0 0 49 48" fill="none" xmlns="http://www.w3.org/2000/svg">
<path d="M18.2908 4.14749C18.6095 4.42871 18.8774 4.70522 19.0143 5.11595C19.0143 5.64493 19.0143 6.17391 19.0143 6.71892C23.0698 6.71892 27.1253 6.71892 31.3037 6.71892C31.3037 6.18994 31.3037 5.66096 31.3037 5.11595C31.7201 4.28331 31.7201 4.28331 32.0944 4.10296C32.5927 3.95616 33.1405 3.95298 33.6136 4.18088C33.9894 4.48764 34.2045 4.83651 34.2708 5.32415C34.2774 5.53788 34.2738 5.74834 34.2648 5.96196C34.2632 6.0352 34.2616 6.10844 34.2599 6.1839C34.2558 6.36228 34.2494 6.54061 34.2425 6.71892C34.3258 6.71705 34.4092 6.71519 34.495 6.71326C36.6353 6.67166 38.3994 6.69655 40.2982 7.78756C40.3728 7.82854 40.4474 7.86953 40.5243 7.91175C42.1188 8.87135 43.196 10.5681 43.6416 12.3444C43.7682 12.9252 43.7969 13.4786 43.7951 14.0717C43.7955 14.1718 43.7959 14.2719 43.7963 14.375C43.7974 14.7083 43.7973 15.0417 43.7971 15.3751C43.7977 15.6149 43.7983 15.8547 43.799 16.0946C43.8004 16.6773 43.8009 17.2601 43.801 17.8429C43.8011 18.3172 43.8015 18.7914 43.802 19.2656C43.8036 20.6128 43.8044 21.96 43.8043 23.3072C43.8043 23.3797 43.8043 23.4523 43.8043 23.527C43.8043 23.5996 43.8043 23.6722 43.8042 23.747C43.8042 24.9224 43.8059 26.0978 43.8084 27.2732C43.811 28.4828 43.8122 29.6923 43.812 30.9018C43.812 31.5798 43.8124 32.2578 43.8144 32.9358C43.816 33.5133 43.8164 34.0908 43.8152 34.6683C43.8146 34.9623 43.8148 35.2563 43.8161 35.5503C43.8226 37.0412 43.8187 38.5371 43.0811 39.8803C43.0506 39.9384 43.02 39.9965 42.9886 40.0563C41.9857 41.9157 40.4169 43.148 38.4088 43.7774C37.37 44.065 36.275 43.993 35.2072 43.9895C34.9635 43.9898 34.7198 43.9906 34.4761 43.9914C33.8856 43.9929 33.2951 43.9926 32.7047 43.9916C32.2243 43.9908 31.744 43.9907 31.2637 43.9911C31.195 43.9911 31.1264 43.9912 31.0557 43.9912C30.9162 43.9913 30.7767 43.9914 30.6372 43.9916C29.3325 43.9926 28.0278 43.9914 26.7231 43.9895C25.6062 43.9879 24.4893 43.9882 23.3723 43.9898C22.0719 43.9917 20.7716 43.9925 19.4712 43.9914C19.3323 43.9913 19.1933 43.9912 19.0544 43.9911C18.9861 43.991 18.9177 43.9909 18.8473 43.9909C18.3681 43.9906 17.889 43.9911 17.4098 43.9919C16.825 43.9929 16.2402 43.9927 15.6554 43.9908C15.3576 43.9898 15.0599 43.9896 14.7621 43.9906C13.2846 43.9951 11.9531 43.9641 10.621 43.2532C10.5621 43.2227 10.5032 43.1921 10.4426 43.1607C8.60303 42.182 7.35575 40.6215 6.74368 38.6397C6.45865 37.5236 6.50864 36.3894 6.51083 35.2454C6.51032 35.0054 6.50971 34.7653 6.50898 34.5253C6.50745 33.9434 6.50737 33.3616 6.50784 32.7797C6.5082 32.3063 6.50807 31.8328 6.50759 31.3594C6.50753 31.2918 6.50746 31.2242 6.50739 31.1545C6.50725 31.017 6.50712 30.8796 6.50698 30.7421C6.50576 29.4561 6.50624 28.1701 6.50726 26.8841C6.50815 25.7104 6.50699 24.5366 6.50486 23.3629C6.50269 22.1545 6.50184 20.946 6.50243 19.7376C6.50274 19.0605 6.50255 18.3833 6.50098 17.7062C6.49966 17.1298 6.49962 16.5534 6.50117 15.9769C6.50192 15.6835 6.50193 15.3901 6.50075 15.0966C6.49162 12.6354 6.94045 10.5861 8.71749 8.77828C9.39093 8.11826 10.1241 7.66893 10.9772 7.2755C11.0302 7.25038 11.0831 7.22525 11.1377 7.19936C12.2637 6.70744 13.4413 6.68172 14.6451 6.70222C14.7849 6.70356 14.9247 6.70478 15.0645 6.70587C15.4015 6.70877 15.7385 6.71335 16.0756 6.71892C16.0714 6.61147 16.0673 6.50402 16.063 6.39331C16.0597 6.24953 16.0564 6.10575 16.0533 5.96196C16.0503 5.89147 16.0473 5.82099 16.0443 5.74837C16.0357 5.22968 16.1306 4.83262 16.4318 4.40352C16.9712 3.96315 17.6383 3.89218 18.2908 4.14749ZM10.3953 11.3441C9.83201 12.0356 9.47561 12.9297 9.47363 13.8236C9.47323 13.9072 9.47284 13.9909 9.47243 14.077C9.47244 14.1681 9.47246 14.2593 9.47248 14.3531C9.47215 14.4505 9.47182 14.5479 9.47148 14.6483C9.4705 14.9752 9.47016 15.3022 9.46982 15.6292C9.46926 15.8634 9.46867 16.0976 9.46805 16.3318C9.46629 17.035 9.46539 17.7383 9.4646 18.4416C9.46421 18.7731 9.46373 19.1047 9.46326 19.4363C9.46175 20.5391 9.46046 21.6419 9.45981 22.7447C9.45964 23.0308 9.45947 23.3168 9.4593 23.6028C9.45925 23.6739 9.45921 23.745 9.45917 23.8182C9.45843 24.9689 9.45617 26.1195 9.45328 27.2701C9.45033 28.4527 9.44873 29.6352 9.44845 30.8178C9.44825 31.4812 9.44748 32.1447 9.4452 32.8082C9.44326 33.3734 9.44255 33.9386 9.44341 34.5038C9.44382 34.7918 9.44346 35.0798 9.44192 35.3678C9.43351 37.0318 9.48577 38.4162 10.6659 39.7109C11.8499 40.8493 13.2179 41.1081 14.7965 41.1056C14.8888 41.1058 14.981 41.106 15.076 41.1062C15.3834 41.1067 15.6908 41.1067 15.9982 41.1066C16.2193 41.1069 16.4404 41.1072 16.6615 41.1075C17.1988 41.1082 17.736 41.1085 18.2733 41.1085C18.7104 41.1086 19.1474 41.1088 19.5844 41.1091C20.8256 41.1098 22.0667 41.1102 23.3078 41.1102C23.408 41.1102 23.408 41.1102 23.5102 41.1102C23.5771 41.1102 23.644 41.1102 23.7129 41.1102C24.7965 41.1101 25.88 41.111 26.9635 41.1122C28.078 41.1135 29.1926 41.1141 30.3071 41.114C30.932 41.114 31.557 41.1143 32.1819 41.1152C32.7699 41.1161 33.3578 41.1161 33.9458 41.1154C34.161 41.1153 34.3762 41.1156 34.5914 41.1161C37.3047 41.1243 37.3047 41.1243 39.5857 39.7579C40.5031 38.7652 40.8604 37.6969 40.8563 36.3661C40.8569 36.2197 40.8569 36.2197 40.8575 36.0703C40.8587 35.7441 40.8585 35.418 40.8584 35.0919C40.8589 34.8576 40.8595 34.6234 40.8602 34.3891C40.8617 33.8194 40.8621 33.2497 40.8622 32.68C40.8623 32.2166 40.8627 31.7532 40.8633 31.2898C40.8648 29.9742 40.8657 28.6586 40.8655 27.3431C40.8655 27.2722 40.8655 27.2014 40.8655 27.1284C40.8655 27.022 40.8655 27.022 40.8655 26.9134C40.8654 25.7645 40.8671 24.6156 40.8696 23.4667C40.8722 22.2854 40.8734 21.1041 40.8733 19.9227C40.8732 19.2601 40.8737 18.5976 40.8756 17.935C40.8772 17.3708 40.8776 16.8066 40.8764 16.2423C40.8758 15.9548 40.876 15.6674 40.8774 15.3799C40.8849 13.6627 40.8027 12.2381 39.5635 10.9267C38.6596 10.0684 37.5966 9.64389 36.3558 9.64899C36.2952 9.64912 36.2345 9.64925 36.172 9.64938C35.9797 9.64987 35.7874 9.65099 35.595 9.65212C35.4641 9.65257 35.3331 9.65298 35.2021 9.65334C34.8822 9.65432 34.5624 9.65586 34.2425 9.65769C34.2392 9.76721 34.2359 9.87672 34.2324 9.98955C34.2266 10.135 34.2207 10.2804 34.2147 10.4258C34.2127 10.4978 34.2107 10.5697 34.2086 10.6439C34.1885 11.0938 34.1148 11.3968 33.8863 11.795C33.8863 11.8538 33.8863 11.9125 33.8863 11.9731C33.3488 12.2511 32.8837 12.293 32.2833 12.2402C32.0106 12.1067 32.0106 12.1067 31.8381 11.9731C31.7793 11.9731 31.7205 11.9731 31.66 11.9731C31.3127 11.1164 31.3675 10.8057 31.3037 9.65769C27.2482 9.65769 23.1927 9.65769 19.0143 9.65769C18.9849 10.1867 18.9556 10.7156 18.9253 11.2607C18.8371 11.437 18.749 11.6133 18.6581 11.795C18.6581 11.8538 18.6581 11.9125 18.6581 11.9731C18.1206 12.2511 17.6555 12.293 17.0552 12.2402C16.7824 12.1067 16.7824 12.1067 16.6099 11.9731C16.5511 11.9731 16.4923 11.9731 16.4318 11.9731C16.2826 11.6051 16.1562 11.2824 16.1364 10.8839C16.1327 10.8125 16.129 10.741 16.1251 10.6674C16.1216 10.5932 16.1181 10.5189 16.1145 10.4425C16.1107 10.3672 16.1068 10.292 16.1029 10.2145C16.0934 10.0289 16.0845 9.84329 16.0756 9.65769C15.7003 9.651 15.3251 9.6462 14.9499 9.64301C14.8227 9.64169 14.6955 9.63987 14.5683 9.63754C12.8443 9.6067 11.5811 10.0571 10.3953 11.3441Z" fill="#007AFF"/>
<path d="M27.342 14.9202C27.9951 15.4103 28.3543 15.9522 28.713 16.6804C28.7586 16.77 28.8043 16.8596 28.8513 16.952C29.0287 17.3004 29.2037 17.6501 29.3778 18.0002C29.4835 18.212 29.5907 18.423 29.6981 18.634C29.7285 18.6967 29.7588 18.7595 29.7901 18.8241C29.9592 19.1569 29.9592 19.1569 30.2521 19.374C30.5563 19.468 30.8587 19.5144 31.1734 19.5545C31.3051 19.5725 31.4368 19.5906 31.5684 19.6087C31.7733 19.6362 31.9782 19.6634 32.1832 19.6901C33.5819 19.8738 34.8931 20.1179 35.8373 21.2667C36.548 22.2472 36.6576 23.2573 36.5609 24.4392C36.3045 25.6944 35.3151 26.5075 34.4403 27.3668C34.2731 27.5316 34.106 27.6964 33.9393 27.8615C33.836 27.9636 33.7326 28.0655 33.6288 28.1672C33.3705 28.4157 33.3705 28.4157 33.1768 28.7138C33.1893 29.3346 33.2867 29.9459 33.4005 30.555C33.6619 31.9553 33.9407 33.4533 33.1253 34.7207C32.5362 35.5221 31.7656 36.1593 30.7724 36.3724C30.5036 36.3959 30.235 36.3971 29.9653 36.4002C29.8944 36.4028 29.8235 36.4054 29.7505 36.4081C28.7604 36.4184 27.9464 35.9579 27.1045 35.4819C26.784 35.3029 26.463 35.1248 26.1416 34.9475C26.0756 34.9103 26.0096 34.8732 25.9417 34.8348C25.851 34.7859 25.851 34.7859 25.7586 34.736C25.7073 34.7078 25.6561 34.6796 25.6033 34.6505C25.2404 34.5273 24.965 34.5624 24.614 34.7069C24.5154 34.76 24.4168 34.8131 24.3153 34.8679C24.2612 34.8965 24.2072 34.9251 24.1515 34.9545C23.9794 35.0458 23.8081 35.1385 23.6369 35.2314C21.3582 36.4567 21.3582 36.4567 20.392 36.4225C20.3193 36.421 20.2466 36.4194 20.1717 36.4178C19.1106 36.3764 18.3647 35.9791 17.6147 35.2391C17.0081 34.5749 16.6663 33.7562 16.6629 32.8548C16.6624 32.7552 16.6624 32.7552 16.6619 32.6536C16.6778 31.8137 16.8381 30.9881 16.9887 30.1639C17.0088 30.0531 17.029 29.9424 17.0497 29.8283C17.0684 29.7294 17.087 29.6305 17.1063 29.5286C17.1939 29.0193 17.1939 29.0193 17.0485 28.5425C17.0004 28.4921 16.9522 28.4416 16.9026 28.3896C16.8455 28.3291 16.7885 28.2687 16.7297 28.2064C16.2601 27.7389 15.7868 27.2745 15.3057 26.8187C14.5015 26.055 13.8119 25.2464 13.7419 24.0882C13.7114 22.8222 13.9402 21.8486 14.8088 20.8826C15.795 19.9332 17.1026 19.8561 18.3938 19.6692C18.7601 19.6159 19.1255 19.5593 19.4904 19.4967C19.6524 19.4705 19.6524 19.4705 19.8177 19.4438C20.2429 19.3159 20.398 19.0875 20.6088 18.7027C20.6665 18.5825 20.7235 18.4619 20.7799 18.3411C20.844 18.2083 20.9082 18.0755 20.9724 17.9428C21.0717 17.7356 21.1704 17.5282 21.2683 17.3203C21.8732 16.0415 22.5133 15.0475 23.8585 14.4627C25.0772 14.0299 26.2633 14.2807 27.342 14.9202ZM24.4495 17.5821C24.3245 17.799 24.2182 18.0046 24.1163 18.2315C24.0868 18.2944 24.0572 18.3572 24.0268 18.4219C23.9329 18.622 23.8404 18.8227 23.7482 19.0236C22.5707 21.5865 22.5707 21.5865 21.1942 22.1252C20.367 22.4151 19.4763 22.484 18.6108 22.5939C18.3789 22.6238 18.1474 22.656 17.9159 22.6884C17.8453 22.6967 17.7747 22.7049 17.702 22.7135C17.3583 22.7627 17.1675 22.8222 16.8764 23.0236C16.6934 23.2941 16.6273 23.4821 16.6501 23.8112C16.7525 24.1728 17.0198 24.389 17.2901 24.6361C17.3804 24.7233 17.3804 24.7233 17.4726 24.8123C17.6649 24.9977 17.8594 25.1806 18.0544 25.3631C19.6492 26.8667 19.6492 26.8667 19.9078 27.6451C19.9464 27.7553 19.9849 27.8655 20.0247 27.9791C20.2301 28.9549 20.0506 29.9611 19.8633 30.9234C19.6581 31.9486 19.6581 31.9486 19.6406 32.9884C19.8737 33.2991 20.0569 33.4673 20.4421 33.5227C20.6773 33.4338 20.8916 33.3394 21.1156 33.2277C21.1814 33.1959 21.2472 33.1642 21.3149 33.1314C21.6808 32.9529 22.0417 32.766 22.4006 32.5737C22.4741 32.5344 22.5476 32.495 22.6234 32.4545C22.7644 32.3785 22.9049 32.3016 23.0449 32.2238C23.7173 31.8586 24.3882 31.6137 25.162 31.6192C25.2593 31.6185 25.3567 31.6178 25.457 31.6171C26.4625 31.7257 27.3002 32.2212 28.1787 32.6878C28.3785 32.7934 28.5784 32.8987 28.7786 33.0036C28.9023 33.0685 29.0258 33.1338 29.1491 33.1996C29.5419 33.4147 29.5419 33.4147 29.9709 33.5227C30.3181 33.3838 30.4736 33.303 30.6833 32.9884C30.7436 32.1732 30.5514 31.3895 30.3963 30.5928C30.224 29.659 30.0819 28.6673 30.3827 27.7453C30.4096 27.6574 30.4365 27.5695 30.4641 27.4789C30.7565 26.8518 31.227 26.3663 31.7262 25.8975C31.8382 25.7895 31.9501 25.6814 32.0619 25.5732C32.2358 25.4059 32.4103 25.2392 32.5861 25.0739C32.7575 24.9122 32.9266 24.7483 33.0954 24.5839C33.1483 24.5353 33.2011 24.4867 33.2556 24.4365C33.5131 24.1824 33.6574 23.9972 33.6828 23.6287C33.6461 23.279 33.6461 23.279 33.4475 23.0236C33.1005 22.7834 32.8209 22.7368 32.408 22.6884C32.3339 22.678 32.2598 22.6676 32.1834 22.6569C31.947 22.624 31.7104 22.5936 31.4737 22.5635C28.6476 22.1945 28.6476 22.1945 27.6087 20.9594C27.4017 20.6893 27.247 20.4006 27.0933 20.0978C27.0598 20.0336 27.0263 19.9694 26.9918 19.9033C26.8061 19.5434 26.6307 19.1799 26.4619 18.8118C26.4094 18.6976 26.4094 18.6976 26.3558 18.5812C26.2886 18.4341 26.2226 18.2864 26.1578 18.1382C25.9748 17.7349 25.819 17.4655 25.4291 17.2258C24.9691 17.1492 24.7793 17.2681 24.4495 17.5821Z" fill="#007AFF"/>
</svg>
