<?xml version="1.0" encoding="UTF-8" standalone="no"?>
<!DOCTYPE svg PUBLIC "-//W3C//DTD SVG 1.1//EN"
 "http://www.w3.org/Graphics/SVG/1.1/DTD/svg11.dtd">
<!-- Generated by graphviz version 2.47.0 (20210316.0004)
 -->
<!-- Title: dependencies Pages: 1 -->
<svg width="1249pt" height="298pt"
 viewBox="0.00 0.00 1249.00 298.00" xmlns="http://www.w3.org/2000/svg" xmlns:xlink="http://www.w3.org/1999/xlink">
<g id="graph0" class="graph" transform="scale(1 1) rotate(0) translate(4 294)">
<title>dependencies</title>
<polygon fill="white" stroke="transparent" points="-4,4 -4,-294 1245,-294 1245,4 -4,4"/>
<text text-anchor="start" x="599.51" y="-42.4" font-family="Times-12" font-weight="bold" font-size="14.00">Legend</text>
<polygon fill="#ffffb3" stroke="transparent" points="386.5,-10 386.5,-30 406.5,-30 406.5,-10 386.5,-10"/>
<text text-anchor="start" x="410.13" y="-15.4" font-family="Times-12" font-size="14.00"> &#160;Declarations</text>
<polygon fill="#8dd3c7" stroke="transparent" points="499.5,-10 499.5,-30 519.5,-30 519.5,-10 499.5,-10"/>
<text text-anchor="start" x="523.23" y="-15.4" font-family="Times-12" font-size="14.00"> &#160;Module</text>
<polygon fill="#80b1d3" stroke="transparent" points="585.5,-10 585.5,-30 605.5,-30 605.5,-10 585.5,-10"/>
<text text-anchor="start" x="609.28" y="-15.4" font-family="Times-12" font-size="14.00"> &#160;Bootstrap</text>
<polygon fill="#fdb462" stroke="transparent" points="682.5,-10 682.5,-30 702.5,-30 702.5,-10 682.5,-10"/>
<text text-anchor="start" x="706.17" y="-15.4" font-family="Times-12" font-size="14.00"> &#160;Providers</text>
<polygon fill="#fb8072" stroke="transparent" points="778.5,-10 778.5,-30 798.5,-30 798.5,-10 778.5,-10"/>
<text text-anchor="start" x="802.23" y="-15.4" font-family="Times-12" font-size="14.00"> &#160;Exports</text>
<g id="clust1" class="cluster">
<title>cluster_AppModule</title>
<polygon fill="none" stroke="black" stroke-dasharray="1,5" points="39,-146 39,-274 567,-274 567,-146 39,-146"/>
</g>
<g id="clust3" class="cluster">
<title>cluster_AppModule_imports</title>
<polygon fill="none" stroke="black" points="185,-154 185,-206 559,-206 559,-154 185,-154"/>
</g>
<g id="clust6" class="cluster">
<title>cluster_AppModule_providers</title>
<polygon fill="none" stroke="black" points="47,-154 47,-206 177,-206 177,-154 47,-154"/>
</g>
<g id="clust7" class="cluster">
<title>cluster_MinioModule</title>
<polygon fill="none" stroke="black" stroke-dasharray="1,5" points="575,-214 575,-282 935,-282 935,-214 575,-214"/>
</g>
<g id="clust10" class="cluster">
<title>cluster_MinioModule_exports</title>
<polygon fill="none" stroke="black" points="781,-222 781,-274 927,-274 927,-222 781,-222"/>
</g>
<g id="clust12" class="cluster">
<title>cluster_MinioModule_providers</title>
<polygon fill="none" stroke="black" points="583,-222 583,-274 773,-274 773,-222 583,-222"/>
</g>
<g id="clust13" class="cluster">
<title>cluster_NFTModule</title>
<polygon fill="none" stroke="black" stroke-dasharray="1,5" points="8,-70 8,-138 442,-138 442,-70 8,-70"/>
</g>
<g id="clust16" class="cluster">
<title>cluster_NFTModule_exports</title>
<polygon fill="none" stroke="black" points="330,-78 330,-130 434,-130 434,-78 330,-78"/>
</g>
<g id="clust18" class="cluster">
<title>cluster_NFTModule_providers</title>
<polygon fill="none" stroke="black" points="16,-78 16,-130 322,-130 322,-78 16,-78"/>
</g>
<g id="clust19" class="cluster">
<title>cluster_PrismaCustomModule</title>
<polygon fill="none" stroke="black" stroke-dasharray="1,5" points="943,-214 943,-282 1233,-282 1233,-214 943,-214"/>
</g>
<g id="clust22" class="cluster">
<title>cluster_PrismaCustomModule_exports</title>
<polygon fill="none" stroke="black" points="1109,-222 1109,-274 1225,-274 1225,-222 1109,-222"/>
</g>
<g id="clust24" class="cluster">
<title>cluster_PrismaCustomModule_providers</title>
<polygon fill="none" stroke="black" points="951,-222 951,-274 1101,-274 1101,-222 951,-222"/>
</g>
<!-- MinioModule -->
<g id="node1" class="node">
<title>MinioModule</title>
<polygon fill="#8dd3c7" stroke="black" points="390.78,-198 387.78,-202 366.78,-202 363.78,-198 297.22,-198 297.22,-162 390.78,-162 390.78,-198"/>
<text text-anchor="middle" x="344" y="-175.8" font-family="Times,serif" font-size="14.00">MinioModule</text>
</g>
<!-- AppModule -->
<g id="node4" class="node">
<title>AppModule</title>
<polygon fill="#8dd3c7" stroke="black" points="331.66,-266 328.66,-270 307.66,-270 304.66,-266 248.34,-266 248.34,-230 331.66,-230 331.66,-266"/>
<text text-anchor="middle" x="290" y="-243.8" font-family="Times,serif" font-size="14.00">AppModule</text>
</g>
<!-- MinioModule&#45;&gt;AppModule -->
<g id="edge1" class="edge">
<title>MinioModule&#45;&gt;AppModule</title>
<path fill="none" stroke="black" d="M314.47,-198.22C314.47,-198.22 314.47,-219.73 314.47,-219.73"/>
<polygon fill="black" stroke="black" points="310.97,-219.73 314.47,-229.73 317.97,-219.73 310.97,-219.73"/>
</g>
<!-- MinioClientService  -->
<g id="node6" class="node">
<title>MinioClientService </title>
<polygon fill="#fb8072" stroke="black" points="918.93,-266 789.07,-266 789.07,-230 918.93,-230 918.93,-266"/>
<text text-anchor="middle" x="854" y="-243.8" font-family="Times,serif" font-size="14.00">MinioClientService </text>
</g>
<!-- MinioModule&#45;&gt;MinioClientService  -->
<g id="edge5" class="edge">
<title>MinioModule&#45;&gt;MinioClientService </title>
<path fill="none" stroke="black" stroke-dasharray="5,2" d="M351.51,-198.19C351.51,-206.28 351.51,-214 351.51,-214 351.51,-214 854,-214 854,-214 854,-214 854,-219.81 854,-219.81"/>
<polygon fill="black" stroke="black" points="850.5,-219.81 854,-229.81 857.5,-219.81 850.5,-219.81"/>
</g>
<!-- NFTModule -->
<g id="node2" class="node">
<title>NFTModule</title>
<polygon fill="#8dd3c7" stroke="black" points="278.99,-198 275.99,-202 254.99,-202 251.99,-198 193.01,-198 193.01,-162 278.99,-162 278.99,-198"/>
<text text-anchor="middle" x="236" y="-175.8" font-family="Times,serif" font-size="14.00">NFTModule</text>
</g>
<!-- NFTModule&#45;&gt;AppModule -->
<g id="edge2" class="edge">
<title>NFTModule&#45;&gt;AppModule</title>
<path fill="none" stroke="black" d="M263.58,-198.22C263.58,-198.22 263.58,-219.73 263.58,-219.73"/>
<polygon fill="black" stroke="black" points="260.08,-219.73 263.58,-229.73 267.08,-219.73 260.08,-219.73"/>
</g>
<!-- NFTService  -->
<g id="node8" class="node">
<title>NFTService </title>
<polygon fill="#fb8072" stroke="black" points="425.92,-122 338.08,-122 338.08,-86 425.92,-86 425.92,-122"/>
<text text-anchor="middle" x="382" y="-99.8" font-family="Times,serif" font-size="14.00">NFTService </text>
</g>
<!-- NFTModule&#45;&gt;NFTService  -->
<g id="edge7" class="edge">
<title>NFTModule&#45;&gt;NFTService </title>
<path fill="none" stroke="black" stroke-dasharray="5,2" d="M257.5,-161.97C257.5,-155.15 257.5,-149 257.5,-149 257.5,-149 364.46,-149 364.46,-149 364.46,-149 364.46,-132.04 364.46,-132.04"/>
<polygon fill="black" stroke="black" points="367.96,-132.04 364.46,-122.04 360.96,-132.04 367.96,-132.04"/>
</g>
<!-- PrismaCustomModule -->
<g id="node3" class="node">
<title>PrismaCustomModule</title>
<polygon fill="#8dd3c7" stroke="black" points="551,-198 548,-202 527,-202 524,-198 409,-198 409,-162 551,-162 551,-198"/>
<text text-anchor="middle" x="480" y="-175.8" font-family="Times,serif" font-size="14.00">PrismaCustomModule</text>
</g>
<!-- PrismaCustomModule&#45;&gt;AppModule -->
<g id="edge3" class="edge">
<title>PrismaCustomModule&#45;&gt;AppModule</title>
<path fill="none" stroke="black" d="M480,-198.27C480,-216.56 480,-242 480,-242 480,-242 341.7,-242 341.7,-242"/>
<polygon fill="black" stroke="black" points="341.7,-238.5 331.7,-242 341.7,-245.5 341.7,-238.5"/>
</g>
<!-- PrismaService  -->
<g id="node11" class="node">
<title>PrismaService </title>
<polygon fill="#fb8072" stroke="black" points="1217.36,-266 1116.64,-266 1116.64,-230 1217.36,-230 1217.36,-266"/>
<text text-anchor="middle" x="1167" y="-243.8" font-family="Times,serif" font-size="14.00">PrismaService </text>
</g>
<!-- PrismaCustomModule&#45;&gt;PrismaService  -->
<g id="edge10" class="edge">
<title>PrismaCustomModule&#45;&gt;PrismaService </title>
<path fill="none" stroke="black" stroke-dasharray="5,2" d="M551.25,-174C727,-174 1167,-174 1167,-174 1167,-174 1167,-219.71 1167,-219.71"/>
<polygon fill="black" stroke="black" points="1163.5,-219.71 1167,-229.71 1170.5,-219.71 1163.5,-219.71"/>
</g>
<!-- AppService -->
<g id="node5" class="node">
<title>AppService</title>
<ellipse fill="#fdb462" stroke="black" cx="112" cy="-180" rx="56.74" ry="18"/>
<text text-anchor="middle" x="112" y="-175.8" font-family="Times,serif" font-size="14.00">AppService</text>
</g>
<!-- AppService&#45;&gt;AppModule -->
<g id="edge4" class="edge">
<title>AppService&#45;&gt;AppModule</title>
<path fill="none" stroke="black" d="M112,-198.22C112,-218.37 112,-248 112,-248 112,-248 238.27,-248 238.27,-248"/>
<polygon fill="black" stroke="black" points="238.27,-251.5 248.27,-248 238.27,-244.5 238.27,-251.5"/>
</g>
<!-- MinioClientService -->
<g id="node7" class="node">
<title>MinioClientService</title>
<ellipse fill="#fdb462" stroke="black" cx="678" cy="-248" rx="87.41" ry="18"/>
<text text-anchor="middle" x="678" y="-243.8" font-family="Times,serif" font-size="14.00">MinioClientService</text>
</g>
<!-- MinioClientService&#45;&gt;MinioModule -->
<g id="edge6" class="edge">
<title>MinioClientService&#45;&gt;MinioModule</title>
<path fill="none" stroke="black" d="M595.38,-254C504.51,-254 371.2,-254 371.2,-254 371.2,-254 371.2,-208.29 371.2,-208.29"/>
<polygon fill="black" stroke="black" points="374.7,-208.29 371.2,-198.29 367.7,-208.29 374.7,-208.29"/>
</g>
<!-- MetaDataService -->
<g id="node9" class="node">
<title>MetaDataService</title>
<ellipse fill="#fdb462" stroke="black" cx="236" cy="-104" rx="78.12" ry="18"/>
<text text-anchor="middle" x="236" y="-99.8" font-family="Times,serif" font-size="14.00">MetaDataService</text>
</g>
<!-- MetaDataService&#45;&gt;NFTModule -->
<g id="edge8" class="edge">
<title>MetaDataService&#45;&gt;NFTModule</title>
<path fill="none" stroke="black" d="M236,-122.01C236,-122.01 236,-151.85 236,-151.85"/>
<polygon fill="black" stroke="black" points="232.5,-151.85 236,-161.85 239.5,-151.85 232.5,-151.85"/>
</g>
<!-- NFTService -->
<g id="node10" class="node">
<title>NFTService</title>
<ellipse fill="#fdb462" stroke="black" cx="82" cy="-104" rx="58.46" ry="18"/>
<text text-anchor="middle" x="82" y="-99.8" font-family="Times,serif" font-size="14.00">NFTService</text>
</g>
<!-- NFTService&#45;&gt;NFTModule -->
<g id="edge9" class="edge">
<title>NFTService&#45;&gt;NFTModule</title>
<path fill="none" stroke="black" d="M97.81,-121.5C97.81,-128.97 97.81,-136 97.81,-136 97.81,-136 214.5,-136 214.5,-136 214.5,-136 214.5,-151.85 214.5,-151.85"/>
<polygon fill="black" stroke="black" points="211,-151.85 214.5,-161.85 218,-151.85 211,-151.85"/>
</g>
<!-- PrismaService -->
<g id="node12" class="node">
<title>PrismaService</title>
<ellipse fill="#fdb462" stroke="black" cx="1026" cy="-248" rx="66.63" ry="18"/>
<text text-anchor="middle" x="1026" y="-243.8" font-family="Times,serif" font-size="14.00">PrismaService</text>
</g>
<!-- PrismaService&#45;&gt;PrismaCustomModule -->
<g id="edge11" class="edge">
<title>PrismaService&#45;&gt;PrismaCustomModule</title>
<path fill="none" stroke="black" d="M1026,-229.73C1026,-211.44 1026,-186 1026,-186 1026,-186 561.1,-186 561.1,-186"/>
<polygon fill="black" stroke="black" points="561.1,-182.5 551.1,-186 561.1,-189.5 561.1,-182.5"/>
</g>
</g>
</svg>
