<svg width="21" height="20" viewBox="0 0 21 20" fill="none" xmlns="http://www.w3.org/2000/svg">
<path d="M13.3118 5.39294L6.78152 8.65807M6.78152 8.65807C6.28899 7.67492 5.27214 7 4.09766 7C2.4408 7 1.09766 8.34315 1.09766 10C1.09766 11.6569 2.4408 13 4.09766 13C5.27214 13 6.28899 12.3251 6.78152 11.3419M6.78152 8.65807C6.98381 9.06185 7.09766 9.51763 7.09766 10C7.09766 10.4824 6.98381 10.9381 6.78152 11.3419M13.3118 14.6071L6.78152 11.3419M19.0977 4C19.0977 5.65685 17.7545 7 16.0977 7C14.4408 7 13.0977 5.65685 13.0977 4C13.0977 2.34315 14.4408 1 16.0977 1C17.7545 1 19.0977 2.34315 19.0977 4ZM19.0977 16C19.0977 17.6569 17.7545 19 16.0977 19C14.4408 19 13.0977 17.6569 13.0977 16C13.0977 14.3431 14.4408 13 16.0977 13C17.7545 13 19.0977 14.3431 19.0977 16Z" stroke="black" stroke-width="2" stroke-linecap="round"/>
</svg>
