<svg width="19" height="15" viewBox="0 0 19 15" fill="none" xmlns="http://www.w3.org/2000/svg">
<path d="M16.571 0.131365C14.1964 1.11486 4.01443 5.33236 1.20115 6.48183C-0.685554 7.2181 0.41895 7.90844 0.41895 7.90844C0.41895 7.90844 2.02948 8.46059 3.41016 8.87476C4.79065 9.28892 5.52692 8.82883 5.52692 8.82883L12.0154 4.45713C14.3162 2.89253 13.7641 4.18095 13.2117 4.7333C12.0154 5.92987 10.0366 7.81638 8.37995 9.33505C7.64367 9.97926 8.01171 10.5314 8.33401 10.8076C9.53038 11.82 12.7978 13.8909 12.9817 14.0289C13.9538 14.7171 15.866 15.7077 16.1568 13.6147L17.3073 6.38996C17.6755 3.9511 18.0435 1.69616 18.0895 1.05195C18.2277 -0.512849 16.571 0.131365 16.571 0.131365Z" fill="black"/>
</svg>
