<svg width="204" height="150" viewBox="0 0 204 150" fill="none" xmlns="http://www.w3.org/2000/svg">
<path d="M45.6006 145.2V135.8C45.6006 115.034 62.4347 98.2002 83.2006 98.2002H120.801C141.566 98.2002 158.401 115.034 158.401 135.8V145.2M130.201 32.4002C130.201 47.9746 117.575 60.6002 102.001 60.6002C86.4262 60.6002 73.8006 47.9746 73.8006 32.4002C73.8006 16.8258 86.4262 4.2002 102.001 4.2002C117.575 4.2002 130.201 16.8258 130.201 32.4002Z" stroke="#007AFF" stroke-width="8" stroke-linecap="round" stroke-linejoin="round"/>
<path d="M51.8403 55.1996C42.4403 55.1996 33.0403 47.9962 33.0403 36.3996C33.0403 24.803 42.4403 17.5996 51.8403 17.5996M4.84033 145.8V118.342C4.84033 100.543 18.8687 86.1139 36.1737 86.1139H51.5003" stroke="#007AFF" stroke-opacity="0.4" stroke-width="8" stroke-linecap="round" stroke-linejoin="round"/>
<path d="M152.16 55.1996C161.56 55.1996 170.96 47.9962 170.96 36.3996C170.96 24.803 161.56 17.5996 152.16 17.5996M199.16 145.8V118.342C199.16 100.543 185.132 86.1139 167.827 86.1139H152.5" stroke="#007AFF" stroke-opacity="0.4" stroke-width="8" stroke-linecap="round" stroke-linejoin="round"/>
</svg>
