<?xml version="1.0" encoding="UTF-8" standalone="no"?>
<!DOCTYPE svg PUBLIC "-//W3C//DTD SVG 1.1//EN"
 "http://www.w3.org/Graphics/SVG/1.1/DTD/svg11.dtd">
<!-- Generated by graphviz version 2.47.0 (20210316.0004)
 -->
<!-- Title: dependencies Pages: 1 -->
<svg width="552pt" height="211pt"
 viewBox="0.00 0.00 552.00 211.00" xmlns="http://www.w3.org/2000/svg" xmlns:xlink="http://www.w3.org/1999/xlink">
<g id="graph0" class="graph" transform="scale(1 1) rotate(0) translate(4 207)">
<title>dependencies</title>
<polygon fill="white" stroke="transparent" points="-4,4 -4,-207 548,-207 548,4 -4,4"/>
<text text-anchor="start" x="251.01" y="-42.4" font-family="Times-12" font-weight="bold" font-size="14.00">Legend</text>
<polygon fill="#ffffb3" stroke="transparent" points="38,-10 38,-30 58,-30 58,-10 38,-10"/>
<text text-anchor="start" x="61.63" y="-15.4" font-family="Times-12" font-size="14.00"> &#160;Declarations</text>
<polygon fill="#8dd3c7" stroke="transparent" points="151,-10 151,-30 171,-30 171,-10 151,-10"/>
<text text-anchor="start" x="174.73" y="-15.4" font-family="Times-12" font-size="14.00"> &#160;Module</text>
<polygon fill="#80b1d3" stroke="transparent" points="237,-10 237,-30 257,-30 257,-10 237,-10"/>
<text text-anchor="start" x="260.78" y="-15.4" font-family="Times-12" font-size="14.00"> &#160;Bootstrap</text>
<polygon fill="#fdb462" stroke="transparent" points="334,-10 334,-30 354,-30 354,-10 334,-10"/>
<text text-anchor="start" x="357.67" y="-15.4" font-family="Times-12" font-size="14.00"> &#160;Providers</text>
<polygon fill="#fb8072" stroke="transparent" points="430,-10 430,-30 450,-30 450,-10 430,-10"/>
<text text-anchor="start" x="453.73" y="-15.4" font-family="Times-12" font-size="14.00"> &#160;Exports</text>
<g id="clust1" class="cluster">
<title>cluster_AppModule</title>
<polygon fill="none" stroke="black" stroke-dasharray="1,5" points="8,-70 8,-195 536,-195 536,-70 8,-70"/>
</g>
<g id="clust3" class="cluster">
<title>cluster_AppModule_imports</title>
<polygon fill="none" stroke="black" points="154,-78 154,-130 528,-130 528,-78 154,-78"/>
</g>
<g id="clust6" class="cluster">
<title>cluster_AppModule_providers</title>
<polygon fill="none" stroke="black" points="16,-78 16,-130 146,-130 146,-78 16,-78"/>
</g>
<!-- MinioModule -->
<g id="node1" class="node">
<title>MinioModule</title>
<polygon fill="#8dd3c7" stroke="black" points="519.78,-122 516.78,-126 495.78,-126 492.78,-122 426.22,-122 426.22,-86 519.78,-86 519.78,-122"/>
<text text-anchor="middle" x="473" y="-99.8" font-family="Times,serif" font-size="14.00">MinioModule</text>
</g>
<!-- AppModule -->
<g id="node4" class="node">
<title>AppModule</title>
<polygon fill="#8dd3c7" stroke="black" points="340.66,-187 337.66,-191 316.66,-191 313.66,-187 257.34,-187 257.34,-151 340.66,-151 340.66,-187"/>
<text text-anchor="middle" x="299" y="-164.8" font-family="Times,serif" font-size="14.00">AppModule</text>
</g>
<!-- MinioModule&#45;&gt;AppModule -->
<g id="edge1" class="edge">
<title>MinioModule&#45;&gt;AppModule</title>
<path fill="none" stroke="black" d="M473,-122.11C473,-141.34 473,-169 473,-169 473,-169 350.68,-169 350.68,-169"/>
<polygon fill="black" stroke="black" points="350.68,-165.5 340.68,-169 350.68,-172.5 350.68,-165.5"/>
</g>
<!-- NFTModule -->
<g id="node2" class="node">
<title>NFTModule</title>
<polygon fill="#8dd3c7" stroke="black" points="407.99,-122 404.99,-126 383.99,-126 380.99,-122 322.01,-122 322.01,-86 407.99,-86 407.99,-122"/>
<text text-anchor="middle" x="365" y="-99.8" font-family="Times,serif" font-size="14.00">NFTModule</text>
</g>
<!-- NFTModule&#45;&gt;AppModule -->
<g id="edge2" class="edge">
<title>NFTModule&#45;&gt;AppModule</title>
<path fill="none" stroke="black" d="M331.42,-122.11C331.42,-122.11 331.42,-140.99 331.42,-140.99"/>
<polygon fill="black" stroke="black" points="327.92,-140.99 331.42,-150.99 334.92,-140.99 327.92,-140.99"/>
</g>
<!-- PrismaCustomModule -->
<g id="node3" class="node">
<title>PrismaCustomModule</title>
<polygon fill="#8dd3c7" stroke="black" points="304,-122 301,-126 280,-126 277,-122 162,-122 162,-86 304,-86 304,-122"/>
<text text-anchor="middle" x="233" y="-99.8" font-family="Times,serif" font-size="14.00">PrismaCustomModule</text>
</g>
<!-- PrismaCustomModule&#45;&gt;AppModule -->
<g id="edge3" class="edge">
<title>PrismaCustomModule&#45;&gt;AppModule</title>
<path fill="none" stroke="black" d="M280.58,-122.11C280.58,-122.11 280.58,-140.99 280.58,-140.99"/>
<polygon fill="black" stroke="black" points="277.08,-140.99 280.58,-150.99 284.08,-140.99 277.08,-140.99"/>
</g>
<!-- AppService -->
<g id="node5" class="node">
<title>AppService</title>
<ellipse fill="#fdb462" stroke="black" cx="81" cy="-104" rx="56.74" ry="18"/>
<text text-anchor="middle" x="81" y="-99.8" font-family="Times,serif" font-size="14.00">AppService</text>
</g>
<!-- AppService&#45;&gt;AppModule -->
<g id="edge4" class="edge">
<title>AppService&#45;&gt;AppModule</title>
<path fill="none" stroke="black" d="M81,-122.11C81,-141.34 81,-169 81,-169 81,-169 247.23,-169 247.23,-169"/>
<polygon fill="black" stroke="black" points="247.23,-172.5 257.23,-169 247.23,-165.5 247.23,-172.5"/>
</g>
</g>
</svg>
