<svg width="240" height="240" viewBox="0 0 240 240" fill="none" xmlns="http://www.w3.org/2000/svg">
<g clip-path="url(#clip0_5589_43068)">
<path d="M48.28 210L48.08 210.2L47.87 210H29.92C27.2881 209.997 24.765 208.95 22.9049 207.088C21.0448 205.226 20 202.702 20 200.07V39.93C20.0183 37.3038 21.069 34.7902 22.9251 32.9322C24.7813 31.0742 27.2938 30.0209 29.92 30H210.08C215.56 30 220 34.45 220 39.93V200.07C219.982 202.696 218.931 205.21 217.075 207.068C215.219 208.926 212.706 209.979 210.08 210H48.28ZM200 150V50H40V190L140 90L200 150ZM200 178.28L140 118.28L68.28 190H200V178.28ZM80 110C74.6957 110 69.6086 107.893 65.8579 104.142C62.1071 100.391 60 95.3043 60 90C60 84.6957 62.1071 79.6086 65.8579 75.8579C69.6086 72.1071 74.6957 70 80 70C85.3043 70 90.3914 72.1071 94.1421 75.8579C97.8929 79.6086 100 84.6957 100 90C100 95.3043 97.8929 100.391 94.1421 104.142C90.3914 107.893 85.3043 110 80 110Z" fill="#8E8E93"/>
</g>
<defs>
<clipPath id="clip0_5589_43068">
<rect width="240" height="240" fill="white"/>
</clipPath>
</defs>
</svg>
