<?xml version="1.0" encoding="utf-8"?>
<svg width="128" height="128" viewBox="0 0 24 24" fill="none" stroke="#0d6efd" stroke-width="2" stroke-linecap="round" stroke-linejoin="round" xmlns="http://www.w3.org/2000/svg">
        <path d="M 11.939 2.152 C 6.092 7.152 1.707 11.152 1.707 15.152 C 1.707 19.152 6.092 22.152 11.939 22.152 C 17.787 22.152 22.172 19.152 22.172 15.152 C 22.172 11.152 17.787 7.152 11.939 2.152 Z" style=""/>
        <path d="M 12.046 6 C 7.497 10 4.767 13 4.767 15 C 4.767 18 8.407 20 12.046 20 C 15.685 20 19.324 18 19.324 15 C 19.324 13 16.595 10 12.046 6 Z" style=""/>
        <path d="M 12.076 9.726 C 9.672 11.726 8.871 13.226 8.871 14.726 C 8.871 16.526 10.473 17.526 12.076 17.726 C 13.678 17.926 15.28 16.526 15.28 14.726 C 15.28 13.226 14.479 11.726 12.076 9.726 Z" style=""/>
</svg>
