<svg width="32" height="33" viewBox="0 0 32 33" fill="none" xmlns="http://www.w3.org/2000/svg">
<g clip-path="url(#clip0_6238_36145)">
<path d="M15.8943 0.5C7.11585 0.5 0 7.61633 0 16.3943C0 25.1722 7.11633 32.2886 15.8943 32.2886C24.6722 32.2886 31.7886 25.1722 31.7886 16.3943C31.7886 7.61633 24.6727 0.5 15.8943 0.5ZM15.8943 25.0054C11.1388 25.0054 7.28367 21.1502 7.28367 16.3948C7.28367 11.6393 11.1388 7.78415 15.8943 7.78415C20.6497 7.78415 24.5049 11.6393 24.5049 16.3948C24.5049 21.1502 20.6497 25.0054 15.8943 25.0054Z" fill="#F3F7FC"/>
<path d="M17.634 11.4939V16.4361L14.3017 11.4375C12.3215 12.0656 10.8533 13.8411 10.675 15.9834V16.8604C10.8486 18.9492 12.249 20.6886 14.1543 21.3566V16.4357L17.4681 21.4059C19.5815 20.735 21.1132 18.7572 21.1132 16.4219C21.1132 14.0866 19.6611 12.2136 17.634 11.4939Z" fill="#D7E4F5"/>
</g>
<defs>
<clipPath id="clip0_6238_36145">
<rect width="32" height="32" fill="white" transform="translate(0 0.5)"/>
</clipPath>
</defs>
</svg>
