<svg width="40" height="40" viewBox="0 0 40 40" fill="none" xmlns="http://www.w3.org/2000/svg">
<path fill-rule="evenodd" clip-rule="evenodd" d="M19.9999 2.08348C16.9532 2.08348 14.4349 2.35182 12.4966 2.67848L12.2732 2.71682C10.5899 2.99848 9.18992 3.23348 8.09492 4.58015C7.39492 5.44515 7.16658 6.38015 7.11492 7.42182L6.29492 7.69515C5.52325 7.95182 4.84492 8.17848 4.30992 8.42848C3.72992 8.69848 3.19825 9.04515 2.79159 9.61015C2.38492 10.1751 2.22325 10.7885 2.14992 11.4235C2.08325 12.0118 2.08325 12.7235 2.08325 13.5385V13.7801C2.08325 14.4501 2.08325 15.0418 2.13325 15.5368C2.18659 16.0718 2.30492 16.5935 2.59992 17.0968C2.89825 17.6018 3.29492 17.9585 3.73825 18.2651C4.14658 18.5485 4.66325 18.8368 5.24992 19.1618L9.64992 21.6068C10.5499 23.3751 11.7849 24.9518 13.4833 26.0901C14.9616 27.0835 16.7366 27.7068 18.8382 27.8718C18.7817 28.0193 18.7518 28.1756 18.7499 28.3335V31.2501H16.3666C15.6923 31.2502 15.0388 31.4838 14.5174 31.9114C13.9959 32.3389 13.6387 32.9339 13.5066 33.5951L13.1416 35.4168H9.99992C9.6684 35.4168 9.35045 35.5485 9.11603 35.7829C8.88161 36.0173 8.74992 36.3353 8.74992 36.6668C8.74992 36.9983 8.88161 37.3163 9.11603 37.5507C9.35045 37.7851 9.6684 37.9168 9.99992 37.9168H29.9999C30.3314 37.9168 30.6494 37.7851 30.8838 37.5507C31.1182 37.3163 31.2499 36.9983 31.2499 36.6668C31.2499 36.3353 31.1182 36.0173 30.8838 35.7829C30.6494 35.5485 30.3314 35.4168 29.9999 35.4168H26.8582L26.4932 33.5951C26.3611 32.9339 26.0039 32.3389 25.4825 31.9114C24.961 31.4838 24.3076 31.2502 23.6332 31.2501H21.2499V28.3335C21.248 28.1756 21.2181 28.0193 21.1616 27.8718C23.2632 27.7051 25.0382 27.0835 26.5166 26.0918C28.2166 24.9518 29.4499 23.3751 30.3499 21.6068L34.7499 19.1618C35.3366 18.8368 35.8532 18.5485 36.2616 18.2651C36.7032 17.9585 37.1016 17.6018 37.3982 17.0985C37.6949 16.5935 37.8149 16.0718 37.8666 15.5368C37.9166 15.0418 37.9166 14.4501 37.9166 13.7801V13.5385C37.9166 12.7251 37.9166 12.0118 37.8499 11.4235C37.7766 10.7885 37.6166 10.1735 37.2082 9.61015C36.8016 9.04515 36.2699 8.69848 35.6916 8.42682C35.1532 8.17682 34.4766 7.95182 33.7049 7.69515L32.8849 7.42182C32.8349 6.37848 32.6066 5.44515 31.9049 4.58015C30.8116 3.23182 29.4116 2.99682 27.7282 2.71682L27.5032 2.67848C25.0231 2.27096 22.5133 2.07193 19.9999 2.08348ZM24.3082 35.4168L24.0416 34.0851C24.0227 33.9907 23.9717 33.9058 23.8973 33.8447C23.8228 33.7836 23.7295 33.7502 23.6332 33.7501H16.3666C16.2703 33.7502 16.177 33.7836 16.1026 33.8447C16.0281 33.9058 15.9771 33.9907 15.9582 34.0851L15.6916 35.4168H24.3082ZM7.14658 10.0468L7.16992 10.0385C7.28992 12.5718 7.57492 15.3718 8.28825 17.9885L6.51158 17.0035C5.86325 16.6418 5.45658 16.4151 5.16325 16.2118C4.89325 16.0235 4.80492 15.9118 4.75658 15.8285C4.70658 15.7451 4.65325 15.6151 4.61992 15.2885C4.58547 14.7681 4.57323 14.2465 4.58325 13.7251V13.6035C4.58325 12.7051 4.58492 12.1368 4.63325 11.7068C4.67992 11.3101 4.75325 11.1618 4.81992 11.0718C4.88492 10.9801 5.00158 10.8635 5.36325 10.6951C5.75658 10.5118 6.29658 10.3318 7.14658 10.0468ZM32.8299 10.0368C32.7116 12.5701 32.4249 15.3701 31.7132 17.9868L33.4882 17.0018C34.1366 16.6401 34.5432 16.4135 34.8366 16.2101C35.1066 16.0218 35.1949 15.9101 35.2432 15.8268C35.2932 15.7435 35.3466 15.6135 35.3799 15.2868C35.4149 14.9301 35.4166 14.4651 35.4166 13.7235V13.6018C35.4166 12.7035 35.4149 12.1351 35.3666 11.7051C35.3199 11.3085 35.2466 11.1601 35.1799 11.0701C35.1149 10.9785 34.9982 10.8618 34.6366 10.6935C34.2432 10.5101 33.7032 10.3285 32.8532 10.0435L32.8299 10.0368ZM12.9132 5.14348C15.2558 4.76001 17.6262 4.5727 19.9999 4.58348C22.8999 4.58348 25.2782 4.83848 27.0866 5.14348C29.0982 5.48348 29.5199 5.61015 29.9649 6.15682C30.4016 6.69348 30.4432 7.20348 30.3532 9.46182C30.2032 13.2251 29.7066 17.2885 28.1699 20.3785C27.4099 21.9018 26.4166 23.1485 25.1249 24.0151C23.8399 24.8768 22.1816 25.4168 19.9999 25.4168C17.8182 25.4168 16.1616 24.8768 14.8766 24.0151C13.5832 23.1485 12.5899 21.9018 11.8316 20.3768C10.2933 17.2885 9.79825 13.2268 9.64825 9.46015C9.55825 7.20348 9.59825 6.69348 10.0366 6.15682C10.4799 5.61015 10.9016 5.48348 12.9132 5.14348Z" fill="#007AFF"/>
<path d="M21.9289 7.42499C22.3576 7.73426 22.5934 8.07628 22.8288 8.53579C22.8588 8.59234 22.8887 8.6489 22.9196 8.70717C23.0361 8.92705 23.1509 9.1477 23.2652 9.36864C23.3346 9.50233 23.405 9.63549 23.4755 9.76864C23.4954 9.80822 23.5153 9.8478 23.5359 9.88858C23.6468 10.0986 23.6468 10.0986 23.8391 10.2356C24.0388 10.2949 24.2373 10.3242 24.4439 10.3495C24.5303 10.3609 24.6167 10.3723 24.7032 10.3837C24.8377 10.4011 24.9722 10.4183 25.1067 10.4351C26.0248 10.551 26.8855 10.7051 27.5053 11.43C27.9718 12.0488 28.0437 12.6862 27.9802 13.4321C27.812 14.2242 27.1625 14.7373 26.5882 15.2796C26.4785 15.3835 26.3689 15.4876 26.2594 15.5918C26.1916 15.6562 26.1237 15.7205 26.0556 15.7846C25.886 15.9415 25.886 15.9415 25.7589 16.1296C25.7671 16.5214 25.8311 16.9071 25.9057 17.2915C26.0773 18.1752 26.2603 19.1205 25.7251 19.9203C25.3384 20.4261 24.8326 20.8282 24.1806 20.9627C24.0042 20.9775 23.8279 20.9782 23.6509 20.9802C23.6043 20.9818 23.5578 20.9835 23.5099 20.9852C22.8599 20.9917 22.3256 20.7011 21.773 20.4007C21.5626 20.2877 21.3519 20.1753 21.1409 20.0635C21.0976 20.04 21.0543 20.0165 21.0097 19.9924C20.9502 19.9615 20.9502 19.9615 20.8895 19.93C20.8559 19.9122 20.8223 19.8944 20.7876 19.876C20.5494 19.7982 20.3687 19.8204 20.1383 19.9116C20.0735 19.9451 20.0088 19.9787 19.9421 20.0132C19.9067 20.0312 19.8712 20.0493 19.8347 20.0679C19.7217 20.1255 19.6093 20.184 19.4969 20.2426C18.0011 21.0159 18.0011 21.0158 17.3669 20.9943C17.3192 20.9933 17.2715 20.9923 17.2223 20.9913C16.5258 20.9652 16.0362 20.7144 15.5438 20.2474C15.1457 19.8283 14.9213 19.3117 14.9191 18.7428C14.9188 18.68 14.9188 18.68 14.9184 18.6159C14.9288 18.0858 15.0341 17.5648 15.133 17.0447C15.1462 16.9748 15.1594 16.9049 15.173 16.8329C15.1853 16.7705 15.1975 16.7081 15.2101 16.6438C15.2677 16.3224 15.2677 16.3224 15.1722 16.0215C15.1406 15.9897 15.109 15.9578 15.0764 15.925C15.039 15.8869 15.0015 15.8487 14.963 15.8094C14.6547 15.5144 14.344 15.2213 14.0282 14.9337C13.5004 14.4518 13.0477 13.9415 13.0017 13.2106C12.9817 12.4117 13.1319 11.7972 13.702 11.1876C14.3494 10.5885 15.2077 10.5399 16.0553 10.4219C16.2957 10.3883 16.5356 10.3525 16.7751 10.3131C16.8814 10.2965 16.8814 10.2965 16.9899 10.2797C17.269 10.199 17.3708 10.0548 17.5092 9.81197C17.5471 9.73611 17.5845 9.66004 17.6215 9.5838C17.6636 9.5 17.7057 9.41622 17.7479 9.33244C17.813 9.20168 17.8778 9.07079 17.9421 8.93963C18.3391 8.13259 18.7593 7.50536 19.6423 7.13632C20.4423 6.86317 21.2209 7.02142 21.9289 7.42499ZM20.0303 9.1048C19.9482 9.24167 19.8784 9.37143 19.8115 9.51465C19.7922 9.5543 19.7728 9.59394 19.7528 9.63479C19.6911 9.76106 19.6304 9.88772 19.5699 10.0145C18.797 11.6319 18.797 11.6319 17.8935 11.9718C17.3505 12.1548 16.7658 12.1982 16.1977 12.2676C16.0455 12.2864 15.8936 12.3067 15.7416 12.3272C15.6952 12.3324 15.6489 12.3376 15.6012 12.343C15.3756 12.3741 15.2503 12.4116 15.0593 12.5387C14.9391 12.7094 14.8958 12.8281 14.9107 13.0357C14.9779 13.264 15.1533 13.4004 15.3308 13.5563C15.3901 13.6114 15.3901 13.6114 15.4506 13.6675C15.5768 13.7845 15.7045 13.8999 15.8325 14.0151C16.8793 14.964 16.8793 14.964 17.0491 15.4552C17.0744 15.5248 17.0997 15.5943 17.1258 15.666C17.2606 16.2817 17.1428 16.9167 17.0198 17.524C16.8851 18.171 16.8851 18.171 16.8737 18.8271C17.0267 19.0232 17.147 19.1294 17.3998 19.1643C17.5542 19.1082 17.6948 19.0487 17.8419 18.9781C17.885 18.9581 17.9282 18.9381 17.9727 18.9174C18.2129 18.8047 18.4498 18.6868 18.6854 18.5654C18.7336 18.5406 18.7819 18.5158 18.8316 18.4902C18.9241 18.4422 19.0164 18.3937 19.1083 18.3446C19.5496 18.1142 19.99 17.9596 20.4979 17.9631C20.5618 17.9626 20.6257 17.9622 20.6916 17.9617C21.3516 18.0303 21.9015 18.343 22.4781 18.6374C22.6093 18.7041 22.7405 18.7705 22.8719 18.8367C22.9531 18.8777 23.0342 18.9189 23.1151 18.9604C23.3729 19.0962 23.3729 19.0962 23.6545 19.1643C23.8825 19.0766 23.9845 19.0256 24.1222 18.8271C24.1618 18.3127 24.0356 17.8181 23.9338 17.3154C23.8207 16.7261 23.7274 16.1003 23.9249 15.5184C23.9425 15.4629 23.9601 15.4075 23.9783 15.3503C24.1702 14.9546 24.479 14.6482 24.8067 14.3523C24.8802 14.2842 24.9537 14.216 25.0271 14.1477C25.1413 14.0421 25.2557 13.9369 25.3712 13.8326C25.4837 13.7305 25.5946 13.6271 25.7055 13.5234C25.7402 13.4927 25.7749 13.462 25.8106 13.4304C25.9797 13.27 26.0744 13.1532 26.0911 12.9206C26.0669 12.6999 26.0669 12.6999 25.9366 12.5387C25.7088 12.3872 25.5253 12.3577 25.2543 12.3272C25.2056 12.3206 25.1569 12.3141 25.1068 12.3073C24.9517 12.2866 24.7964 12.2674 24.6409 12.2484C22.7859 12.0156 22.7859 12.0156 22.1039 11.2361C21.9681 11.0656 21.8665 10.8835 21.7657 10.6924C21.7437 10.6519 21.7217 10.6114 21.6991 10.5696C21.5772 10.3425 21.462 10.1131 21.3512 9.88082C21.3167 9.8088 21.3167 9.8088 21.2816 9.73533C21.2375 9.64247 21.1941 9.54929 21.1516 9.45576C21.0315 9.20127 20.9292 9.03121 20.6733 8.88C20.3714 8.83162 20.2467 8.90666 20.0303 9.1048Z" fill="#007AFF"/>
</svg>
