<svg width="29" height="28" viewBox="0 0 29 28" fill="none" xmlns="http://www.w3.org/2000/svg">
<path d="M21.9368 0H7.06227C3.43803 0 0.5 2.93803 0.5 6.56227V21.4368C0.5 25.061 3.43803 27.999 7.06227 27.999H21.9368C25.561 27.999 28.499 25.061 28.499 21.4368V6.56227C28.499 2.93803 25.561 0 21.9368 0Z" fill="white"/>
<path d="M21.9368 0H7.06227C3.43803 0 0.5 2.93803 0.5 6.56227V21.4368C0.5 25.061 3.43803 27.999 7.06227 27.999H21.9368C25.561 27.999 28.499 25.061 28.499 21.4368V6.56227C28.499 2.93803 25.561 0 21.9368 0Z" fill="#0A66C2"/>
<path d="M20.7026 23.8084H23.9039C24.0199 23.8084 24.1312 23.7623 24.2132 23.6803C24.2953 23.5982 24.3414 23.487 24.3414 23.371L24.3431 16.6073C24.3431 13.0721 23.5813 10.3547 19.45 10.3547C17.8796 10.2963 16.3986 11.1059 15.5994 12.4577C15.5955 12.4643 15.5895 12.4694 15.5824 12.4723C15.5754 12.4751 15.5675 12.4756 15.5602 12.4736C15.5528 12.4716 15.5463 12.4673 15.5416 12.4612C15.5369 12.4552 15.5344 12.4477 15.5343 12.4401V11.1186C15.5343 11.0025 15.4882 10.8913 15.4062 10.8092C15.3241 10.7272 15.2129 10.6811 15.0968 10.6811H12.0588C11.9428 10.6811 11.8315 10.7272 11.7495 10.8092C11.6674 10.8913 11.6213 11.0025 11.6213 11.1186V23.3703C11.6213 23.4864 11.6674 23.5976 11.7495 23.6797C11.8315 23.7617 11.9428 23.8078 12.0588 23.8078H15.2599C15.3759 23.8078 15.4872 23.7617 15.5692 23.6797C15.6513 23.5976 15.6974 23.4864 15.6974 23.3703V17.3141C15.6974 15.6017 16.0222 13.9433 18.1452 13.9433C20.238 13.9433 20.2652 15.9028 20.2652 17.425V23.3709C20.2652 23.4869 20.3112 23.5982 20.3933 23.6802C20.4753 23.7623 20.5866 23.8084 20.7026 23.8084ZM4.65625 6.52149C4.65625 7.81907 5.72448 8.88675 7.02217 8.88675C8.31953 8.88664 9.3871 7.8183 9.3871 6.52094C9.38688 5.22358 8.3192 4.15601 7.02173 4.15601C5.72393 4.15601 4.65625 5.22391 4.65625 6.52149ZM5.41736 23.8084H8.62271C8.73873 23.8084 8.85001 23.7623 8.93205 23.6802C9.0141 23.5982 9.06019 23.4869 9.06019 23.3709V11.1186C9.06019 11.0025 9.0141 10.8913 8.93205 10.8092C8.85001 10.7272 8.73873 10.6811 8.62271 10.6811H5.41736C5.30134 10.6811 5.19006 10.7272 5.10802 10.8092C5.02597 10.8913 4.97988 11.0025 4.97988 11.1186V23.3709C4.97988 23.4869 5.02597 23.5982 5.10802 23.6802C5.19006 23.7623 5.30134 23.8084 5.41736 23.8084Z" fill="white"/>
</svg>
