
    <svg width="24" height="24" viewBox="0 0 24 24" fill="none" xmlns="http://www.w3.org/2000/svg">
      <path d="M2.51224 10.8491C8.41892 8.27627 12.3566 6.57992 14.3255 5.76039C19.9537 3.42019 21.1217 3.01375 21.8845 3.00013C22.0523 2.99728 22.4258 3.03875 22.6695 3.23596C22.8721 3.40214 22.9292 3.62689 22.9577 3.78453C22.983 3.94216 23.0178 4.30144 22.9893 4.5819C22.6855 7.78531 21.3655 15.559 20.6944 19.147C20.4127 20.6652 19.8524 21.1742 19.3111 21.2239C18.1335 21.3321 17.2409 20.4465 16.1013 19.6997C14.3192 18.5307 13.3126 17.8033 11.5811 16.6628C9.5806 15.3447 10.8784 14.6201 12.0179 13.4362C12.3155 13.1263 17.5004 8.41143 17.5985 7.98378C17.6112 7.93029 17.6239 7.73087 17.5036 7.62577C17.3865 7.52036 17.2123 7.55645 17.0857 7.58494C16.9053 7.62546 14.0596 9.50825 8.53906 13.233C7.73188 13.7882 7.00069 14.0589 6.34228 14.0446C5.62056 14.0291 4.22787 13.6357 3.19278 13.2995C1.92661 12.887 0.916788 12.6689 1.00542 11.9684C1.04974 11.6038 1.55312 11.2306 2.51224 10.8491Z" fill="#007AFF" />
    </svg>
