<svg width="40" height="40" viewBox="0 0 40 40" fill="none" xmlns="http://www.w3.org/2000/svg">
<g clip-path="url(#clip0_9662_30936)">
<path d="M33.3333 13.3334H6.66667C5.74619 13.3334 5 14.0796 5 15V18.3334C5 19.2538 5.74619 20 6.66667 20H33.3333C34.2538 20 35 19.2538 35 18.3334V15C35 14.0796 34.2538 13.3334 33.3333 13.3334Z" stroke="black" stroke-width="2" stroke-linecap="round" stroke-linejoin="round"/>
<path d="M20 13.3334V35" stroke="black" stroke-width="2" stroke-linecap="round" stroke-linejoin="round"/>
<path d="M31.6673 20V31.6667C31.6673 32.5507 31.3161 33.3986 30.691 34.0237C30.0659 34.6488 29.218 35 28.334 35H11.6673C10.7833 35 9.93542 34.6488 9.31029 34.0237C8.68517 33.3986 8.33398 32.5507 8.33398 31.6667V20" stroke="black" stroke-width="2" stroke-linecap="round" stroke-linejoin="round"/>
<path d="M12.5007 13.3333C11.3956 13.3333 10.3358 12.8943 9.55437 12.1129C8.77297 11.3315 8.33398 10.2717 8.33398 9.16666C8.33398 8.06159 8.77297 7.00179 9.55437 6.22038C10.3358 5.43898 11.3956 5 12.5007 5C14.1085 4.97198 15.684 5.7521 17.0219 7.2386C18.3597 8.7251 19.3978 10.849 20.0007 13.3333C20.6035 10.849 21.6416 8.7251 22.9794 7.2386C24.3173 5.7521 25.8928 4.97198 27.5007 5C28.6057 5 29.6655 5.43898 30.4469 6.22038C31.2283 7.00179 31.6673 8.06159 31.6673 9.16666C31.6673 10.2717 31.2283 11.3315 30.4469 12.1129C29.6655 12.8943 28.6057 13.3333 27.5007 13.3333" stroke="black" stroke-width="2" stroke-linecap="round" stroke-linejoin="round"/>
</g>
<defs>
<clipPath id="clip0_9662_30936">
<rect width="40" height="40" fill="white"/>
</clipPath>
</defs>
</svg>
