<svg width="156" height="156" viewBox="0 0 156 156" fill="none" xmlns="http://www.w3.org/2000/svg">
<path d="M53.2476 102.588L102.588 53.2478" stroke="#007AFF" stroke-width="8" stroke-linecap="round" stroke-linejoin="round"/>
<path d="M102.588 102.588L53.2477 53.2478" stroke="#007AFF" stroke-width="8" stroke-linecap="round" stroke-linejoin="round"/>
<path d="M20.3542 38.4456C20.3542 28.454 28.454 20.3542 38.4456 20.3542H46.669C51.4459 20.3514 56.0279 18.4595 59.4152 15.0912L65.1716 9.33485C68.5672 5.92004 73.1843 4 78 4C82.8158 4 87.4328 5.92004 90.8285 9.33485L96.5848 15.0912C99.9721 18.4595 104.554 20.3514 109.331 20.3542H117.554C127.546 20.3542 135.646 28.454 135.646 38.4456V46.669C135.649 51.4459 137.541 56.0279 140.909 59.4152L146.665 65.1716C150.08 68.5672 152 73.1843 152 78C152 82.8158 150.08 87.4328 146.665 90.8285L140.909 96.5848C137.541 99.9721 135.649 104.554 135.646 109.331V117.554C135.646 127.546 127.546 135.646 117.554 135.646H109.331C104.554 135.649 99.9721 137.541 96.5848 140.909L90.8285 146.665C87.4328 150.08 82.8158 152 78 152C73.1843 152 68.5672 150.08 65.1716 146.665L59.4152 140.909C56.0279 137.541 51.4459 135.649 46.669 135.646H38.4456C28.454 135.646 20.3542 127.546 20.3542 117.554V109.331C20.3514 104.554 18.4595 99.9721 15.0912 96.5848L9.33485 90.8285C5.92004 87.4328 4 82.8158 4 78C4 73.1843 5.92004 68.5672 9.33485 65.1716L15.0912 59.4152C18.4595 56.0279 20.3514 51.4459 20.3542 46.669V38.4456" stroke="#007AFF" stroke-width="8" stroke-linecap="round" stroke-linejoin="round"/>
</svg>
