<svg width="390" height="61" viewBox="0 0 390 61" fill="none" xmlns="http://www.w3.org/2000/svg">
<g clip-path="url(#clip0_8186_80571)">
<rect width="390" height="60" transform="translate(0 0.012207)" fill="#0A1C33"/>
<path d="M38.6996 16.2085V3.38232H34.1449V0.70752H46.5091V3.38232H41.9437V16.2085H38.6996ZM48.3761 16.2085V0.310059H51.5128V6.45459H51.631C51.9174 5.77425 52.3543 5.24788 52.9415 4.87549C53.5288 4.49593 54.2485 4.30615 55.1007 4.30615C55.9529 4.30615 56.6798 4.48519 57.2814 4.84326C57.8829 5.20133 58.3413 5.71338 58.6564 6.37939C58.9786 7.04541 59.1398 7.84749 59.1398 8.78564V16.2085H56.003V9.4624C56.003 8.63883 55.8168 8.00863 55.4445 7.57178C55.0792 7.12777 54.5349 6.90576 53.8116 6.90576C53.339 6.90576 52.9308 7.01676 52.587 7.23877C52.2433 7.45361 51.9783 7.75439 51.7921 8.14111C51.6059 8.52783 51.5128 8.98258 51.5128 9.50537V16.2085H48.3761ZM66.6034 16.4556C65.4218 16.4556 64.4012 16.2121 63.5419 15.7251C62.6897 15.231 62.0344 14.5327 61.5761 13.6304C61.1177 12.7209 60.8886 11.6431 60.8886 10.397V10.3862C60.8886 9.1473 61.1177 8.07308 61.5761 7.16357C62.0344 6.25407 62.6825 5.55225 63.5204 5.05811C64.3583 4.5568 65.343 4.30615 66.4745 4.30615C67.6132 4.30615 68.5943 4.54964 69.4179 5.03662C70.2486 5.51644 70.8895 6.19678 71.3407 7.07764C71.7919 7.95133 72.0175 8.97542 72.0175 10.1499V11.1274H62.4354V9.15088H70.5243L69.0419 11.0093V9.77393C69.0419 9.08643 68.9345 8.50993 68.7196 8.04443C68.5119 7.57894 68.2183 7.23161 67.8387 7.00244C67.4664 6.76611 67.0295 6.64795 66.5282 6.64795C66.0341 6.64795 65.5936 6.76969 65.2069 7.01318C64.8274 7.24951 64.5266 7.604 64.3046 8.07666C64.0897 8.54215 63.9823 9.10791 63.9823 9.77393V11.02C63.9823 11.6646 64.0897 12.2196 64.3046 12.6851C64.5266 13.1434 64.8381 13.4943 65.2391 13.7378C65.6402 13.9813 66.1164 14.103 66.6679 14.103C67.1119 14.103 67.4914 14.0386 67.8065 13.9097C68.1288 13.7736 68.3866 13.6089 68.58 13.4155C68.7805 13.215 68.9165 13.0216 68.9882 12.8354L69.0204 12.771H71.9208L71.8886 12.8892C71.8026 13.2902 71.6343 13.6984 71.3837 14.1138C71.1402 14.5291 70.8036 14.9159 70.3739 15.2739C69.9514 15.6248 69.4286 15.9113 68.8055 16.1333C68.1825 16.3481 67.4484 16.4556 66.6034 16.4556ZM85.6986 16.5415C84.5456 16.5415 83.5108 16.3553 82.5941 15.9829C81.6775 15.6105 80.8969 15.077 80.2523 14.3823C79.6078 13.6805 79.1137 12.8283 78.7699 11.8257C78.4262 10.8231 78.2543 9.69157 78.2543 8.43115V8.42041C78.2543 6.75895 78.5551 5.33024 79.1566 4.13428C79.7582 2.93115 80.6104 2.00374 81.7133 1.35205C82.8161 0.700358 84.1231 0.374512 85.6342 0.374512C86.8659 0.374512 87.9617 0.596517 88.9213 1.04053C89.8809 1.47738 90.6615 2.08252 91.2631 2.85596C91.8718 3.62939 92.2549 4.51742 92.4125 5.52002L92.4447 5.64893H89.2006L89.1684 5.5415C88.932 4.78239 88.5059 4.19157 87.89 3.76904C87.2742 3.33936 86.5222 3.12451 85.6342 3.12451C84.7891 3.12451 84.0622 3.33577 83.4535 3.7583C82.8448 4.17367 82.3757 4.77523 82.0463 5.56299C81.724 6.35075 81.5629 7.29248 81.5629 8.38818V8.39893C81.5629 9.23682 81.6596 9.98877 81.8529 10.6548C82.0463 11.3208 82.3256 11.8866 82.6908 12.3521C83.0632 12.8175 83.5072 13.1756 84.0229 13.4263C84.5385 13.6698 85.115 13.7915 85.7523 13.7915C86.4613 13.7915 87.0844 13.659 87.6215 13.394C88.1658 13.1219 88.5919 12.7459 88.8998 12.2661C89.2149 11.7863 89.3832 11.2241 89.4047 10.5796L89.4154 10.3218H85.9672V7.93701H92.5736V9.80615C92.5736 10.8446 92.4161 11.7791 92.101 12.6099C91.793 13.4406 91.3383 14.1496 90.7367 14.7368C90.1423 15.3169 89.419 15.7645 88.5668 16.0796C87.7217 16.3875 86.7657 16.5415 85.6986 16.5415ZM99.8546 16.4556C98.673 16.4556 97.6525 16.2121 96.7931 15.7251C95.9409 15.231 95.2856 14.5327 94.8273 13.6304C94.369 12.7209 94.1398 11.6431 94.1398 10.397V10.3862C94.1398 9.1473 94.369 8.07308 94.8273 7.16357C95.2856 6.25407 95.9337 5.55225 96.7716 5.05811C97.6095 4.5568 98.5942 4.30615 99.7257 4.30615C100.864 4.30615 101.846 4.54964 102.669 5.03662C103.5 5.51644 104.141 6.19678 104.592 7.07764C105.043 7.95133 105.269 8.97542 105.269 10.1499V11.1274H95.6867V9.15088H103.776L102.293 11.0093V9.77393C102.293 9.08643 102.186 8.50993 101.971 8.04443C101.763 7.57894 101.47 7.23161 101.09 7.00244C100.718 6.76611 100.281 6.64795 99.7794 6.64795C99.2853 6.64795 98.8449 6.76969 98.4582 7.01318C98.0786 7.24951 97.7778 7.604 97.5558 8.07666C97.341 8.54215 97.2336 9.10791 97.2336 9.77393V11.02C97.2336 11.6646 97.341 12.2196 97.5558 12.6851C97.7778 13.1434 98.0893 13.4943 98.4904 13.7378C98.8914 13.9813 99.3677 14.103 99.9191 14.103C100.363 14.103 100.743 14.0386 101.058 13.9097C101.38 13.7736 101.638 13.6089 101.831 13.4155C102.032 13.215 102.168 13.0216 102.239 12.8354L102.272 12.771H105.172L105.14 12.8892C105.054 13.2902 104.886 13.6984 104.635 14.1138C104.391 14.5291 104.055 14.9159 103.625 15.2739C103.203 15.6248 102.68 15.9113 102.057 16.1333C101.434 16.3481 100.7 16.4556 99.8546 16.4556ZM107.071 16.2085V4.54248H110.208V6.41162H110.337C110.623 5.75993 111.057 5.24788 111.637 4.87549C112.217 4.49593 112.936 4.30615 113.796 4.30615C115.085 4.30615 116.073 4.68929 116.761 5.45557C117.448 6.22184 117.792 7.29606 117.792 8.67822V16.2085H114.655V9.35498C114.655 8.56006 114.48 7.95492 114.129 7.53955C113.778 7.11702 113.241 6.90576 112.518 6.90576C112.045 6.90576 111.637 7.01318 111.293 7.22803C110.949 7.44287 110.681 7.74365 110.487 8.13037C110.301 8.51709 110.208 8.96826 110.208 9.48389V16.2085H107.071ZM125.245 16.4556C124.063 16.4556 123.043 16.2121 122.183 15.7251C121.331 15.231 120.676 14.5327 120.217 13.6304C119.759 12.7209 119.53 11.6431 119.53 10.397V10.3862C119.53 9.1473 119.759 8.07308 120.217 7.16357C120.676 6.25407 121.324 5.55225 122.162 5.05811C123 4.5568 123.984 4.30615 125.116 4.30615C126.255 4.30615 127.236 4.54964 128.059 5.03662C128.89 5.51644 129.531 6.19678 129.982 7.07764C130.433 7.95133 130.659 8.97542 130.659 10.1499V11.1274H121.077V9.15088H129.166L127.683 11.0093V9.77393C127.683 9.08643 127.576 8.50993 127.361 8.04443C127.153 7.57894 126.86 7.23161 126.48 7.00244C126.108 6.76611 125.671 6.64795 125.17 6.64795C124.675 6.64795 124.235 6.76969 123.848 7.01318C123.469 7.24951 123.168 7.604 122.946 8.07666C122.731 8.54215 122.624 9.10791 122.624 9.77393V11.02C122.624 11.6646 122.731 12.2196 122.946 12.6851C123.168 13.1434 123.48 13.4943 123.881 13.7378C124.282 13.9813 124.758 14.103 125.309 14.103C125.753 14.103 126.133 14.0386 126.448 13.9097C126.77 13.7736 127.028 13.6089 127.221 13.4155C127.422 13.215 127.558 13.0216 127.63 12.8354L127.662 12.771H130.562L130.53 12.8892C130.444 13.2902 130.276 13.6984 130.025 14.1138C129.782 14.5291 129.445 14.9159 129.015 15.2739C128.593 15.6248 128.07 15.9113 127.447 16.1333C126.824 16.3481 126.09 16.4556 125.245 16.4556ZM137.177 16.4556C136.11 16.4556 135.201 16.3052 134.449 16.0044C133.704 15.6965 133.12 15.2775 132.698 14.7476C132.275 14.2104 132.025 13.591 131.946 12.8892L131.935 12.814H135.007L135.029 12.8892C135.143 13.2974 135.376 13.6232 135.727 13.8667C136.085 14.1102 136.576 14.2319 137.199 14.2319C137.6 14.2319 137.943 14.1818 138.23 14.0815C138.524 13.9813 138.749 13.8381 138.907 13.6519C139.071 13.4585 139.154 13.2365 139.154 12.9858V12.9751C139.154 12.66 139.032 12.4058 138.789 12.2124C138.552 12.0119 138.144 11.8472 137.564 11.7183L135.598 11.2993C134.853 11.1418 134.23 10.9126 133.729 10.6118C133.228 10.311 132.852 9.94222 132.601 9.50537C132.358 9.06136 132.236 8.54932 132.236 7.96924V7.9585C132.236 7.2137 132.436 6.56917 132.837 6.0249C133.238 5.48063 133.804 5.05811 134.535 4.75732C135.272 4.45654 136.128 4.30615 137.102 4.30615C138.126 4.30615 138.996 4.46729 139.712 4.78955C140.436 5.10465 140.991 5.53076 141.377 6.06787C141.764 6.59782 141.972 7.19222 142 7.85107V7.92627H139.1L139.089 7.86182C139.025 7.48942 138.824 7.17432 138.488 6.9165C138.151 6.65153 137.689 6.51904 137.102 6.51904C136.744 6.51904 136.429 6.57275 136.157 6.68018C135.885 6.78044 135.673 6.92367 135.523 7.10986C135.372 7.29606 135.297 7.51807 135.297 7.77588V7.78662C135.297 7.98714 135.347 8.16618 135.448 8.32373C135.548 8.47412 135.716 8.61019 135.953 8.73193C136.189 8.84652 136.504 8.94678 136.898 9.03271L138.864 9.45166C140.06 9.70231 140.93 10.0819 141.474 10.5903C142.018 11.0988 142.29 11.7827 142.29 12.6421V12.6528C142.29 13.4191 142.072 14.0887 141.635 14.6616C141.198 15.2274 140.597 15.6678 139.831 15.9829C139.064 16.298 138.18 16.4556 137.177 16.4556ZM144.104 16.2085V4.54248H147.24V16.2085H144.104ZM145.672 2.90967C145.199 2.90967 144.795 2.74495 144.458 2.41553C144.122 2.0861 143.953 1.68864 143.953 1.22314C143.953 0.75765 144.122 0.360189 144.458 0.0307617C144.795 -0.298665 145.199 -0.463379 145.672 -0.463379C146.152 -0.463379 146.557 -0.298665 146.886 0.0307617C147.223 0.360189 147.391 0.75765 147.391 1.22314C147.391 1.68864 147.223 2.0861 146.886 2.41553C146.557 2.74495 146.152 2.90967 145.672 2.90967ZM154.296 16.4556C153.229 16.4556 152.319 16.3052 151.567 16.0044C150.823 15.6965 150.239 15.2775 149.816 14.7476C149.394 14.2104 149.143 13.591 149.064 12.8892L149.054 12.814H152.126L152.147 12.8892C152.262 13.2974 152.495 13.6232 152.846 13.8667C153.204 14.1102 153.694 14.2319 154.317 14.2319C154.718 14.2319 155.062 14.1818 155.349 14.0815C155.642 13.9813 155.868 13.8381 156.025 13.6519C156.19 13.4585 156.272 13.2365 156.272 12.9858V12.9751C156.272 12.66 156.151 12.4058 155.907 12.2124C155.671 12.0119 155.263 11.8472 154.683 11.7183L152.717 11.2993C151.972 11.1418 151.349 10.9126 150.848 10.6118C150.346 10.311 149.97 9.94222 149.72 9.50537C149.476 9.06136 149.354 8.54932 149.354 7.96924V7.9585C149.354 7.2137 149.555 6.56917 149.956 6.0249C150.357 5.48063 150.923 5.05811 151.653 4.75732C152.391 4.45654 153.247 4.30615 154.221 4.30615C155.245 4.30615 156.115 4.46729 156.831 4.78955C157.554 5.10465 158.109 5.53076 158.496 6.06787C158.883 6.59782 159.09 7.19222 159.119 7.85107V7.92627H156.219L156.208 7.86182C156.144 7.48942 155.943 7.17432 155.606 6.9165C155.27 6.65153 154.808 6.51904 154.221 6.51904C153.863 6.51904 153.547 6.57275 153.275 6.68018C153.003 6.78044 152.792 6.92367 152.642 7.10986C152.491 7.29606 152.416 7.51807 152.416 7.77588V7.78662C152.416 7.98714 152.466 8.16618 152.566 8.32373C152.667 8.47412 152.835 8.61019 153.071 8.73193C153.308 8.84652 153.623 8.94678 154.017 9.03271L155.982 9.45166C157.178 9.70231 158.048 10.0819 158.593 10.5903C159.137 11.0988 159.409 11.7827 159.409 12.6421V12.6528C159.409 13.4191 159.191 14.0887 158.754 14.6616C158.317 15.2274 157.715 15.6678 156.949 15.9829C156.183 16.298 155.298 16.4556 154.296 16.4556ZM173.08 16.5415C171.547 16.5415 170.222 16.2157 169.105 15.564C167.988 14.9051 167.125 13.9705 166.516 12.7603C165.915 11.55 165.614 10.1177 165.614 8.46338V8.44189C165.614 6.7876 165.918 5.35889 166.527 4.15576C167.136 2.94548 167.999 2.01449 169.116 1.36279C170.24 0.703939 171.561 0.374512 173.08 0.374512C174.612 0.374512 175.937 0.703939 177.054 1.36279C178.171 2.01449 179.031 2.94548 179.632 4.15576C180.241 5.35889 180.545 6.7876 180.545 8.44189V8.46338C180.545 10.1177 180.241 11.55 179.632 12.7603C179.031 13.9634 178.171 14.8944 177.054 15.5532C175.937 16.2121 174.612 16.5415 173.08 16.5415ZM173.08 13.7915C173.932 13.7915 174.669 13.5731 175.292 13.1362C175.916 12.6994 176.395 12.0835 176.732 11.2886C177.069 10.4865 177.237 9.54476 177.237 8.46338V8.44189C177.237 7.35335 177.065 6.41162 176.721 5.6167C176.385 4.82178 175.905 4.20947 175.282 3.77979C174.659 3.34294 173.925 3.12451 173.08 3.12451C172.242 3.12451 171.508 3.34294 170.877 3.77979C170.254 4.20947 169.771 4.82178 169.427 5.6167C169.091 6.41162 168.922 7.35335 168.922 8.44189V8.46338C168.922 9.54476 169.091 10.4865 169.427 11.2886C169.771 12.0835 170.254 12.6994 170.877 13.1362C171.5 13.5731 172.235 13.7915 173.08 13.7915ZM182.842 16.2085V0.70752H185.614L193.831 12.3198L191.328 10.6978H192.811V0.70752H195.98V16.2085H193.219L184.99 4.54248L187.493 6.17529H186.011V16.2085H182.842ZM198.867 16.2085V0.70752H202.111V16.2085H198.867ZM211.874 16.5415C210.341 16.5415 209.016 16.2157 207.899 15.564C206.782 14.9051 205.919 13.9705 205.31 12.7603C204.709 11.55 204.408 10.1177 204.408 8.46338V8.44189C204.408 6.7876 204.712 5.35889 205.321 4.15576C205.93 2.94548 206.793 2.01449 207.91 1.36279C209.034 0.703939 210.356 0.374512 211.874 0.374512C213.406 0.374512 214.731 0.703939 215.848 1.36279C216.966 2.01449 217.825 2.94548 218.427 4.15576C219.035 5.35889 219.34 6.7876 219.34 8.44189V8.46338C219.34 10.1177 219.035 11.55 218.427 12.7603C217.825 13.9634 216.966 14.8944 215.848 15.5532C214.731 16.2121 213.406 16.5415 211.874 16.5415ZM211.874 13.7915C212.726 13.7915 213.464 13.5731 214.087 13.1362C214.71 12.6994 215.19 12.0835 215.526 11.2886C215.863 10.4865 216.031 9.54476 216.031 8.46338V8.44189C216.031 7.35335 215.859 6.41162 215.515 5.6167C215.179 4.82178 214.699 4.20947 214.076 3.77979C213.453 3.34294 212.719 3.12451 211.874 3.12451C211.036 3.12451 210.302 3.34294 209.672 3.77979C209.049 4.20947 208.565 4.82178 208.221 5.6167C207.885 6.41162 207.717 7.35335 207.717 8.44189V8.46338C207.717 9.54476 207.885 10.4865 208.221 11.2886C208.565 12.0835 209.049 12.6994 209.672 13.1362C210.295 13.5731 211.029 13.7915 211.874 13.7915ZM221.636 16.2085V0.70752H224.408L232.626 12.3198L230.123 10.6978H231.605V0.70752H234.774V16.2085H232.013L223.785 4.54248L226.288 6.17529H224.805V16.2085H221.636ZM242.087 16.4556C241.02 16.4556 240.111 16.3052 239.359 16.0044C238.614 15.6965 238.03 15.2775 237.608 14.7476C237.185 14.2104 236.935 13.591 236.856 12.8892L236.845 12.814H239.917L239.939 12.8892C240.053 13.2974 240.286 13.6232 240.637 13.8667C240.995 14.1102 241.486 14.2319 242.109 14.2319C242.51 14.2319 242.853 14.1818 243.14 14.0815C243.434 13.9813 243.659 13.8381 243.817 13.6519C243.981 13.4585 244.064 13.2365 244.064 12.9858V12.9751C244.064 12.66 243.942 12.4058 243.699 12.2124C243.462 12.0119 243.054 11.8472 242.474 11.7183L240.508 11.2993C239.763 11.1418 239.14 10.9126 238.639 10.6118C238.138 10.311 237.762 9.94222 237.511 9.50537C237.268 9.06136 237.146 8.54932 237.146 7.96924V7.9585C237.146 7.2137 237.346 6.56917 237.747 6.0249C238.148 5.48063 238.714 5.05811 239.445 4.75732C240.182 4.45654 241.038 4.30615 242.012 4.30615C243.036 4.30615 243.906 4.46729 244.622 4.78955C245.346 5.10465 245.901 5.53076 246.287 6.06787C246.674 6.59782 246.882 7.19222 246.91 7.85107V7.92627H244.01L243.999 7.86182C243.935 7.48942 243.734 7.17432 243.398 6.9165C243.061 6.65153 242.599 6.51904 242.012 6.51904C241.654 6.51904 241.339 6.57275 241.067 6.68018C240.795 6.78044 240.583 6.92367 240.433 7.10986C240.283 7.29606 240.207 7.51807 240.207 7.77588V7.78662C240.207 7.98714 240.257 8.16618 240.358 8.32373C240.458 8.47412 240.626 8.61019 240.863 8.73193C241.099 8.84652 241.414 8.94678 241.808 9.03271L243.774 9.45166C244.97 9.70231 245.84 10.0819 246.384 10.5903C246.928 11.0988 247.2 11.7827 247.2 12.6421V12.6528C247.2 13.4191 246.982 14.0887 246.545 14.6616C246.108 15.2274 245.507 15.6678 244.741 15.9829C243.974 16.298 243.09 16.4556 242.087 16.4556ZM260.731 16.5415C259.227 16.5415 257.928 16.2157 256.832 15.564C255.736 14.9123 254.891 13.9849 254.297 12.7817C253.702 11.5715 253.405 10.132 253.405 8.46338V8.44189C253.405 6.77327 253.702 5.3374 254.297 4.13428C254.891 2.92399 255.736 1.99658 256.832 1.35205C257.928 0.700358 259.227 0.374512 260.731 0.374512C261.97 0.374512 263.077 0.618001 264.051 1.10498C265.032 1.59196 265.823 2.25798 266.425 3.10303C267.026 3.94808 267.377 4.91846 267.477 6.01416V6.13232H264.319L264.298 6.00342C264.183 5.42334 263.965 4.91846 263.642 4.48877C263.32 4.05908 262.912 3.72607 262.418 3.48975C261.924 3.24626 261.361 3.12451 260.731 3.12451C259.908 3.12451 259.195 3.33936 258.594 3.76904C257.999 4.19873 257.537 4.81104 257.208 5.60596C256.878 6.40088 256.714 7.34619 256.714 8.44189V8.45264C256.714 9.54834 256.878 10.4972 257.208 11.2993C257.537 12.0942 258.003 12.7101 258.604 13.147C259.206 13.5767 259.918 13.7915 260.742 13.7915C261.365 13.7915 261.92 13.6769 262.407 13.4478C262.901 13.2186 263.309 12.8927 263.632 12.4702C263.961 12.0477 264.187 11.5464 264.308 10.9663L264.33 10.8589H267.488L267.477 10.9771C267.377 12.0728 267.026 13.0396 266.425 13.8774C265.83 14.7082 265.046 15.3599 264.072 15.8325C263.098 16.3052 261.985 16.5415 260.731 16.5415ZM274.683 16.4556C273.502 16.4556 272.477 16.2121 271.611 15.7251C270.752 15.2381 270.089 14.5435 269.624 13.6411C269.158 12.7316 268.925 11.6466 268.925 10.3862V10.3647C268.925 9.11149 269.162 8.03369 269.634 7.13135C270.107 6.22184 270.773 5.5236 271.632 5.03662C272.492 4.54964 273.509 4.30615 274.683 4.30615C275.858 4.30615 276.875 4.54964 277.734 5.03662C278.6 5.51644 279.27 6.2111 279.743 7.12061C280.215 8.02295 280.452 9.10433 280.452 10.3647V10.3862C280.452 11.6538 280.219 12.7424 279.753 13.6519C279.288 14.5542 278.622 15.2489 277.755 15.7358C276.896 16.2157 275.872 16.4556 274.683 16.4556ZM274.694 13.9956C275.224 13.9956 275.679 13.8524 276.058 13.5659C276.445 13.2795 276.739 12.8677 276.939 12.3306C277.147 11.7935 277.251 11.1453 277.251 10.3862V10.3647C277.251 9.60563 277.147 8.95752 276.939 8.42041C276.731 7.8833 276.434 7.4751 276.047 7.1958C275.668 6.90934 275.213 6.76611 274.683 6.76611C274.16 6.76611 273.706 6.90934 273.319 7.1958C272.932 7.4751 272.635 7.8833 272.427 8.42041C272.22 8.95752 272.116 9.60563 272.116 10.3647V10.3862C272.116 11.1453 272.22 11.797 272.427 12.3413C272.635 12.8784 272.929 13.2902 273.308 13.5767C273.695 13.856 274.157 13.9956 274.694 13.9956ZM282.34 16.2085V0.310059H285.477V16.2085H282.34ZM287.967 16.2085V0.310059H291.104V16.2085H287.967ZM298.718 16.4556C297.536 16.4556 296.515 16.2121 295.656 15.7251C294.804 15.231 294.149 14.5327 293.69 13.6304C293.232 12.7209 293.003 11.6431 293.003 10.397V10.3862C293.003 9.1473 293.232 8.07308 293.69 7.16357C294.149 6.25407 294.797 5.55225 295.635 5.05811C296.472 4.5568 297.457 4.30615 298.589 4.30615C299.727 4.30615 300.708 4.54964 301.532 5.03662C302.363 5.51644 303.004 6.19678 303.455 7.07764C303.906 7.95133 304.132 8.97542 304.132 10.1499V11.1274H294.55V9.15088H302.638L301.156 11.0093V9.77393C301.156 9.08643 301.049 8.50993 300.834 8.04443C300.626 7.57894 300.332 7.23161 299.953 7.00244C299.581 6.76611 299.144 6.64795 298.642 6.64795C298.148 6.64795 297.708 6.76969 297.321 7.01318C296.942 7.24951 296.641 7.604 296.419 8.07666C296.204 8.54215 296.096 9.10791 296.096 9.77393V11.02C296.096 11.6646 296.204 12.2196 296.419 12.6851C296.641 13.1434 296.952 13.4943 297.353 13.7378C297.754 13.9813 298.231 14.103 298.782 14.103C299.226 14.103 299.606 14.0386 299.921 13.9097C300.243 13.7736 300.501 13.6089 300.694 13.4155C300.895 13.215 301.031 13.0216 301.102 12.8354L301.135 12.771H304.035L304.003 12.8892C303.917 13.2902 303.749 13.6984 303.498 14.1138C303.254 14.5291 302.918 14.9159 302.488 15.2739C302.066 15.6248 301.543 15.9113 300.92 16.1333C300.297 16.3481 299.563 16.4556 298.718 16.4556ZM311.166 16.4556C309.97 16.4556 308.942 16.2121 308.083 15.7251C307.23 15.2381 306.575 14.5399 306.117 13.6304C305.666 12.7209 305.44 11.6323 305.44 10.3647V10.3433C305.44 9.08285 305.666 8.00146 306.117 7.09912C306.575 6.19678 307.23 5.5057 308.083 5.02588C308.942 4.54606 309.966 4.30615 311.155 4.30615C312.2 4.30615 313.103 4.49235 313.862 4.86475C314.621 5.23714 315.219 5.75277 315.656 6.41162C316.093 7.07048 316.343 7.82959 316.408 8.68896V8.74268H313.497L313.475 8.67822C313.382 8.11963 313.142 7.6613 312.755 7.30322C312.369 6.94515 311.846 6.76611 311.187 6.76611C310.65 6.76611 310.188 6.90934 309.801 7.1958C309.422 7.4751 309.132 7.8833 308.931 8.42041C308.731 8.95036 308.63 9.59489 308.63 10.354V10.3755C308.63 11.1489 308.731 11.8042 308.931 12.3413C309.139 12.8784 309.433 13.2902 309.812 13.5767C310.192 13.856 310.65 13.9956 311.187 13.9956C311.825 13.9956 312.333 13.8309 312.713 13.5015C313.099 13.172 313.353 12.7101 313.475 12.1157L313.497 12.0513H316.408V12.1157C316.329 12.9608 316.068 13.7091 315.624 14.3608C315.187 15.0125 314.592 15.5246 313.84 15.897C313.089 16.2694 312.197 16.4556 311.166 16.4556ZM322.894 16.3481C321.54 16.3481 320.552 16.0903 319.929 15.5747C319.306 15.0519 318.995 14.1961 318.995 13.0073V6.90576H317.297V4.54248H318.995V1.72803H322.163V4.54248H324.43V6.90576H322.163V12.481C322.163 13.0181 322.282 13.4012 322.518 13.6304C322.761 13.8524 323.134 13.9634 323.635 13.9634C323.807 13.9634 323.95 13.9598 324.065 13.9526C324.187 13.9383 324.308 13.9276 324.43 13.9204V16.23C324.244 16.2586 324.018 16.2837 323.753 16.3052C323.495 16.3338 323.209 16.3481 322.894 16.3481ZM326.361 16.2085V4.54248H329.498V16.2085H326.361ZM327.93 2.90967C327.457 2.90967 327.053 2.74495 326.716 2.41553C326.379 2.0861 326.211 1.68864 326.211 1.22314C326.211 0.75765 326.379 0.360189 326.716 0.0307617C327.053 -0.298665 327.457 -0.463379 327.93 -0.463379C328.41 -0.463379 328.814 -0.298665 329.144 0.0307617C329.48 0.360189 329.649 0.75765 329.649 1.22314C329.649 1.68864 329.48 2.0861 329.144 2.41553C328.814 2.74495 328.41 2.90967 327.93 2.90967ZM337.101 16.4556C335.92 16.4556 334.896 16.2121 334.029 15.7251C333.17 15.2381 332.507 14.5435 332.042 13.6411C331.576 12.7316 331.344 11.6466 331.344 10.3862V10.3647C331.344 9.11149 331.58 8.03369 332.053 7.13135C332.525 6.22184 333.191 5.5236 334.051 5.03662C334.91 4.54964 335.927 4.30615 337.101 4.30615C338.276 4.30615 339.293 4.54964 340.152 5.03662C341.019 5.51644 341.688 6.2111 342.161 7.12061C342.634 8.02295 342.87 9.10433 342.87 10.3647V10.3862C342.87 11.6538 342.637 12.7424 342.172 13.6519C341.706 14.5542 341.04 15.2489 340.174 15.7358C339.314 16.2157 338.29 16.4556 337.101 16.4556ZM337.112 13.9956C337.642 13.9956 338.097 13.8524 338.476 13.5659C338.863 13.2795 339.157 12.8677 339.357 12.3306C339.565 11.7935 339.669 11.1453 339.669 10.3862V10.3647C339.669 9.60563 339.565 8.95752 339.357 8.42041C339.15 7.8833 338.852 7.4751 338.466 7.1958C338.086 6.90934 337.631 6.76611 337.101 6.76611C336.579 6.76611 336.124 6.90934 335.737 7.1958C335.35 7.4751 335.053 7.8833 334.846 8.42041C334.638 8.95752 334.534 9.60563 334.534 10.3647V10.3862C334.534 11.1453 334.638 11.797 334.846 12.3413C335.053 12.8784 335.347 13.2902 335.726 13.5767C336.113 13.856 336.575 13.9956 337.112 13.9956ZM344.662 16.2085V4.54248H347.798V6.41162H347.927C348.214 5.75993 348.647 5.24788 349.227 4.87549C349.807 4.49593 350.527 4.30615 351.386 4.30615C352.675 4.30615 353.664 4.68929 354.351 5.45557C355.039 6.22184 355.382 7.29606 355.382 8.67822V16.2085H352.246V9.35498C352.246 8.56006 352.07 7.95492 351.719 7.53955C351.368 7.11702 350.831 6.90576 350.108 6.90576C349.635 6.90576 349.227 7.01318 348.883 7.22803C348.54 7.44287 348.271 7.74365 348.078 8.13037C347.892 8.51709 347.798 8.96826 347.798 9.48389V16.2085H344.662Z" fill="white"/>
<path d="M390 65.7622H390.967L390.726 64.8254L390 65.0122C390.726 64.8254 390.726 64.824 390.726 64.8224L390.725 64.8183L390.721 64.8068L390.711 64.7704C390.707 64.7566 390.703 64.7404 390.697 64.7218C390.69 64.6997 390.683 64.6744 390.674 64.6457C390.64 64.5398 390.589 64.389 390.516 64.1963C390.37 63.8108 390.136 63.2579 389.775 62.5619C389.054 61.1693 387.831 59.2064 385.805 56.8652C381.752 52.182 374.502 45.9984 361.675 39.8362C336.031 27.5173 288.054 15.2622 198.6 15.2622C109.142 15.2622 59.3752 27.5186 31.943 39.8279C18.2229 45.9844 10.0827 52.1573 5.36042 56.8224C2.99953 59.1547 1.49485 61.1084 0.575406 62.4916C0.115769 63.183 -0.197316 63.7315 -0.397836 64.1129C-0.498088 64.3036 -0.570174 64.4525 -0.618351 64.5566C-0.642438 64.6086 -0.660546 64.6494 -0.673207 64.6787L-0.688177 64.7138L-0.692722 64.7247L-0.694282 64.7285C-0.694867 64.73 -0.695374 64.7312 0 65.0122L-0.695374 64.7312L-1.11198 65.7622H0H390Z" stroke="#C7D3E3" stroke-width="1.5"/>
<path d="M198.6 16.0122C377.4 16.0122 390 60.0122 390 60.0122H0C0 60.0122 19.8001 16.0122 198.6 16.0122Z" fill="url(#paint0_radial_8186_80571)"/>
</g>
<defs>
<radialGradient id="paint0_radial_8186_80571" cx="0" cy="0" r="1" gradientUnits="userSpaceOnUse" gradientTransform="translate(201 11.7084) rotate(90) scale(48.2916 175.631)">
<stop stop-color="#566E8F"/>
<stop offset="0.381661" stop-color="#24354C"/>
<stop offset="0.887351" stop-color="#0A1C33"/>
</radialGradient>
<clipPath id="clip0_8186_80571">
<rect width="390" height="60" fill="white" transform="translate(0 0.012207)"/>
</clipPath>
</defs>
</svg>
