<svg width="388" height="294" viewBox="0 0 388 294" fill="none" xmlns="http://www.w3.org/2000/svg">
<g opacity="0.2">
<path d="M18.7247 42.8041C28.4496 42.8041 36.3332 33.4715 36.3332 21.9592C36.3332 10.4469 28.4496 1.11429 18.7247 1.11429C8.99978 1.11429 1.11621 10.4469 1.11621 21.9592C1.11621 33.4715 8.99978 42.8041 18.7247 42.8041Z" stroke="white" stroke-opacity="0.47" stroke-miterlimit="10"/>
<path d="M18.6085 209.563C28.3334 209.563 36.217 200.231 36.217 188.718C36.217 177.206 28.3334 167.874 18.6085 167.874C8.88357 167.874 1 177.206 1 188.718C1 200.231 8.88357 209.563 18.6085 209.563Z" stroke="white" stroke-opacity="0.47" stroke-miterlimit="10"/>
<path d="M18.7247 126.184C28.4496 126.184 36.3332 116.851 36.3332 105.339C36.3332 93.8263 28.4496 84.4938 18.7247 84.4938C8.99978 84.4938 1.11621 93.8263 1.11621 105.339C1.11621 116.851 8.99978 126.184 18.7247 126.184Z" stroke="white" stroke-opacity="0.47" stroke-miterlimit="10"/>
<path d="M18.6085 292.943C28.3334 292.943 36.217 283.61 36.217 272.098C36.217 260.585 28.3334 251.253 18.6085 251.253C8.88357 251.253 1 260.585 1 272.098C1 283.61 8.88357 292.943 18.6085 292.943Z" stroke="white" stroke-opacity="0.47" stroke-miterlimit="10"/>
<path d="M18.7247 84.494C28.4496 84.494 36.3332 75.1615 36.3332 63.6491C36.3332 52.1368 28.4496 42.8042 18.7247 42.8042C8.99978 42.8042 1.11621 52.1368 1.11621 63.6491C1.11621 75.1615 8.99978 84.494 18.7247 84.494Z" stroke="white" stroke-opacity="0.47" stroke-miterlimit="10"/>
<path d="M18.6085 251.253C28.3334 251.253 36.217 241.921 36.217 230.408C36.217 218.896 28.3334 209.563 18.6085 209.563C8.88357 209.563 1 218.896 1 230.408C1 241.921 8.88357 251.253 18.6085 251.253Z" stroke="white" stroke-opacity="0.47" stroke-miterlimit="10"/>
<path d="M18.7247 167.873C28.4496 167.873 36.3332 158.541 36.3332 147.028C36.3332 135.516 28.4496 126.184 18.7247 126.184C8.99978 126.184 1.11621 135.516 1.11621 147.028C1.11621 158.541 8.99978 167.873 18.7247 167.873Z" stroke="white" stroke-opacity="0.47" stroke-miterlimit="10"/>
<path d="M115.435 42.8613C125.16 42.8613 133.044 33.5288 133.044 22.0164C133.044 10.5041 125.16 1.17154 115.435 1.17154C105.71 1.17154 97.8267 10.5041 97.8267 22.0164C97.8267 33.5288 105.71 42.8613 115.435 42.8613Z" stroke="white" stroke-opacity="0.47" stroke-miterlimit="10"/>
<path d="M115.319 209.62C125.044 209.62 132.928 200.288 132.928 188.775C132.928 177.263 125.044 167.931 115.319 167.931C105.595 167.931 97.7109 177.263 97.7109 188.775C97.7109 200.288 105.595 209.62 115.319 209.62Z" stroke="white" stroke-opacity="0.47" stroke-miterlimit="10"/>
<path d="M115.435 126.241C125.16 126.241 133.044 116.908 133.044 105.396C133.044 93.8835 125.16 84.5511 115.435 84.5511C105.71 84.5511 97.8267 93.8835 97.8267 105.396C97.8267 116.908 105.71 126.241 115.435 126.241Z" stroke="white" stroke-opacity="0.47" stroke-miterlimit="10"/>
<path d="M115.319 293C125.044 293 132.928 283.667 132.928 272.155C132.928 260.643 125.044 251.31 115.319 251.31C105.595 251.31 97.7109 260.643 97.7109 272.155C97.7109 283.667 105.595 293 115.319 293Z" stroke="white" stroke-opacity="0.47" stroke-miterlimit="10"/>
<path d="M115.435 84.5511C125.16 84.5511 133.044 75.2186 133.044 63.7062C133.044 52.1939 125.16 42.8613 115.435 42.8613C105.71 42.8613 97.8267 52.1939 97.8267 63.7062C97.8267 75.2186 105.71 84.5511 115.435 84.5511Z" stroke="white" stroke-opacity="0.47" stroke-miterlimit="10"/>
<path d="M115.319 251.31C125.044 251.31 132.928 241.978 132.928 230.465C132.928 218.953 125.044 209.62 115.319 209.62C105.595 209.62 97.7109 218.953 97.7109 230.465C97.7109 241.978 105.595 251.31 115.319 251.31Z" stroke="white" stroke-opacity="0.47" stroke-miterlimit="10"/>
<path d="M115.435 167.931C125.16 167.931 133.044 158.598 133.044 147.086C133.044 135.573 125.16 126.241 115.435 126.241C105.71 126.241 97.8267 135.573 97.8267 147.086C97.8267 158.598 105.71 167.931 115.435 167.931Z" stroke="white" stroke-opacity="0.47" stroke-miterlimit="10"/>
<path d="M212.166 42.8613C221.902 42.8613 229.794 33.5288 229.794 22.0164C229.794 10.5041 221.902 1.17154 212.166 1.17154C202.431 1.17154 194.539 10.5041 194.539 22.0164C194.539 33.5288 202.431 42.8613 212.166 42.8613Z" stroke="white" stroke-opacity="0.47" stroke-miterlimit="10"/>
<path d="M212.051 209.62C221.786 209.62 229.679 200.288 229.679 188.775C229.679 177.263 221.786 167.931 212.051 167.931C202.315 167.931 194.423 177.263 194.423 188.775C194.423 200.288 202.315 209.62 212.051 209.62Z" stroke="white" stroke-opacity="0.47" stroke-miterlimit="10"/>
<path d="M212.166 126.241C221.902 126.241 229.794 116.908 229.794 105.396C229.794 93.8835 221.902 84.5511 212.166 84.5511C202.431 84.5511 194.539 93.8835 194.539 105.396C194.539 116.908 202.431 126.241 212.166 126.241Z" stroke="white" stroke-opacity="0.47" stroke-miterlimit="10"/>
<path d="M212.051 293C221.786 293 229.679 283.667 229.679 272.155C229.679 260.643 221.786 251.31 212.051 251.31C202.315 251.31 194.423 260.643 194.423 272.155C194.423 283.667 202.315 293 212.051 293Z" stroke="white" stroke-opacity="0.47" stroke-miterlimit="10"/>
<path d="M212.166 84.5511C221.902 84.5511 229.794 75.2186 229.794 63.7062C229.794 52.1939 221.902 42.8613 212.166 42.8613C202.431 42.8613 194.539 52.1939 194.539 63.7062C194.539 75.2186 202.431 84.5511 212.166 84.5511Z" stroke="white" stroke-opacity="0.47" stroke-miterlimit="10"/>
<path d="M212.051 251.31C221.786 251.31 229.679 241.978 229.679 230.465C229.679 218.953 221.786 209.62 212.051 209.62C202.315 209.62 194.423 218.953 194.423 230.465C194.423 241.978 202.315 251.31 212.051 251.31Z" stroke="white" stroke-opacity="0.47" stroke-miterlimit="10"/>
<path d="M212.166 167.931C221.902 167.931 229.794 158.598 229.794 147.086C229.794 135.573 221.902 126.241 212.166 126.241C202.431 126.241 194.539 135.573 194.539 147.086C194.539 158.598 202.431 167.931 212.166 167.931Z" stroke="white" stroke-opacity="0.47" stroke-miterlimit="10"/>
<path d="M67.0601 42.8613C76.7851 42.8613 84.6686 33.5288 84.6686 22.0164C84.6686 10.5041 76.7851 1.17154 67.0601 1.17154C57.3352 1.17154 49.4517 10.5041 49.4517 22.0164C49.4517 33.5288 57.3352 42.8613 67.0601 42.8613Z" stroke="white" stroke-opacity="0.47" stroke-miterlimit="10"/>
<path d="M66.9444 209.62C76.6693 209.62 84.5529 200.288 84.5529 188.775C84.5529 177.263 76.6693 167.931 66.9444 167.931C57.2195 167.931 49.3359 177.263 49.3359 188.775C49.3359 200.288 57.2195 209.62 66.9444 209.62Z" stroke="white" stroke-opacity="0.47" stroke-miterlimit="10"/>
<path d="M67.0601 126.241C76.7851 126.241 84.6686 116.908 84.6686 105.396C84.6686 93.8835 76.7851 84.5511 67.0601 84.5511C57.3352 84.5511 49.4517 93.8835 49.4517 105.396C49.4517 116.908 57.3352 126.241 67.0601 126.241Z" stroke="white" stroke-opacity="0.47" stroke-miterlimit="10"/>
<path d="M66.9444 293C76.6693 293 84.5529 283.667 84.5529 272.155C84.5529 260.643 76.6693 251.31 66.9444 251.31C57.2195 251.31 49.3359 260.643 49.3359 272.155C49.3359 283.667 57.2195 293 66.9444 293Z" stroke="white" stroke-opacity="0.47" stroke-miterlimit="10"/>
<path d="M67.0601 84.5511C76.7851 84.5511 84.6686 75.2186 84.6686 63.7062C84.6686 52.1939 76.7851 42.8613 67.0601 42.8613C57.3352 42.8613 49.4517 52.1939 49.4517 63.7062C49.4517 75.2186 57.3352 84.5511 67.0601 84.5511Z" stroke="white" stroke-opacity="0.47" stroke-miterlimit="10"/>
<path d="M66.9444 251.31C76.6693 251.31 84.5529 241.978 84.5529 230.465C84.5529 218.953 76.6693 209.62 66.9444 209.62C57.2195 209.62 49.3359 218.953 49.3359 230.465C49.3359 241.978 57.2195 251.31 66.9444 251.31Z" stroke="white" stroke-opacity="0.47" stroke-miterlimit="10"/>
<path d="M67.0601 167.931C76.7851 167.931 84.6686 158.598 84.6686 147.086C84.6686 135.573 76.7851 126.241 67.0601 126.241C57.3352 126.241 49.4517 135.573 49.4517 147.086C49.4517 158.598 57.3352 167.931 67.0601 167.931Z" stroke="white" stroke-opacity="0.47" stroke-miterlimit="10"/>
<path d="M163.791 42.8613C173.527 42.8613 181.419 33.5288 181.419 22.0164C181.419 10.5041 173.527 1.17154 163.791 1.17154C154.056 1.17154 146.164 10.5041 146.164 22.0164C146.164 33.5288 154.056 42.8613 163.791 42.8613Z" stroke="white" stroke-opacity="0.47" stroke-miterlimit="10"/>
<path d="M163.676 209.62C173.411 209.62 181.304 200.288 181.304 188.775C181.304 177.263 173.411 167.931 163.676 167.931C153.94 167.931 146.048 177.263 146.048 188.775C146.048 200.288 153.94 209.62 163.676 209.62Z" stroke="white" stroke-opacity="0.47" stroke-miterlimit="10"/>
<path d="M163.791 126.241C173.527 126.241 181.419 116.908 181.419 105.396C181.419 93.8835 173.527 84.5511 163.791 84.5511C154.056 84.5511 146.164 93.8835 146.164 105.396C146.164 116.908 154.056 126.241 163.791 126.241Z" stroke="white" stroke-opacity="0.47" stroke-miterlimit="10"/>
<path d="M163.676 293C173.411 293 181.304 283.667 181.304 272.155C181.304 260.643 173.411 251.31 163.676 251.31C153.94 251.31 146.048 260.643 146.048 272.155C146.048 283.667 153.94 293 163.676 293Z" stroke="white" stroke-opacity="0.47" stroke-miterlimit="10"/>
<path d="M163.791 84.5511C173.527 84.5511 181.419 75.2186 181.419 63.7062C181.419 52.1939 173.527 42.8613 163.791 42.8613C154.056 42.8613 146.164 52.1939 146.164 63.7062C146.164 75.2186 154.056 84.5511 163.791 84.5511Z" stroke="white" stroke-opacity="0.47" stroke-miterlimit="10"/>
<path d="M163.676 251.31C173.411 251.31 181.304 241.978 181.304 230.465C181.304 218.953 173.411 209.62 163.676 209.62C153.94 209.62 146.048 218.953 146.048 230.465C146.048 241.978 153.94 251.31 163.676 251.31Z" stroke="white" stroke-opacity="0.47" stroke-miterlimit="10"/>
<path d="M163.791 167.931C173.527 167.931 181.419 158.598 181.419 147.086C181.419 135.573 173.527 126.241 163.791 126.241C154.056 126.241 146.164 135.573 146.164 147.086C146.164 158.598 154.056 167.931 163.791 167.931Z" stroke="white" stroke-opacity="0.47" stroke-miterlimit="10"/>
<path d="M260.522 42.8613C270.247 42.8613 278.131 33.5288 278.131 22.0164C278.131 10.5041 270.247 1.17154 260.522 1.17154C250.797 1.17154 242.914 10.5041 242.914 22.0164C242.914 33.5288 250.797 42.8613 260.522 42.8613Z" stroke="white" stroke-opacity="0.47" stroke-miterlimit="10"/>
<path d="M260.406 209.62C270.131 209.62 278.015 200.288 278.015 188.775C278.015 177.263 270.131 167.931 260.406 167.931C250.681 167.931 242.798 177.263 242.798 188.775C242.798 200.288 250.681 209.62 260.406 209.62Z" stroke="white" stroke-opacity="0.47" stroke-miterlimit="10"/>
<path d="M260.522 126.241C270.247 126.241 278.131 116.908 278.131 105.396C278.131 93.8835 270.247 84.5511 260.522 84.5511C250.797 84.5511 242.914 93.8835 242.914 105.396C242.914 116.908 250.797 126.241 260.522 126.241Z" stroke="white" stroke-opacity="0.47" stroke-miterlimit="10"/>
<path d="M260.406 293C270.131 293 278.015 283.667 278.015 272.155C278.015 260.643 270.131 251.31 260.406 251.31C250.681 251.31 242.798 260.643 242.798 272.155C242.798 283.667 250.681 293 260.406 293Z" stroke="white" stroke-opacity="0.47" stroke-miterlimit="10"/>
<path d="M260.522 84.5511C270.247 84.5511 278.131 75.2186 278.131 63.7062C278.131 52.1939 270.247 42.8613 260.522 42.8613C250.797 42.8613 242.914 52.1939 242.914 63.7062C242.914 75.2186 250.797 84.5511 260.522 84.5511Z" stroke="white" stroke-opacity="0.47" stroke-miterlimit="10"/>
<path d="M260.406 251.31C270.131 251.31 278.015 241.978 278.015 230.465C278.015 218.953 270.131 209.62 260.406 209.62C250.681 209.62 242.798 218.953 242.798 230.465C242.798 241.978 250.681 251.31 260.406 251.31Z" stroke="white" stroke-opacity="0.47" stroke-miterlimit="10"/>
<path d="M260.522 167.931C270.247 167.931 278.131 158.598 278.131 147.086C278.131 135.573 270.247 126.241 260.522 126.241C250.797 126.241 242.914 135.573 242.914 147.086C242.914 158.598 250.797 167.931 260.522 167.931Z" stroke="white" stroke-opacity="0.47" stroke-miterlimit="10"/>
<path d="M308.878 42.6898C318.614 42.6898 326.506 33.3572 326.506 21.8449C326.506 10.3326 318.614 1 308.878 1C299.142 1 291.25 10.3326 291.25 21.8449C291.25 33.3572 299.142 42.6898 308.878 42.6898Z" stroke="white" stroke-opacity="0.47" stroke-miterlimit="10"/>
<path d="M308.762 209.449C318.497 209.449 326.389 200.117 326.389 188.604C326.389 177.092 318.497 167.759 308.762 167.759C299.026 167.759 291.134 177.092 291.134 188.604C291.134 200.117 299.026 209.449 308.762 209.449Z" stroke="white" stroke-opacity="0.47" stroke-miterlimit="10"/>
<path d="M308.878 126.069C318.614 126.069 326.506 116.737 326.506 105.224C326.506 93.712 318.614 84.3795 308.878 84.3795C299.142 84.3795 291.25 93.712 291.25 105.224C291.25 116.737 299.142 126.069 308.878 126.069Z" stroke="white" stroke-opacity="0.47" stroke-miterlimit="10"/>
<path d="M308.762 292.828C318.497 292.828 326.389 283.496 326.389 271.983C326.389 260.471 318.497 251.139 308.762 251.139C299.026 251.139 291.134 260.471 291.134 271.983C291.134 283.496 299.026 292.828 308.762 292.828Z" stroke="white" stroke-opacity="0.47" stroke-miterlimit="10"/>
<path d="M308.878 84.3795C318.614 84.3795 326.506 75.0471 326.506 63.5346C326.506 52.0223 318.614 42.6898 308.878 42.6898C299.142 42.6898 291.25 52.0223 291.25 63.5346C291.25 75.0471 299.142 84.3795 308.878 84.3795Z" stroke="white" stroke-opacity="0.47" stroke-miterlimit="10"/>
<path d="M308.762 251.139C318.497 251.139 326.389 241.806 326.389 230.294C326.389 218.781 318.497 209.449 308.762 209.449C299.026 209.449 291.134 218.781 291.134 230.294C291.134 241.806 299.026 251.139 308.762 251.139Z" stroke="white" stroke-opacity="0.47" stroke-miterlimit="10"/>
<path d="M308.878 167.759C318.614 167.759 326.506 158.427 326.506 146.914C326.506 135.402 318.614 126.069 308.878 126.069C299.142 126.069 291.25 135.402 291.25 146.914C291.25 158.427 299.142 167.759 308.878 167.759Z" stroke="white" stroke-opacity="0.47" stroke-miterlimit="10"/>
<path d="M357.253 42.6898C366.989 42.6898 374.881 33.3572 374.881 21.8449C374.881 10.3326 366.989 1 357.253 1C347.517 1 339.625 10.3326 339.625 21.8449C339.625 33.3572 347.517 42.6898 357.253 42.6898Z" stroke="white" stroke-opacity="0.47" stroke-miterlimit="10"/>
<path d="M357.137 209.449C366.872 209.449 374.764 200.117 374.764 188.604C374.764 177.092 366.872 167.759 357.137 167.759C347.401 167.759 339.509 177.092 339.509 188.604C339.509 200.117 347.401 209.449 357.137 209.449Z" stroke="white" stroke-opacity="0.47" stroke-miterlimit="10"/>
<path d="M357.253 126.069C366.989 126.069 374.881 116.737 374.881 105.224C374.881 93.712 366.989 84.3795 357.253 84.3795C347.517 84.3795 339.625 93.712 339.625 105.224C339.625 116.737 347.517 126.069 357.253 126.069Z" stroke="white" stroke-opacity="0.47" stroke-miterlimit="10"/>
<path d="M357.137 292.828C366.872 292.828 374.764 283.496 374.764 271.983C374.764 260.471 366.872 251.139 357.137 251.139C347.401 251.139 339.509 260.471 339.509 271.983C339.509 283.496 347.401 292.828 357.137 292.828Z" stroke="white" stroke-opacity="0.47" stroke-miterlimit="10"/>
<path d="M357.253 84.3795C366.989 84.3795 374.881 75.0471 374.881 63.5346C374.881 52.0223 366.989 42.6898 357.253 42.6898C347.517 42.6898 339.625 52.0223 339.625 63.5346C339.625 75.0471 347.517 84.3795 357.253 84.3795Z" stroke="white" stroke-opacity="0.47" stroke-miterlimit="10"/>
<path d="M357.137 251.139C366.872 251.139 374.764 241.806 374.764 230.294C374.764 218.781 366.872 209.449 357.137 209.449C347.401 209.449 339.509 218.781 339.509 230.294C339.509 241.806 347.401 251.139 357.137 251.139Z" stroke="white" stroke-opacity="0.47" stroke-miterlimit="10"/>
<path d="M357.253 167.759C366.989 167.759 374.881 158.427 374.881 146.914C374.881 135.402 366.989 126.069 357.253 126.069C347.517 126.069 339.625 135.402 339.625 146.914C339.625 158.427 347.517 167.759 357.253 167.759Z" stroke="white" stroke-opacity="0.47" stroke-miterlimit="10"/>
<path d="M31.8438 42.8041C41.5688 42.8041 49.4523 33.4715 49.4523 21.9592C49.4523 10.4469 41.5688 1.11429 31.8438 1.11429C22.1189 1.11429 14.2354 10.4469 14.2354 21.9592C14.2354 33.4715 22.1189 42.8041 31.8438 42.8041Z" stroke="white" stroke-opacity="0.47" stroke-miterlimit="10"/>
<path d="M31.7276 209.563C41.4525 209.563 49.3361 200.231 49.3361 188.718C49.3361 177.206 41.4525 167.874 31.7276 167.874C22.0027 167.874 14.1191 177.206 14.1191 188.718C14.1191 200.231 22.0027 209.563 31.7276 209.563Z" stroke="white" stroke-opacity="0.47" stroke-miterlimit="10"/>
<path d="M31.8438 126.184C41.5688 126.184 49.4523 116.851 49.4523 105.339C49.4523 93.8263 41.5688 84.4938 31.8438 84.4938C22.1189 84.4938 14.2354 93.8263 14.2354 105.339C14.2354 116.851 22.1189 126.184 31.8438 126.184Z" stroke="white" stroke-opacity="0.47" stroke-miterlimit="10"/>
<path d="M31.7276 292.943C41.4525 292.943 49.3361 283.61 49.3361 272.098C49.3361 260.585 41.4525 251.253 31.7276 251.253C22.0027 251.253 14.1191 260.585 14.1191 272.098C14.1191 283.61 22.0027 292.943 31.7276 292.943Z" stroke="white" stroke-opacity="0.47" stroke-miterlimit="10"/>
<path d="M31.8438 84.494C41.5688 84.494 49.4523 75.1615 49.4523 63.6491C49.4523 52.1368 41.5688 42.8042 31.8438 42.8042C22.1189 42.8042 14.2354 52.1368 14.2354 63.6491C14.2354 75.1615 22.1189 84.494 31.8438 84.494Z" stroke="white" stroke-opacity="0.47" stroke-miterlimit="10"/>
<path d="M31.7276 251.253C41.4525 251.253 49.3361 241.921 49.3361 230.408C49.3361 218.896 41.4525 209.563 31.7276 209.563C22.0027 209.563 14.1191 218.896 14.1191 230.408C14.1191 241.921 22.0027 251.253 31.7276 251.253Z" stroke="white" stroke-opacity="0.47" stroke-miterlimit="10"/>
<path d="M31.8438 167.873C41.5688 167.873 49.4523 158.541 49.4523 147.028C49.4523 135.516 41.5688 126.184 31.8438 126.184C22.1189 126.184 14.2354 135.516 14.2354 147.028C14.2354 158.541 22.1189 167.873 31.8438 167.873Z" stroke="white" stroke-opacity="0.47" stroke-miterlimit="10"/>
<path d="M128.575 42.8613C138.31 42.8613 146.202 33.5288 146.202 22.0164C146.202 10.5041 138.31 1.17154 128.575 1.17154C118.839 1.17154 110.947 10.5041 110.947 22.0164C110.947 33.5288 118.839 42.8613 128.575 42.8613Z" stroke="white" stroke-opacity="0.47" stroke-miterlimit="10"/>
<path d="M128.458 209.62C138.194 209.62 146.086 200.288 146.086 188.775C146.086 177.263 138.194 167.931 128.458 167.931C118.723 167.931 110.831 177.263 110.831 188.775C110.831 200.288 118.723 209.62 128.458 209.62Z" stroke="white" stroke-opacity="0.47" stroke-miterlimit="10"/>
<path d="M128.575 126.241C138.31 126.241 146.202 116.908 146.202 105.396C146.202 93.8835 138.31 84.5511 128.575 84.5511C118.839 84.5511 110.947 93.8835 110.947 105.396C110.947 116.908 118.839 126.241 128.575 126.241Z" stroke="white" stroke-opacity="0.47" stroke-miterlimit="10"/>
<path d="M128.458 293C138.194 293 146.086 283.667 146.086 272.155C146.086 260.643 138.194 251.31 128.458 251.31C118.723 251.31 110.831 260.643 110.831 272.155C110.831 283.667 118.723 293 128.458 293Z" stroke="white" stroke-opacity="0.47" stroke-miterlimit="10"/>
<path d="M128.575 84.5511C138.31 84.5511 146.202 75.2186 146.202 63.7062C146.202 52.1939 138.31 42.8613 128.575 42.8613C118.839 42.8613 110.947 52.1939 110.947 63.7062C110.947 75.2186 118.839 84.5511 128.575 84.5511Z" stroke="white" stroke-opacity="0.47" stroke-miterlimit="10"/>
<path d="M128.458 251.31C138.194 251.31 146.086 241.978 146.086 230.465C146.086 218.953 138.194 209.62 128.458 209.62C118.723 209.62 110.831 218.953 110.831 230.465C110.831 241.978 118.723 251.31 128.458 251.31Z" stroke="white" stroke-opacity="0.47" stroke-miterlimit="10"/>
<path d="M128.575 167.931C138.31 167.931 146.202 158.598 146.202 147.086C146.202 135.573 138.31 126.241 128.575 126.241C118.839 126.241 110.947 135.573 110.947 147.086C110.947 158.598 118.839 167.931 128.575 167.931Z" stroke="white" stroke-opacity="0.47" stroke-miterlimit="10"/>
<path d="M225.305 42.8613C235.03 42.8613 242.914 33.5288 242.914 22.0164C242.914 10.5041 235.03 1.17154 225.305 1.17154C215.58 1.17154 207.697 10.5041 207.697 22.0164C207.697 33.5288 215.58 42.8613 225.305 42.8613Z" stroke="white" stroke-opacity="0.47" stroke-miterlimit="10"/>
<path d="M225.189 209.62C234.914 209.62 242.798 200.288 242.798 188.775C242.798 177.263 234.914 167.931 225.189 167.931C215.464 167.931 207.581 177.263 207.581 188.775C207.581 200.288 215.464 209.62 225.189 209.62Z" stroke="white" stroke-opacity="0.47" stroke-miterlimit="10"/>
<path d="M225.305 126.241C235.03 126.241 242.914 116.908 242.914 105.396C242.914 93.8835 235.03 84.5511 225.305 84.5511C215.58 84.5511 207.697 93.8835 207.697 105.396C207.697 116.908 215.58 126.241 225.305 126.241Z" stroke="white" stroke-opacity="0.47" stroke-miterlimit="10"/>
<path d="M225.189 293C234.914 293 242.798 283.667 242.798 272.155C242.798 260.643 234.914 251.31 225.189 251.31C215.464 251.31 207.581 260.643 207.581 272.155C207.581 283.667 215.464 293 225.189 293Z" stroke="white" stroke-opacity="0.47" stroke-miterlimit="10"/>
<path d="M225.305 84.5511C235.03 84.5511 242.914 75.2186 242.914 63.7062C242.914 52.1939 235.03 42.8613 225.305 42.8613C215.58 42.8613 207.697 52.1939 207.697 63.7062C207.697 75.2186 215.58 84.5511 225.305 84.5511Z" stroke="white" stroke-opacity="0.47" stroke-miterlimit="10"/>
<path d="M225.189 251.31C234.914 251.31 242.798 241.978 242.798 230.465C242.798 218.953 234.914 209.62 225.189 209.62C215.464 209.62 207.581 218.953 207.581 230.465C207.581 241.978 215.464 251.31 225.189 251.31Z" stroke="white" stroke-opacity="0.47" stroke-miterlimit="10"/>
<path d="M225.305 167.931C235.03 167.931 242.914 158.598 242.914 147.086C242.914 135.573 235.03 126.241 225.305 126.241C215.58 126.241 207.697 135.573 207.697 147.086C207.697 158.598 215.58 167.931 225.305 167.931Z" stroke="white" stroke-opacity="0.47" stroke-miterlimit="10"/>
<path d="M80.1996 42.8613C89.9354 42.8613 97.8275 33.5288 97.8275 22.0164C97.8275 10.5041 89.9354 1.17154 80.1996 1.17154C70.4639 1.17154 62.5718 10.5041 62.5718 22.0164C62.5718 33.5288 70.4639 42.8613 80.1996 42.8613Z" stroke="white" stroke-opacity="0.47" stroke-miterlimit="10"/>
<path d="M80.0834 209.62C89.8192 209.62 97.7112 200.288 97.7112 188.775C97.7112 177.263 89.8192 167.931 80.0834 167.931C70.3477 167.931 62.4556 177.263 62.4556 188.775C62.4556 200.288 70.3477 209.62 80.0834 209.62Z" stroke="white" stroke-opacity="0.47" stroke-miterlimit="10"/>
<path d="M80.1996 126.241C89.9354 126.241 97.8275 116.908 97.8275 105.396C97.8275 93.8835 89.9354 84.5511 80.1996 84.5511C70.4639 84.5511 62.5718 93.8835 62.5718 105.396C62.5718 116.908 70.4639 126.241 80.1996 126.241Z" stroke="white" stroke-opacity="0.47" stroke-miterlimit="10"/>
<path d="M80.0834 293C89.8192 293 97.7112 283.667 97.7112 272.155C97.7112 260.643 89.8192 251.31 80.0834 251.31C70.3477 251.31 62.4556 260.643 62.4556 272.155C62.4556 283.667 70.3477 293 80.0834 293Z" stroke="white" stroke-opacity="0.47" stroke-miterlimit="10"/>
<path d="M80.1996 84.5511C89.9354 84.5511 97.8275 75.2186 97.8275 63.7062C97.8275 52.1939 89.9354 42.8613 80.1996 42.8613C70.4639 42.8613 62.5718 52.1939 62.5718 63.7062C62.5718 75.2186 70.4639 84.5511 80.1996 84.5511Z" stroke="white" stroke-opacity="0.47" stroke-miterlimit="10"/>
<path d="M80.0834 251.31C89.8192 251.31 97.7112 241.978 97.7112 230.465C97.7112 218.953 89.8192 209.62 80.0834 209.62C70.3477 209.62 62.4556 218.953 62.4556 230.465C62.4556 241.978 70.3477 251.31 80.0834 251.31Z" stroke="white" stroke-opacity="0.47" stroke-miterlimit="10"/>
<path d="M80.1996 167.931C89.9354 167.931 97.8275 158.598 97.8275 147.086C97.8275 135.573 89.9354 126.241 80.1996 126.241C70.4639 126.241 62.5718 135.573 62.5718 147.086C62.5718 158.598 70.4639 167.931 80.1996 167.931Z" stroke="white" stroke-opacity="0.47" stroke-miterlimit="10"/>
<path d="M176.93 42.8613C186.655 42.8613 194.539 33.5288 194.539 22.0164C194.539 10.5041 186.655 1.17154 176.93 1.17154C167.205 1.17154 159.322 10.5041 159.322 22.0164C159.322 33.5288 167.205 42.8613 176.93 42.8613Z" stroke="white" stroke-opacity="0.47" stroke-miterlimit="10"/>
<path d="M176.814 209.62C186.539 209.62 194.423 200.288 194.423 188.775C194.423 177.263 186.539 167.931 176.814 167.931C167.089 167.931 159.206 177.263 159.206 188.775C159.206 200.288 167.089 209.62 176.814 209.62Z" stroke="white" stroke-opacity="0.47" stroke-miterlimit="10"/>
<path d="M176.93 126.241C186.655 126.241 194.539 116.908 194.539 105.396C194.539 93.8835 186.655 84.5511 176.93 84.5511C167.205 84.5511 159.322 93.8835 159.322 105.396C159.322 116.908 167.205 126.241 176.93 126.241Z" stroke="white" stroke-opacity="0.47" stroke-miterlimit="10"/>
<path d="M176.814 293C186.539 293 194.423 283.667 194.423 272.155C194.423 260.643 186.539 251.31 176.814 251.31C167.089 251.31 159.206 260.643 159.206 272.155C159.206 283.667 167.089 293 176.814 293Z" stroke="white" stroke-opacity="0.47" stroke-miterlimit="10"/>
<path d="M176.93 84.5511C186.655 84.5511 194.539 75.2186 194.539 63.7062C194.539 52.1939 186.655 42.8613 176.93 42.8613C167.205 42.8613 159.322 52.1939 159.322 63.7062C159.322 75.2186 167.205 84.5511 176.93 84.5511Z" stroke="white" stroke-opacity="0.47" stroke-miterlimit="10"/>
<path d="M176.814 251.31C186.539 251.31 194.423 241.978 194.423 230.465C194.423 218.953 186.539 209.62 176.814 209.62C167.089 209.62 159.206 218.953 159.206 230.465C159.206 241.978 167.089 251.31 176.814 251.31Z" stroke="white" stroke-opacity="0.47" stroke-miterlimit="10"/>
<path d="M176.93 167.931C186.655 167.931 194.539 158.598 194.539 147.086C194.539 135.573 186.655 126.241 176.93 126.241C167.205 126.241 159.322 135.573 159.322 147.086C159.322 158.598 167.205 167.931 176.93 167.931Z" stroke="white" stroke-opacity="0.47" stroke-miterlimit="10"/>
<path d="M273.642 42.8613C283.367 42.8613 291.25 33.5288 291.25 22.0164C291.25 10.5041 283.367 1.17154 273.642 1.17154C263.917 1.17154 256.033 10.5041 256.033 22.0164C256.033 33.5288 263.917 42.8613 273.642 42.8613Z" stroke="white" stroke-opacity="0.47" stroke-miterlimit="10"/>
<path d="M273.525 209.62C283.25 209.62 291.133 200.288 291.133 188.775C291.133 177.263 283.25 167.931 273.525 167.931C263.8 167.931 255.917 177.263 255.917 188.775C255.917 200.288 263.8 209.62 273.525 209.62Z" stroke="white" stroke-opacity="0.47" stroke-miterlimit="10"/>
<path d="M273.642 126.241C283.367 126.241 291.25 116.908 291.25 105.396C291.25 93.8835 283.367 84.5511 273.642 84.5511C263.917 84.5511 256.033 93.8835 256.033 105.396C256.033 116.908 263.917 126.241 273.642 126.241Z" stroke="white" stroke-opacity="0.47" stroke-miterlimit="10"/>
<path d="M273.525 293C283.25 293 291.133 283.667 291.133 272.155C291.133 260.643 283.25 251.31 273.525 251.31C263.8 251.31 255.917 260.643 255.917 272.155C255.917 283.667 263.8 293 273.525 293Z" stroke="white" stroke-opacity="0.47" stroke-miterlimit="10"/>
<path d="M273.642 84.5511C283.367 84.5511 291.25 75.2186 291.25 63.7062C291.25 52.1939 283.367 42.8613 273.642 42.8613C263.917 42.8613 256.033 52.1939 256.033 63.7062C256.033 75.2186 263.917 84.5511 273.642 84.5511Z" stroke="white" stroke-opacity="0.47" stroke-miterlimit="10"/>
<path d="M273.525 251.31C283.25 251.31 291.133 241.978 291.133 230.465C291.133 218.953 283.25 209.62 273.525 209.62C263.8 209.62 255.917 218.953 255.917 230.465C255.917 241.978 263.8 251.31 273.525 251.31Z" stroke="white" stroke-opacity="0.47" stroke-miterlimit="10"/>
<path d="M273.642 167.931C283.367 167.931 291.25 158.598 291.25 147.086C291.25 135.573 283.367 126.241 273.642 126.241C263.917 126.241 256.033 135.573 256.033 147.086C256.033 158.598 263.917 167.931 273.642 167.931Z" stroke="white" stroke-opacity="0.47" stroke-miterlimit="10"/>
<path d="M322.017 42.6898C331.742 42.6898 339.625 33.3572 339.625 21.8449C339.625 10.3326 331.742 1 322.017 1C312.292 1 304.408 10.3326 304.408 21.8449C304.408 33.3572 312.292 42.6898 322.017 42.6898Z" stroke="white" stroke-opacity="0.47" stroke-miterlimit="10"/>
<path d="M321.9 209.449C331.625 209.449 339.508 200.117 339.508 188.604C339.508 177.092 331.625 167.759 321.9 167.759C312.175 167.759 304.292 177.092 304.292 188.604C304.292 200.117 312.175 209.449 321.9 209.449Z" stroke="white" stroke-opacity="0.47" stroke-miterlimit="10"/>
<path d="M322.017 126.069C331.742 126.069 339.625 116.737 339.625 105.224C339.625 93.712 331.742 84.3795 322.017 84.3795C312.292 84.3795 304.408 93.712 304.408 105.224C304.408 116.737 312.292 126.069 322.017 126.069Z" stroke="white" stroke-opacity="0.47" stroke-miterlimit="10"/>
<path d="M321.9 292.828C331.625 292.828 339.508 283.496 339.508 271.983C339.508 260.471 331.625 251.139 321.9 251.139C312.175 251.139 304.292 260.471 304.292 271.983C304.292 283.496 312.175 292.828 321.9 292.828Z" stroke="white" stroke-opacity="0.47" stroke-miterlimit="10"/>
<path d="M322.017 84.3795C331.742 84.3795 339.625 75.0471 339.625 63.5346C339.625 52.0223 331.742 42.6898 322.017 42.6898C312.292 42.6898 304.408 52.0223 304.408 63.5346C304.408 75.0471 312.292 84.3795 322.017 84.3795Z" stroke="white" stroke-opacity="0.47" stroke-miterlimit="10"/>
<path d="M321.9 251.139C331.625 251.139 339.508 241.806 339.508 230.294C339.508 218.781 331.625 209.449 321.9 209.449C312.175 209.449 304.292 218.781 304.292 230.294C304.292 241.806 312.175 251.139 321.9 251.139Z" stroke="white" stroke-opacity="0.47" stroke-miterlimit="10"/>
<path d="M322.017 167.759C331.742 167.759 339.625 158.427 339.625 146.914C339.625 135.402 331.742 126.069 322.017 126.069C312.292 126.069 304.408 135.402 304.408 146.914C304.408 158.427 312.292 167.759 322.017 167.759Z" stroke="white" stroke-opacity="0.47" stroke-miterlimit="10"/>
<path d="M370.392 42.6898C380.117 42.6898 388 33.3572 388 21.8449C388 10.3326 380.117 1 370.392 1C360.667 1 352.783 10.3326 352.783 21.8449C352.783 33.3572 360.667 42.6898 370.392 42.6898Z" stroke="white" stroke-opacity="0.47" stroke-miterlimit="10"/>
<path d="M370.275 209.449C380 209.449 387.883 200.117 387.883 188.604C387.883 177.092 380 167.759 370.275 167.759C360.55 167.759 352.667 177.092 352.667 188.604C352.667 200.117 360.55 209.449 370.275 209.449Z" stroke="white" stroke-opacity="0.47" stroke-miterlimit="10"/>
<path d="M370.392 126.069C380.117 126.069 388 116.737 388 105.224C388 93.712 380.117 84.3795 370.392 84.3795C360.667 84.3795 352.783 93.712 352.783 105.224C352.783 116.737 360.667 126.069 370.392 126.069Z" stroke="white" stroke-opacity="0.47" stroke-miterlimit="10"/>
<path d="M370.275 292.828C380 292.828 387.883 283.496 387.883 271.983C387.883 260.471 380 251.139 370.275 251.139C360.55 251.139 352.667 260.471 352.667 271.983C352.667 283.496 360.55 292.828 370.275 292.828Z" stroke="white" stroke-opacity="0.47" stroke-miterlimit="10"/>
<path d="M370.392 84.3795C380.117 84.3795 388 75.0471 388 63.5346C388 52.0223 380.117 42.6898 370.392 42.6898C360.667 42.6898 352.783 52.0223 352.783 63.5346C352.783 75.0471 360.667 84.3795 370.392 84.3795Z" stroke="white" stroke-opacity="0.47" stroke-miterlimit="10"/>
<path d="M370.275 251.139C380 251.139 387.883 241.806 387.883 230.294C387.883 218.781 380 209.449 370.275 209.449C360.55 209.449 352.667 218.781 352.667 230.294C352.667 241.806 360.55 251.139 370.275 251.139Z" stroke="white" stroke-opacity="0.47" stroke-miterlimit="10"/>
<path d="M370.392 167.759C380.117 167.759 388 158.427 388 146.914C388 135.402 380.117 126.069 370.392 126.069C360.667 126.069 352.783 135.402 352.783 146.914C352.783 158.427 360.667 167.759 370.392 167.759Z" stroke="white" stroke-opacity="0.47" stroke-miterlimit="10"/>
</g>
</svg>
