<svg width="48" height="48" viewBox="0 0 48 48" fill="none" xmlns="http://www.w3.org/2000/svg">
<path d="M13.5 35V33.3333C13.5 29.6514 16.4848 26.6667 20.1667 26.6667H26.8333C30.5152 26.6667 33.5 29.6514 33.5 33.3333V35M28.5 15C28.5 17.7614 26.2614 20 23.5 20C20.7386 20 18.5 17.7614 18.5 15C18.5 12.2386 20.7386 10 23.5 10C26.2614 10 28.5 12.2386 28.5 15Z" stroke="#007AFF" stroke-width="3" stroke-linecap="round" stroke-linejoin="round"/>
<path d="M12.8335 19.5002C11.1668 19.5002 9.50016 18.223 9.50016 16.1669C9.50016 14.1108 11.1668 12.8336 12.8335 12.8336M4.50016 33.3333V30.2381C4.50016 27.0822 6.98747 24.5238 10.0557 24.5238H11.0002" stroke="#007AFF" stroke-width="3" stroke-linecap="round" stroke-linejoin="round"/>
<path d="M34.1665 19.5002C35.8332 19.5002 37.4998 18.223 37.4998 16.1669C37.4998 14.1108 35.8332 12.8336 34.1665 12.8336M42.4998 33.3333V30.2381C42.4998 27.0821 40.0125 24.5238 36.9443 24.5238H35.9998" stroke="#007AFF" stroke-width="3" stroke-linecap="round" stroke-linejoin="round"/>
</svg>
