<svg width="49" height="48" viewBox="0 0 49 48" fill="none" xmlns="http://www.w3.org/2000/svg">
<path d="M31.8788 14.9043V18.9043M31.8788 26.9043V30.9043M31.8788 38.9043V42.9043M11.5 38.4043V37.1376C11.5 34.3394 13.7386 32.071 16.5 32.071H21.5C24.2614 32.071 26.5 34.3394 26.5 37.1376V38.4043M8.0404 14.9043C5.80895 14.9043 4 16.6952 4 18.9043V24.9043C6.23145 24.9043 8.0404 26.6952 8.0404 28.9043C8.0404 31.1134 6.23145 32.9043 4 32.9043V38.9043C4 41.1134 5.80895 42.9043 8.0404 42.9043H39.9596C42.1911 42.9043 44 41.1134 44 38.9043V32.9043C41.7685 32.9043 39.9596 31.1134 39.9596 28.9043C39.9596 26.6952 41.7685 24.9043 44 24.9043V18.9043C44 16.6952 42.1911 14.9043 39.9596 14.9043H8.0404ZM22.75 23.2043C22.75 25.303 21.0711 27.0043 19 27.0043C16.9289 27.0043 15.25 25.303 15.25 23.2043C15.25 21.1056 16.9289 19.4043 19 19.4043C21.0711 19.4043 22.75 21.1056 22.75 23.2043Z" stroke="#007AFF" stroke-width="3" stroke-linecap="round" stroke-linejoin="round"/>
<path d="M42.3336 13.8525L41.0736 8.54106C40.6096 6.58544 38.6322 5.37998 36.6568 5.84859L8.40056 12.5518C6.81334 12.9283 5.7104 14.2711 5.5789 15.7987M29.5033 7.54559L30.3433 11.0866M21.9987 14.9293C21.2015 14.27 20.1227 13.9787 19.0475 14.2338C18.5382 14.3546 18.0834 14.5852 17.7013 14.8952" stroke="#007AFF" stroke-width="3" stroke-linecap="round" stroke-linejoin="round"/>
</svg>
