<svg width="49" height="48" viewBox="0 0 49 48" fill="none" xmlns="http://www.w3.org/2000/svg">
<g clip-path="url(#clip0_6103_15631)">
<path d="M18 30L30 18" stroke="#007AFF" stroke-width="3" stroke-linecap="round" stroke-linejoin="round"/>
<circle cx="19" cy="19" r="1" fill="#007AFF" stroke="#007AFF" stroke-width="3" stroke-linecap="round" stroke-linejoin="round"/>
<circle cx="29" cy="29" r="1" fill="#007AFF" stroke="#007AFF" stroke-width="3" stroke-linecap="round" stroke-linejoin="round"/>
<path d="M9.99995 14.3999C9.99995 11.9699 11.9699 9.99995 14.3999 9.99995H16.3999C17.5617 9.99928 18.6761 9.53915 19.4999 8.71995L20.8999 7.31995C21.7258 6.48943 22.8487 6.02246 24.0199 6.02246C25.1912 6.02246 26.3141 6.48943 27.1399 7.31995L28.5399 8.71995C29.3638 9.53915 30.4781 9.99928 31.6399 9.99995H33.6399C36.07 9.99995 38.0399 11.9699 38.0399 14.3999V16.3999C38.0406 17.5617 38.5007 18.6761 39.3199 19.4999L40.7199 20.8999C41.5505 21.7258 42.0174 22.8487 42.0174 24.0199C42.0174 25.1912 41.5505 26.3141 40.7199 27.1399L39.3199 28.5399C38.5007 29.3638 38.0406 30.4781 38.0399 31.6399V33.6399C38.0399 36.07 36.07 38.0399 33.6399 38.0399H31.6399C30.4781 38.0406 29.3638 38.5007 28.5399 39.3199L27.1399 40.7199C26.3141 41.5505 25.1912 42.0174 24.0199 42.0174C22.8487 42.0174 21.7258 41.5505 20.8999 40.7199L19.4999 39.3199C18.6761 38.5007 17.5617 38.0406 16.3999 38.0399H14.3999C11.9699 38.0399 9.99995 36.07 9.99995 33.6399V31.6399C9.99928 30.4781 9.53915 29.3638 8.71995 28.5399L7.31995 27.1399C6.48943 26.3141 6.02246 25.1912 6.02246 24.0199C6.02246 22.8487 6.48943 21.7258 7.31995 20.8999L8.71995 19.4999C9.53915 18.6761 9.99928 17.5617 9.99995 16.3999V14.3999" stroke="#007AFF" stroke-width="3" stroke-linecap="round" stroke-linejoin="round"/>
</g>
<defs>
<clipPath id="clip0_6103_15631">
<rect width="48" height="48" fill="white" transform="translate(0.5)"/>
</clipPath>
</defs>
</svg>
